<?xml version="1.0" encoding="UTF-8"?>
<svg id="sologregn" xmlns="http://www.w3.org/2000/svg" viewBox="0 0 469.79 469.79">
  <defs>
    <style>
      .cls-1 {
        fill: #335b5c;
      }

      .cls-2 {
        fill: #488484;
      }

      .cls-3 {
        fill: #629f9e;
      }

      .cls-4 {
        fill: #dabf41;
      }
    </style>
  </defs>
  <g id="halv_sol" data-name="halv sol">
    <circle class="cls-4" cx="304.68" cy="192.13" r="57"/>
    <g>
      <rect class="cls-4" x="299.68" y="81.83" width="10" height="35" rx="5" ry="5"/>
      <rect class="cls-4" x="392.48" y="174.63" width="10" height="35" rx="5" ry="5" transform="translate(589.61 -205.35) rotate(90)"/>
      <rect class="cls-4" x="365.3" y="109.01" width="10" height="35" rx="5" ry="5" transform="translate(197.91 -224.79) rotate(45)"/>
      <rect class="cls-4" x="365.3" y="240.25" width="10" height="35" rx="5" ry="5" transform="translate(814.4 178.16) rotate(135)"/>
      <rect class="cls-4" x="234.06" y="109.01" width="10" height="35" rx="5" ry="5" transform="translate(497.56 46.92) rotate(135)"/>
    </g>
  </g>
  <g id="skyet_med_sol_og_regn" data-name="skyet med sol og regn">
    <path class="cls-3" d="M348.34,255.27c0,23.47-19.03,42.5-42.5,42.5H54.81c3.29-28.35,20.41-47.66,45.01-49.47,8.38-.62,16.66,2.51,16.8,2.52-.72-1.98-2.31-6.22-2.6-10.94-1.15-18.73,11.48-32.62,30.22-33.85,13.43-.88,22.21,6.92,28.24,12.39.18-31.33,21.4-58.18,52.77-58.18s57,25.52,57,57c0,.92-.02,1.83-.06,2.73,6.76-4.55,14.89-7.19,23.65-7.19,23.47,0,42.5,19.02,42.5,42.5Z"/>
    <g>
      <path class="cls-2" d="M211.68,271.6c-.16-6.44-10.73-19.48-23.45-23.28-12.71-3.8-25.76,3.47-25.76,3.47,1.49-13.05-6.6-21.14-15.52-28.08-8.92-6.93-25.86-6.66-25.86-6.66,5.36-6.35,13.43-10.39,23.14-11.03,5.93-.39,10.95.91,15.23,2.96,4.41,2.11,8.03,5,11.04,7.65.69.61,1.34,1.2,1.97,1.77,1.67,2.34,2.22,7.13,2.22,7.13,0,0,8.42-4.05,26.88,8.01,18.45,12.05,10.11,38.06,10.11,38.06Z"/>
      <path class="cls-2" d="M305.84,212.77c-8.76,0-16.89,2.64-23.65,7.19.04-.9.06-1.81.06-2.73,0-31.48-25.52-57-57-57-8.76,0-16.73,2.1-23.67,5.8.08.01,15.26,2.48,27.66,10.09,26.09,16.02,30.88,46.4,29.06,81.25,0,0,51.36-40.29,89.78,2.54.17-1.52.26-3.07.26-4.64,0-23.48-19.03-42.5-42.5-42.5Z"/>
    </g>
  </g>
  <g id="regn-2" data-name="regn">
    <path class="cls-1" d="M273.83,334.44h0s.19-21.59.19-21.59l-16.42,14.02h.01c-1.17.94-2.16,2.14-2.83,3.59-2.33,5.01-.17,10.96,4.84,13.29,5.01,2.33,10.96.17,13.29-4.84.68-1.45.96-2.98.93-4.48Z"/>
    <path class="cls-1" d="M215.86,334.44h0s.19-21.59.19-21.59l-16.42,14.02h.01c-1.17.94-2.16,2.14-2.83,3.59-2.33,5.01-.17,10.96,4.84,13.29,5.01,2.33,10.96.17,13.29-4.84.68-1.45.96-2.98.93-4.48Z"/>
    <path class="cls-1" d="M157.9,334.44h0s.19-21.59.19-21.59l-16.42,14.02h.01c-1.17.94-2.16,2.14-2.83,3.59-2.33,5.01-.17,10.96,4.84,13.29,5.01,2.33,10.96.17,13.29-4.84.68-1.45.96-2.98.93-4.48Z"/>
    <path class="cls-1" d="M99.94,334.44h0s.19-21.59.19-21.59l-16.42,14.02h.01c-1.17.94-2.16,2.14-2.83,3.59-2.33,5.01-.17,10.96,4.84,13.29,5.01,2.33,10.96.17,13.29-4.84.68-1.45.96-2.98.93-4.48Z"/>
    <path class="cls-1" d="M236.05,377.7h0s.19-21.59.19-21.59l-16.42,14.02h.01c-1.17.94-2.16,2.14-2.83,3.59-2.33,5.01-.17,10.96,4.84,13.29,5.01,2.33,10.96.17,13.29-4.84.68-1.45.96-2.98.93-4.48Z"/>
    <path class="cls-1" d="M178.09,377.7h0s.19-21.59.19-21.59l-16.42,14.02h.01c-1.17.94-2.16,2.14-2.83,3.59-2.33,5.01-.17,10.96,4.84,13.29,5.01,2.33,10.96.17,13.29-4.84.68-1.45.96-2.98.93-4.48Z"/>
    <path class="cls-1" d="M120.12,377.7h0s.19-21.59.19-21.59l-16.42,14.02h.01c-1.17.94-2.16,2.14-2.83,3.59-2.33,5.01-.17,10.96,4.84,13.29,5.01,2.33,10.96.17,13.29-4.84.68-1.45.96-2.98.93-4.48Z"/>
  </g>
</svg>