<?xml version="1.0" encoding="UTF-8"?>
<svg id="almsky" xmlns="http://www.w3.org/2000/svg" viewBox="0 0 293.53 137.54">
  <defs>
    <style>
      .cls-1 {
        fill: #629f9e;
      }
    </style>
  </defs>
  <path id="alm_sky" data-name="alm sky" class="cls-1" d="M293.53,95.04c0,23.47-19.03,42.5-42.5,42.5H0c3.29-28.35,20.41-47.66,45.01-49.47,8.38-.62,16.66,2.51,16.8,2.52-.72-1.98-2.31-6.22-2.6-10.94-1.15-18.73,11.48-32.62,30.22-33.85,13.43-.88,22.21,6.92,28.24,12.39.18-31.33,21.4-58.18,52.77-58.18s57,25.52,57,57c0,.92-.02,1.83-.06,2.73,6.76-4.55,14.89-7.19,23.65-7.19,23.47,0,42.5,19.02,42.5,42.5Z"/>
</svg>