<?xml version="1.0" encoding="UTF-8"?>
<svg id="lillesky" xmlns="http://www.w3.org/2000/svg" viewBox="0 0 351.47 183.66">
  <defs>
    <style>
      .cls-1 {
        fill: #335b5c;
      }

      .cls-2 {
        fill: #488484;
      }

      .cls-3 {
        fill: #629f9e;
      }
    </style>
  </defs>
  <g>
    <path class="cls-2" d="M351.33,73.77c-.97-19.26-16.89-34.58-36.39-34.58-5.55,0-10.81,1.25-15.51,3.46.02-.5.03-1,.03-1.5,0-22.73-18.43-41.16-41.16-41.16-21.33,0-36.16,17.2-37.92,38.1-3.76-2.84-8.44-4.52-13.52-4.52-12.4,0-22.46,10.06-22.46,22.46,0,2.29,39.13,55.95,39.13,55.95h89.15c.75.05,1.5.08,2.25.08,18.36,0,33.53-13.58,36.06-31.24.3-1.42.46-2.92.46-4.51,0-.85-.05-1.69-.14-2.54Z"/>
    <path class="cls-1" d="M351.33,73.77c-.97-19.26-16.89-34.58-36.39-34.58-1.42,0-2.82.08-4.2.24.02.03,12.69,25.99-2.16,41.17-21.15,21.62-43.93,1.82-43.93,1.82,0,0-.66,8.09-5.78,13.54-5.23,5.56-20.97,10.73-20.97,10.73v5.28h74.79c.75.05,1.5.08,2.25.08,18.36,0,33.53-13.58,36.06-31.24.3-1.42.46-2.92.46-4.51,0-.85-.05-1.69-.14-2.54Z"/>
  </g>
  <path class="cls-3" d="M293.53,141.16c0,23.47-19.03,42.5-42.5,42.5H0c3.29-28.35,20.41-47.66,45.01-49.47,8.38-.62,16.66,2.51,16.8,2.52-.72-1.98-2.31-6.22-2.6-10.94-1.15-18.73,11.48-32.62,30.22-33.85,13.43-.88,22.21,6.92,28.24,12.39.18-31.33,21.4-58.18,52.77-58.18s57,25.52,57,57c0,.92-.02,1.83-.06,2.73,6.76-4.55,14.89-7.19,23.65-7.19,23.47,0,42.5,19.02,42.5,42.5Z"/>
  <g>
    <path class="cls-2" d="M61.81,136.71c7.94,15.44,31.9,15.08,45.63,1.23-18.24-.68-37.2-22.2-24.54-45.03,0,0-.01,0-.02,0-15.05,3.68-24.68,16.4-23.67,32.85.29,4.72,1.88,8.96,2.6,10.94,0,0,0,0,0,0,0,0,0,0,0,0Z"/>
    <path class="cls-2" d="M293.53,141.16c0-15.82-8.65-29.61-21.47-36.93-.02.12-3.65,28.78-23.2,38.35-15.74,7.71-37.76,8.92-54.11-4.29,0,0-3.94,19.13-38.31,31.21-38.48,13.52-38.15,10.73-52.24,14.16h146.83c23.47,0,42.5-19.03,42.5-42.5Z"/>
  </g>
</svg>