<?xml version="1.0" encoding="UTF-8"?>
<svg id="kraftigsne" xmlns="http://www.w3.org/2000/svg" viewBox="0 0 293.53 228.72">
  <defs>
    <style>
      .cls-1 {
        fill: #488484;
      }

      .cls-2 {
        fill: #8abebb;
      }

      .cls-3 {
        fill: #629f9e;
      }
    </style>
  </defs>
  <g>
    <path class="cls-2" d="M67.31,212.2h-9.83s6.95-6.95,6.95-6.95c.59-.59.59-1.55,0-2.14-.59-.59-1.55-.59-2.14,0l-6.95,6.95v-9.83c0-.84-.68-1.51-1.51-1.51s-1.51.68-1.51,1.51v9.83s-6.95-6.95-6.95-6.95c-.59-.59-1.55-.59-2.14,0-.59.59-.59,1.55,0,2.14l6.95,6.95h-9.83c-.84,0-1.51.68-1.51,1.51s.68,1.51,1.51,1.51h9.83s-6.95,6.95-6.95,6.95c-.59.59-.59,1.55,0,2.14.3.3.68.44,1.07.44s.78-.15,1.07-.44l6.95-6.95v9.83c0,.84.68,1.51,1.51,1.51s1.51-.68,1.51-1.51v-9.83s6.95,6.95,6.95,6.95c.3.3.68.44,1.07.44s.78-.15,1.07-.44c.59-.59.59-1.55,0-2.14l-6.95-6.95h9.83c.84,0,1.51-.68,1.51-1.51s-.68-1.51-1.51-1.51Z"/>
    <path class="cls-2" d="M117.14,212.2h-9.83s6.95-6.95,6.95-6.95c.59-.59.59-1.55,0-2.14-.59-.59-1.55-.59-2.14,0l-6.95,6.95v-9.83c0-.84-.68-1.51-1.51-1.51s-1.51.68-1.51,1.51v9.83s-6.95-6.95-6.95-6.95c-.59-.59-1.55-.59-2.14,0-.59.59-.59,1.55,0,2.14l6.95,6.95h-9.83c-.84,0-1.51.68-1.51,1.51s.68,1.51,1.51,1.51h9.83s-6.95,6.95-6.95,6.95c-.59.59-.59,1.55,0,2.14.3.3.68.44,1.07.44s.78-.15,1.07-.44l6.95-6.95v9.83c0,.84.68,1.51,1.51,1.51s1.51-.68,1.51-1.51v-9.83s6.95,6.95,6.95,6.95c.3.3.68.44,1.07.44s.78-.15,1.07-.44c.59-.59.59-1.55,0-2.14l-6.95-6.95h9.83c.84,0,1.51-.68,1.51-1.51s-.68-1.51-1.51-1.51Z"/>
    <path class="cls-2" d="M166.96,212.2h-9.83s6.95-6.95,6.95-6.95c.59-.59.59-1.55,0-2.14-.59-.59-1.55-.59-2.14,0l-6.95,6.95v-9.83c0-.84-.68-1.51-1.51-1.51s-1.51.68-1.51,1.51v9.83s-6.95-6.95-6.95-6.95c-.59-.59-1.55-.59-2.14,0-.59.59-.59,1.55,0,2.14l6.95,6.95h-9.83c-.84,0-1.51.68-1.51,1.51s.68,1.51,1.51,1.51h9.83s-6.95,6.95-6.95,6.95c-.59.59-.59,1.55,0,2.14.3.3.68.44,1.07.44s.78-.15,1.07-.44l6.95-6.95v9.83c0,.84.68,1.51,1.51,1.51s1.51-.68,1.51-1.51v-9.83s6.95,6.95,6.95,6.95c.3.3.68.44,1.07.44s.78-.15,1.07-.44c.59-.59.59-1.55,0-2.14l-6.95-6.95h9.83c.84,0,1.51-.68,1.51-1.51s-.68-1.51-1.51-1.51Z"/>
    <path class="cls-2" d="M216.78,212.2h-9.83s6.95-6.95,6.95-6.95c.59-.59.59-1.55,0-2.14-.59-.59-1.55-.59-2.14,0l-6.95,6.95v-9.83c0-.84-.68-1.51-1.51-1.51s-1.51.68-1.51,1.51v9.83s-6.95-6.95-6.95-6.95c-.59-.59-1.55-.59-2.14,0-.59.59-.59,1.55,0,2.14l6.95,6.95h-9.83c-.84,0-1.51.68-1.51,1.51s.68,1.51,1.51,1.51h9.83s-6.95,6.95-6.95,6.95c-.59.59-.59,1.55,0,2.14.3.3.68.44,1.07.44s.78-.15,1.07-.44l6.95-6.95v9.83c0,.84.68,1.51,1.51,1.51s1.51-.68,1.51-1.51v-9.83s6.95,6.95,6.95,6.95c.3.3.68.44,1.07.44s.78-.15,1.07-.44c.59-.59.59-1.55,0-2.14l-6.95-6.95h9.83c.84,0,1.51-.68,1.51-1.51s-.68-1.51-1.51-1.51Z"/>
    <path class="cls-2" d="M92.22,171.12h-9.83s6.95-6.95,6.95-6.95c.59-.59.59-1.55,0-2.14-.59-.59-1.55-.59-2.14,0l-6.95,6.95v-9.83c0-.84-.68-1.51-1.51-1.51s-1.51.68-1.51,1.51v9.83s-6.95-6.95-6.95-6.95c-.59-.59-1.55-.59-2.14,0-.59.59-.59,1.55,0,2.14l6.95,6.95h-9.83c-.84,0-1.51.68-1.51,1.51s.68,1.51,1.51,1.51h9.83s-6.95,6.95-6.95,6.95c-.59.59-.59,1.55,0,2.14.3.3.68.44,1.07.44s.78-.15,1.07-.44l6.95-6.95v9.83c0,.84.68,1.51,1.51,1.51s1.51-.68,1.51-1.51v-9.83s6.95,6.95,6.95,6.95c.3.3.68.44,1.07.44s.78-.15,1.07-.44c.59-.59.59-1.55,0-2.14l-6.95-6.95h9.83c.84,0,1.51-.68,1.51-1.51s-.68-1.51-1.51-1.51Z"/>
    <path class="cls-2" d="M142.05,171.12h-9.83s6.95-6.95,6.95-6.95c.59-.59.59-1.55,0-2.14-.59-.59-1.55-.59-2.14,0l-6.95,6.95v-9.83c0-.84-.68-1.51-1.51-1.51s-1.51.68-1.51,1.51v9.83s-6.95-6.95-6.95-6.95c-.59-.59-1.55-.59-2.14,0-.59.59-.59,1.55,0,2.14l6.95,6.95h-9.83c-.84,0-1.51.68-1.51,1.51s.68,1.51,1.51,1.51h9.83s-6.95,6.95-6.95,6.95c-.59.59-.59,1.55,0,2.14.3.3.68.44,1.07.44s.78-.15,1.07-.44l6.95-6.95v9.83c0,.84.68,1.51,1.51,1.51s1.51-.68,1.51-1.51v-9.83s6.95,6.95,6.95,6.95c.3.3.68.44,1.07.44s.78-.15,1.07-.44c.59-.59.59-1.55,0-2.14l-6.95-6.95h9.83c.84,0,1.51-.68,1.51-1.51s-.68-1.51-1.51-1.51Z"/>
    <path class="cls-2" d="M191.87,171.12h-9.83s6.95-6.95,6.95-6.95c.59-.59.59-1.55,0-2.14-.59-.59-1.55-.59-2.14,0l-6.95,6.95v-9.83c0-.84-.68-1.51-1.51-1.51s-1.51.68-1.51,1.51v9.83s-6.95-6.95-6.95-6.95c-.59-.59-1.55-.59-2.14,0-.59.59-.59,1.55,0,2.14l6.95,6.95h-9.83c-.84,0-1.51.68-1.51,1.51s.68,1.51,1.51,1.51h9.83s-6.95,6.95-6.95,6.95c-.59.59-.59,1.55,0,2.14.3.3.68.44,1.07.44s.78-.15,1.07-.44l6.95-6.95v9.83c0,.84.68,1.51,1.51,1.51s1.51-.68,1.51-1.51v-9.83s6.95,6.95,6.95,6.95c.3.3.68.44,1.07.44s.78-.15,1.07-.44c.59-.59.59-1.55,0-2.14l-6.95-6.95h9.83c.84,0,1.51-.68,1.51-1.51s-.68-1.51-1.51-1.51Z"/>
    <path class="cls-2" d="M241.69,171.12h-9.83s6.95-6.95,6.95-6.95c.59-.59.59-1.55,0-2.14-.59-.59-1.55-.59-2.14,0l-6.95,6.95v-9.83c0-.84-.68-1.51-1.51-1.51s-1.51.68-1.51,1.51v9.83s-6.95-6.95-6.95-6.95c-.59-.59-1.55-.59-2.14,0-.59.59-.59,1.55,0,2.14l6.95,6.95h-9.83c-.84,0-1.51.68-1.51,1.51s.68,1.51,1.51,1.51h9.83s-6.95,6.95-6.95,6.95c-.59.59-.59,1.55,0,2.14.3.3.68.44,1.07.44s.78-.15,1.07-.44l6.95-6.95v9.83c0,.84.68,1.51,1.51,1.51s1.51-.68,1.51-1.51v-9.83s6.95,6.95,6.95,6.95c.3.3.68.44,1.07.44s.78-.15,1.07-.44c.59-.59.59-1.55,0-2.14l-6.95-6.95h9.83c.84,0,1.51-.68,1.51-1.51s-.68-1.51-1.51-1.51Z"/>
    <path class="cls-2" d="M42.4,171.12h-9.83s6.95-6.95,6.95-6.95c.59-.59.59-1.55,0-2.14-.59-.59-1.55-.59-2.14,0l-6.95,6.95v-9.83c0-.84-.68-1.51-1.51-1.51s-1.51.68-1.51,1.51v9.83s-6.95-6.95-6.95-6.95c-.59-.59-1.55-.59-2.14,0-.59.59-.59,1.55,0,2.14l6.95,6.95h-9.83c-.84,0-1.51.68-1.51,1.51s.68,1.51,1.51,1.51h9.83s-6.95,6.95-6.95,6.95c-.59.59-.59,1.55,0,2.14.3.3.68.44,1.07.44s.78-.15,1.07-.44l6.95-6.95v9.83c0,.84.68,1.51,1.51,1.51s1.51-.68,1.51-1.51v-9.83s6.95,6.95,6.95,6.95c.3.3.68.44,1.07.44s.78-.15,1.07-.44c.59-.59.59-1.55,0-2.14l-6.95-6.95h9.83c.84,0,1.51-.68,1.51-1.51s-.68-1.51-1.51-1.51Z"/>
  </g>
  <path class="cls-3" d="M293.53,95.04c0,23.47-19.03,42.5-42.5,42.5H0c3.29-28.35,20.41-47.66,45.01-49.47,8.38-.62,16.66,2.51,16.8,2.52-.72-1.98-2.31-6.22-2.6-10.94-1.15-18.73,11.48-32.62,30.22-33.85,13.43-.88,22.21,6.92,28.24,12.39.18-31.33,21.4-58.18,52.77-58.18s57,25.52,57,57c0,.92-.02,1.83-.06,2.73,6.76-4.55,14.89-7.19,23.65-7.19,23.47,0,42.5,19.02,42.5,42.5Z"/>
  <g>
    <path class="cls-1" d="M61.81,90.59c7.94,15.44,31.9,15.08,45.63,1.23-18.24-.68-37.2-22.2-24.54-45.03,0,0-.01,0-.02,0-15.05,3.68-24.68,16.4-23.67,32.85.29,4.72,1.88,8.96,2.6,10.94,0,0,0,0,0,0,0,0,0,0,0,0Z"/>
    <path class="cls-1" d="M293.53,95.04c0-15.82-8.65-29.61-21.47-36.93-.02.12-3.65,28.78-23.2,38.35-15.74,7.71-37.76,8.92-54.11-4.29,0,0-3.94,19.13-38.31,31.21-38.48,13.52-38.15,10.73-52.24,14.16h146.83c23.47,0,42.5-19.03,42.5-42.5Z"/>
  </g>
</svg>