<?xml version="1.0" encoding="UTF-8"?>
<svg id="skymsol" xmlns="http://www.w3.org/2000/svg" viewBox="0 0 360.18 215.94">
  <defs>
    <style>
      .cls-1 {
        fill: #488484;
      }

      .cls-2 {
        fill: #629f9e;
      }

      .cls-3 {
        fill: #dabf41;
      }
    </style>
  </defs>
  <g id="halv_sol" data-name="halv sol">
    <circle class="cls-3" cx="249.88" cy="110.3" r="57"/>
    <g>
      <rect class="cls-3" x="244.88" y="0" width="10" height="35" rx="5" ry="5"/>
      <rect class="cls-3" x="337.68" y="92.8" width="10" height="35" rx="5" ry="5" transform="translate(452.97 -232.38) rotate(90)"/>
      <rect class="cls-3" x="310.5" y="27.18" width="10" height="35" rx="5" ry="5" transform="translate(124 -210) rotate(45)"/>
      <rect class="cls-3" x="310.5" y="158.42" width="10" height="35" rx="5" ry="5" transform="translate(662.98 77.22) rotate(135)"/>
      <rect class="cls-3" x="179.26" y="27.18" width="10" height="35" rx="5" ry="5" transform="translate(346.14 -54.02) rotate(135)"/>
    </g>
  </g>
  <g id="skyet_med_sol_og_regn" data-name="skyet med sol og regn">
    <path class="cls-2" d="M293.53,173.44c0,23.47-19.03,42.5-42.5,42.5H0c3.29-28.35,20.41-47.66,45.01-49.47,8.38-.62,16.66,2.51,16.8,2.52-.72-1.98-2.31-6.22-2.6-10.94-1.15-18.73,11.48-32.62,30.22-33.85,13.43-.88,22.21,6.92,28.24,12.39.18-31.33,21.4-58.18,52.77-58.18s57,25.52,57,57c0,.92-.02,1.83-.06,2.73,6.76-4.55,14.89-7.19,23.65-7.19,23.47,0,42.5,19.02,42.5,42.5Z"/>
    <g>
      <path class="cls-1" d="M156.88,189.77c-.16-6.44-10.73-19.48-23.45-23.28-12.71-3.8-25.76,3.47-25.76,3.47,1.49-13.05-6.6-21.14-15.52-28.08-8.92-6.93-25.86-6.66-25.86-6.66,5.36-6.35,13.43-10.39,23.14-11.03,5.93-.39,10.95.91,15.23,2.96,4.41,2.11,8.03,5,11.04,7.65.69.61,1.34,1.2,1.97,1.77,1.67,2.34,2.22,7.13,2.22,7.13,0,0,8.42-4.05,26.88,8.01,18.45,12.05,10.11,38.06,10.11,38.06Z"/>
      <path class="cls-1" d="M251.03,130.94c-8.76,0-16.89,2.64-23.65,7.19.04-.9.06-1.81.06-2.73,0-31.48-25.52-57-57-57-8.76,0-16.73,2.1-23.67,5.8.08.01,15.26,2.48,27.66,10.09,26.09,16.02,30.88,46.4,29.06,81.25,0,0,51.36-40.29,89.78,2.54.17-1.52.26-3.07.26-4.64,0-23.48-19.03-42.5-42.5-42.5Z"/>
    </g>
  </g>
</svg>