<?xml version="1.0" encoding="UTF-8"?>
<svg id="torden" xmlns="http://www.w3.org/2000/svg" viewBox="0 0 293.53 232.92">
  <defs>
    <style>
      .cls-1 {
        fill: #335b5c;
      }

      .cls-2 {
        fill: #488484;
      }

      .cls-3 {
        fill: #f9d75e;
      }

      .cls-4 {
        fill: #629f9e;
      }
    </style>
  </defs>
  <g>
    <path class="cls-1" d="M227.36,179.4h0s.19-21.59.19-21.59l-16.42,14.02h.01c-1.17.94-2.16,2.14-2.83,3.59-2.33,5.01-.17,10.96,4.84,13.29,5.01,2.33,10.96.17,13.29-4.84.68-1.45.96-2.98.93-4.48Z"/>
    <path class="cls-1" d="M169.39,179.4h0s.19-21.59.19-21.59l-16.42,14.02h.01c-1.17.94-2.16,2.14-2.83,3.59-2.33,5.01-.17,10.96,4.84,13.29,5.01,2.33,10.96.17,13.29-4.84.68-1.45.96-2.98.93-4.48Z"/>
    <path class="cls-1" d="M53.47,179.4h0s.19-21.59.19-21.59l-16.42,14.02h.01c-1.17.94-2.16,2.14-2.83,3.59-2.33,5.01-.17,10.96,4.84,13.29,5.01,2.33,10.96.17,13.29-4.84.68-1.45.96-2.98.93-4.48Z"/>
    <path class="cls-1" d="M189.58,222.67h0s.19-21.59.19-21.59l-16.42,14.02h.01c-1.17.94-2.16,2.14-2.83,3.59-2.33,5.01-.17,10.96,4.84,13.29,5.01,2.33,10.96.17,13.29-4.84.68-1.45.96-2.98.93-4.48Z"/>
    <path class="cls-1" d="M131.62,222.67h0s.19-21.59.19-21.59l-16.42,14.02h.01c-1.17.94-2.16,2.14-2.83,3.59-2.33,5.01-.17,10.96,4.84,13.29,5.01,2.33,10.96.17,13.29-4.84.68-1.45.96-2.98.93-4.48Z"/>
    <path class="cls-1" d="M73.65,222.67h0s.19-21.59.19-21.59l-16.42,14.02h.01c-1.17.94-2.16,2.14-2.83,3.59-2.33,5.01-.17,10.96,4.84,13.29,5.01,2.33,10.96.17,13.29-4.84.68-1.45.96-2.98.93-4.48Z"/>
  </g>
  <path class="cls-3" d="M155.63,84.93h-24.98c-.27,0-.52.14-.67.36l-37.98,57.85c-.35.53.03,1.23.67,1.23l21.87,3.53-28.09,55.17c-.78,1.19.79,2.51,1.83,1.53l60.88-68.3c.52-.5.17-1.38-.55-1.38l-21.83-2.49,29.52-46.26c.35-.53-.03-1.23-.67-1.23Z"/>
  <path class="cls-4" d="M293.53,95.04c0,23.47-19.03,42.5-42.5,42.5H0c3.29-28.35,20.41-47.66,45.01-49.47,8.38-.62,16.66,2.51,16.8,2.52-.72-1.98-2.31-6.22-2.6-10.94-1.15-18.73,11.48-32.62,30.22-33.85,13.43-.88,22.21,6.92,28.24,12.39.18-31.33,21.4-58.18,52.77-58.18s57,25.52,57,57c0,.92-.02,1.83-.06,2.73,6.76-4.55,14.89-7.19,23.65-7.19,23.47,0,42.5,19.02,42.5,42.5Z"/>
  <g>
    <path class="cls-2" d="M61.81,90.59c7.94,15.44,31.9,15.08,45.63,1.23-18.24-.68-37.2-22.2-24.54-45.03,0,0-.01,0-.02,0-15.05,3.68-24.68,16.4-23.67,32.85.29,4.72,1.88,8.96,2.6,10.94,0,0,0,0,0,0,0,0,0,0,0,0Z"/>
    <path class="cls-2" d="M293.53,95.04c0-15.82-8.65-29.61-21.47-36.93-.02.12-3.65,28.78-23.2,38.35-15.74,7.71-37.76,8.92-54.11-4.29,0,0-3.94,19.13-38.31,31.21-38.48,13.52-38.15,10.73-52.24,14.16h146.83c23.47,0,42.5-19.03,42.5-42.5Z"/>
  </g>
</svg>