<?xml version="1.0" encoding="UTF-8"?>
<svg id="vind" xmlns="http://www.w3.org/2000/svg" viewBox="0 0 293.53 233.32">
  <defs>
    <style>
      .cls-1 {
        fill: #8abebb;
      }

      .cls-2 {
        fill: #629f9e;
      }
    </style>
  </defs>
  <path id="alm_sky" data-name="alm sky" class="cls-2" d="M293.53,95.04c0,23.47-19.03,42.5-42.5,42.5H0c3.29-28.35,20.41-47.66,45.01-49.47,8.38-.62,16.66,2.51,16.8,2.52-.72-1.98-2.31-6.22-2.6-10.94-1.15-18.73,11.48-32.62,30.22-33.85,13.43-.88,22.21,6.92,28.24,12.39.18-31.33,21.4-58.18,52.77-58.18s57,25.52,57,57c0,.92-.02,1.83-.06,2.73,6.76-4.55,14.89-7.19,23.65-7.19,23.47,0,42.5,19.02,42.5,42.5Z"/>
  <g>
    <path class="cls-1" d="M249.96,172.45H46.98c-2.76,0-5-2.24-5-5s2.24-5,5-5h202.98c2.76,0,5,2.24,5,5s-2.24,5-5,5Z"/>
    <path class="cls-1" d="M208.13,187.22H47.29c-2.76,0-5-2.24-5-5s2.24-5,5-5h160.84c2.76,0,5,2.24,5,5s-2.24,5-5,5Z"/>
    <path class="cls-1" d="M163.66,233.32c-.21,0-.37,0-.46,0-2.76-.07-4.94-2.36-4.88-5.12.07-2.72,2.29-4.88,5-4.88.04,0,.08,0,.12,0,2.54.03,10.03-.66,13.87-4.44,1.74-1.71,2.58-3.92,2.58-6.77s-.84-4.97-2.55-6.65c-3.92-3.83-11.63-4.5-14.31-4.46h-.13s-115.92,0-115.92,0c-2.76,0-5-2.24-5-5s2.24-5,5-5h115.86c1.72-.04,13.92-.05,21.45,7.27,3.67,3.56,5.6,8.35,5.6,13.84s-1.94,10.36-5.62,13.95c-7,6.83-17.97,7.26-20.62,7.26Z"/>
    <path class="cls-1" d="M182.77,158.68c-.18,0-.31,0-.4,0H46.98c-2.76,0-5-2.24-5-5s2.24-5,5-5h135.62c.08,0,10.1.21,16.03-5.56,3.03-2.95,4.5-6.96,4.5-12.27,0-5.6-1.65-9.76-5.05-12.74-8.39-7.34-24.46-5.3-24.62-5.27-2.73.36-5.25-1.55-5.62-4.29-.37-2.73,1.54-5.25,4.27-5.62.84-.12,20.68-2.7,32.52,7.63,5.64,4.92,8.5,11.74,8.5,20.29,0,8.07-2.55,14.63-7.59,19.5-8.16,7.88-20.13,8.33-22.77,8.33Z"/>
  </g>
</svg>