<svg width="282" height="343" viewBox="0 0 282 343" fill="none" xmlns="http://www.w3.org/2000/svg">
<path fill-rule="evenodd" clip-rule="evenodd" d="M209.384 235.768C211.236 235.922 213.109 236 215 236C252.003 236 282 206.003 282 169C282 131.997 252.003 102 215 102C212.533 102 210.097 102.133 207.699 102.393C216.036 91.6478 221 78.1535 221 63.5C221 28.4299 192.57 0 157.5 0C133.432 0 112.492 13.3897 101.722 33.1264C93.8896 15.3835 76.1409 3 55.5 3C27.6096 3 5 25.6096 5 53.5C5 75.461 19.0181 94.1479 38.5942 101.101C15.4814 114.885 0 140.134 0 169C0 212.63 35.3696 248 79 248C86.5469 248 93.8464 246.942 100.759 244.966C95.8091 254.35 93 265.089 93 276.5C93 313.227 122.102 343 158 343C193.898 343 223 313.227 223 276.5C223 261.154 217.919 247.021 209.384 235.768Z" fill="#DBECEA"/>
<rect x="29.5" y="250.026" width="60.1034" height="60.1034" rx="30.0517" fill="#C0A822"/>
<path d="M47.4072 270.805H48.2879V275.62C48.2879 276.117 48.1707 276.561 47.9364 276.952C47.7044 277.34 47.3765 277.646 46.9527 277.871C46.5289 278.094 46.0318 278.205 45.4612 278.205C44.8907 278.205 44.3935 278.094 43.9697 277.871C43.546 277.646 43.2169 277.34 42.9825 276.952C42.7505 276.561 42.6345 276.117 42.6345 275.62V270.805H43.5152V275.549C43.5152 275.904 43.5933 276.22 43.7496 276.497C43.9058 276.772 44.1284 276.988 44.4172 277.147C44.7084 277.303 45.0564 277.381 45.4612 277.381C45.866 277.381 46.2141 277.303 46.5053 277.147C46.7964 276.988 47.019 276.772 47.1729 276.497C47.3291 276.22 47.4072 275.904 47.4072 275.549V270.805ZM50.7711 270.805V278.077H49.933V270.805H50.7711ZM54.5219 278.191C54.0295 278.191 53.5975 278.074 53.2258 277.839C52.8565 277.605 52.5676 277.277 52.3593 276.856C52.1533 276.434 52.0503 275.942 52.0503 275.378C52.0503 274.81 52.1533 274.314 52.3593 273.891C52.5676 273.467 52.8565 273.138 53.2258 272.903C53.5975 272.669 54.0295 272.552 54.5219 272.552C55.0144 272.552 55.4452 272.669 55.8146 272.903C56.1862 273.138 56.4751 273.467 56.681 273.891C56.8894 274.314 56.9935 274.81 56.9935 275.378C56.9935 275.942 56.8894 276.434 56.681 276.856C56.4751 277.277 56.1862 277.605 55.8146 277.839C55.4452 278.074 55.0144 278.191 54.5219 278.191ZM54.5219 277.438C54.896 277.438 55.2038 277.342 55.4452 277.15C55.6867 276.959 55.8655 276.707 55.9815 276.394C56.0975 276.082 56.1555 275.743 56.1555 275.378C56.1555 275.014 56.0975 274.674 55.9815 274.359C55.8655 274.044 55.6867 273.79 55.4452 273.596C55.2038 273.402 54.896 273.305 54.5219 273.305C54.1479 273.305 53.8401 273.402 53.5986 273.596C53.3572 273.79 53.1784 274.044 53.0624 274.359C52.9464 274.674 52.8884 275.014 52.8884 275.378C52.8884 275.743 52.9464 276.082 53.0624 276.394C53.1784 276.707 53.3572 276.959 53.5986 277.15C53.8401 277.342 54.1479 277.438 54.5219 277.438ZM62.5377 272.623L60.5207 278.077H59.6684L57.6514 272.623H58.5605L60.0662 276.969H60.123L61.6287 272.623H62.5377ZM64.482 270.805V278.077H63.6439V270.805H64.482ZM66.017 278.077V272.623H66.855V278.077H66.017ZM66.4431 271.714C66.2798 271.714 66.1389 271.658 66.0205 271.547C65.9045 271.436 65.8465 271.302 65.8465 271.146C65.8465 270.989 65.9045 270.856 66.0205 270.744C66.1389 270.633 66.2798 270.577 66.4431 270.577C66.6065 270.577 66.7461 270.633 66.8621 270.744C66.9805 270.856 67.0397 270.989 67.0397 271.146C67.0397 271.302 66.9805 271.436 66.8621 271.547C66.7461 271.658 66.6065 271.714 66.4431 271.714ZM70.5917 280.236C70.1869 280.236 69.8389 280.184 69.5477 280.08C69.2565 279.978 69.0138 279.843 68.8197 279.675C68.6279 279.51 68.4752 279.332 68.3616 279.143L69.0292 278.674C69.105 278.773 69.2009 278.887 69.3169 279.015C69.4329 279.145 69.5915 279.257 69.7927 279.352C69.9963 279.449 70.2626 279.498 70.5917 279.498C71.0321 279.498 71.3955 279.391 71.6819 279.178C71.9684 278.965 72.1116 278.631 72.1116 278.177V277.069H72.0406C71.979 277.168 71.8914 277.291 71.7778 277.438C71.6665 277.583 71.5055 277.712 71.2948 277.825C71.0865 277.936 70.8048 277.992 70.4497 277.992C70.0093 277.992 69.614 277.888 69.2636 277.68C68.9156 277.471 68.6398 277.168 68.4362 276.771C68.2349 276.373 68.1343 275.89 68.1343 275.322C68.1343 274.763 68.2326 274.276 68.4291 273.862C68.6256 273.445 68.899 273.123 69.2494 272.896C69.5998 272.667 70.0046 272.552 70.4639 272.552C70.819 272.552 71.1007 272.611 71.3091 272.729C71.5198 272.845 71.6807 272.978 71.792 273.127C71.9056 273.274 71.9932 273.395 72.0548 273.489H72.14V272.623H72.9497V278.234C72.9497 278.702 72.8431 279.083 72.6301 279.377C72.4194 279.673 72.1353 279.89 71.7778 280.027C71.4227 280.167 71.0273 280.236 70.5917 280.236ZM70.5633 277.239C70.8995 277.239 71.1836 277.162 71.4156 277.008C71.6476 276.855 71.824 276.633 71.9447 276.344C72.0654 276.056 72.1258 275.71 72.1258 275.307C72.1258 274.914 72.0666 274.568 71.9483 274.267C71.8299 273.966 71.6547 273.731 71.4227 273.56C71.1907 273.39 70.9042 273.305 70.5633 273.305C70.2082 273.305 69.9123 273.395 69.6755 273.574C69.4412 273.754 69.2648 273.996 69.1464 274.299C69.0304 274.602 68.9724 274.938 68.9724 275.307C68.9724 275.686 69.0316 276.021 69.15 276.312C69.2707 276.601 69.4483 276.829 69.6826 276.994C69.9194 277.158 70.2129 277.239 70.5633 277.239ZM76.8559 272.623V273.333H74.0292V272.623H76.8559ZM74.8531 271.316H75.6912V276.515C75.6912 276.752 75.7255 276.929 75.7941 277.048C75.8652 277.164 75.9551 277.242 76.064 277.282C76.1753 277.32 76.2925 277.339 76.4156 277.339C76.5079 277.339 76.5837 277.334 76.6429 277.324C76.702 277.313 76.7494 277.303 76.7849 277.296L76.9554 278.049C76.8985 278.07 76.8192 278.092 76.7174 278.113C76.6156 278.137 76.4866 278.148 76.3304 278.148C76.0936 278.148 75.8616 278.097 75.6343 277.996C75.4094 277.894 75.2224 277.739 75.0733 277.53C74.9265 277.322 74.8531 277.059 74.8531 276.742V271.316Z" fill="#FCF7E9"/>
<path d="M57.4166 282.805V290.077H55.8789V284.264H55.8363L54.1708 285.308V283.945L55.9712 282.805H57.4166ZM61.9966 290.237C61.3858 290.235 60.8603 290.084 60.4199 289.786C59.982 289.488 59.6446 289.056 59.4079 288.49C59.1735 287.924 59.0575 287.244 59.0598 286.448C59.0598 285.655 59.177 284.979 59.4114 284.42C59.6482 283.862 59.9855 283.437 60.4235 283.146C60.8638 282.852 61.3882 282.705 61.9966 282.705C62.6051 282.705 63.1283 282.852 63.5662 283.146C64.0066 283.439 64.3451 283.865 64.5819 284.424C64.8186 284.98 64.9358 285.655 64.9334 286.448C64.9334 287.246 64.8151 287.928 64.5783 288.494C64.3439 289.059 64.0078 289.491 63.5698 289.79C63.1318 290.088 62.6074 290.237 61.9966 290.237ZM61.9966 288.962C62.4133 288.962 62.7459 288.753 62.9945 288.334C63.2431 287.915 63.3662 287.286 63.3638 286.448C63.3638 285.896 63.307 285.437 63.1934 285.07C63.0821 284.703 62.9235 284.427 62.7175 284.243C62.5139 284.058 62.2736 283.966 61.9966 283.966C61.5823 283.966 61.2509 284.173 61.0023 284.587C60.7537 285.002 60.6283 285.622 60.6259 286.448C60.6259 287.007 60.6815 287.473 60.7928 287.847C60.9064 288.219 61.0662 288.498 61.2722 288.685C61.4782 288.87 61.7197 288.962 61.9966 288.962Z" fill="#FCF7E9"/>
<rect x="6.36426" y="96.9663" width="144.748" height="144.748" rx="72.374" fill="#488484"/>
<path d="M66.2694 161.84V154.568H68.7268C69.295 154.568 69.7613 154.665 70.1259 154.859C70.4905 155.051 70.7604 155.315 70.9356 155.651C71.1108 155.987 71.1984 156.369 71.1984 156.798C71.1984 157.226 71.1108 157.606 70.9356 157.938C70.7604 158.269 70.4917 158.53 70.1295 158.719C69.7673 158.906 69.3044 158.999 68.741 158.999H66.7523V158.204H68.7126C69.1008 158.204 69.4133 158.147 69.6501 158.034C69.8892 157.92 70.062 157.759 70.1685 157.551C70.2774 157.34 70.3319 157.089 70.3319 156.798C70.3319 156.507 70.2774 156.252 70.1685 156.034C70.0596 155.816 69.8856 155.648 69.6465 155.53C69.4074 155.409 69.0914 155.349 68.6984 155.349H67.1501V161.84H66.2694ZM69.6927 158.573L71.4825 161.84H70.4597L68.6984 158.573H69.6927ZM74.1573 161.968C73.8117 161.968 73.498 161.903 73.2163 161.773C72.9346 161.64 72.7108 161.45 72.5451 161.201C72.3794 160.95 72.2966 160.647 72.2966 160.292C72.2966 159.98 72.3581 159.726 72.4812 159.532C72.6043 159.336 72.7689 159.182 72.9748 159.071C73.1808 158.959 73.4081 158.876 73.6566 158.822C73.9076 158.765 74.1597 158.72 74.413 158.687C74.7445 158.644 75.0132 158.612 75.2191 158.591C75.4275 158.567 75.579 158.528 75.6737 158.474C75.7707 158.419 75.8193 158.325 75.8193 158.19V158.161C75.8193 157.811 75.7234 157.539 75.5316 157.345C75.3422 157.151 75.0546 157.053 74.6687 157.053C74.2686 157.053 73.9549 157.141 73.7277 157.316C73.5004 157.491 73.3406 157.678 73.2483 157.877L72.4528 157.593C72.5948 157.262 72.7842 157.004 73.021 156.819C73.2601 156.632 73.5205 156.502 73.8022 156.428C74.0863 156.353 74.3657 156.315 74.6403 156.315C74.8155 156.315 75.0167 156.336 75.244 156.379C75.4736 156.419 75.695 156.503 75.9081 156.631C76.1235 156.759 76.3022 156.952 76.4443 157.21C76.5863 157.468 76.6573 157.813 76.6573 158.247V161.84H75.8193V161.102H75.7767C75.7198 161.22 75.6251 161.347 75.4926 161.482C75.36 161.617 75.1836 161.731 74.9635 161.826C74.7433 161.921 74.4746 161.968 74.1573 161.968ZM74.2852 161.215C74.6166 161.215 74.896 161.15 75.1233 161.02C75.3529 160.89 75.5257 160.722 75.6417 160.516C75.7601 160.31 75.8193 160.093 75.8193 159.866V159.099C75.7838 159.142 75.7056 159.181 75.5849 159.216C75.4665 159.249 75.3292 159.279 75.173 159.305C75.0191 159.329 74.8688 159.35 74.722 159.369C74.5776 159.385 74.4604 159.4 74.3704 159.411C74.1526 159.44 73.949 159.486 73.7596 159.55C73.5726 159.611 73.4211 159.705 73.3051 159.83C73.1914 159.954 73.1346 160.122 73.1346 160.335C73.1346 160.626 73.2423 160.846 73.4578 160.995C73.6756 161.142 73.9514 161.215 74.2852 161.215ZM78.9682 159.852L78.954 158.815H79.1245L81.5109 156.386H82.5478L80.0052 158.957H79.9342L78.9682 159.852ZM78.187 161.84V154.568H79.0251V161.84H78.187ZM81.6529 161.84L79.5222 159.142L80.1188 158.559L82.7182 161.84H81.6529ZM85.6888 161.954C85.1632 161.954 84.7098 161.838 84.3287 161.606C83.9499 161.372 83.6575 161.045 83.4516 160.626C83.248 160.205 83.1462 159.714 83.1462 159.156C83.1462 158.597 83.248 158.105 83.4516 157.678C83.6575 157.25 83.944 156.916 84.3109 156.677C84.6803 156.436 85.1111 156.315 85.6035 156.315C85.8876 156.315 86.1682 156.362 86.4452 156.457C86.7222 156.552 86.9743 156.705 87.2016 156.919C87.4288 157.129 87.6099 157.409 87.7449 157.757C87.8798 158.105 87.9473 158.533 87.9473 159.042V159.397H83.7428V158.673H87.095C87.095 158.365 87.0335 158.09 86.9104 157.849C86.7896 157.607 86.6168 157.417 86.3919 157.277C86.1694 157.138 85.9066 157.068 85.6035 157.068C85.2697 157.068 84.9809 157.151 84.7371 157.316C84.4956 157.48 84.3097 157.693 84.1795 157.955C84.0493 158.218 83.9842 158.5 83.9842 158.801V159.284C83.9842 159.696 84.0553 160.045 84.1973 160.331C84.3417 160.615 84.5418 160.832 84.7974 160.981C85.0531 161.128 85.3502 161.201 85.6888 161.201C85.9089 161.201 86.1078 161.17 86.2854 161.109C86.4653 161.045 86.6204 160.95 86.7506 160.825C86.8808 160.697 86.9814 160.538 87.0524 160.349L87.8621 160.576C87.7768 160.851 87.6336 161.092 87.4324 161.301C87.2312 161.507 86.9826 161.668 86.6866 161.784C86.3907 161.897 86.0581 161.954 85.6888 161.954ZM91.5943 156.386V157.096H88.7676V156.386H91.5943ZM89.5915 155.079H90.4295V160.278C90.4295 160.515 90.4639 160.692 90.5325 160.811C90.6035 160.927 90.6935 161.005 90.8024 161.045C90.9137 161.083 91.0309 161.102 91.154 161.102C91.2463 161.102 91.3221 161.097 91.3812 161.088C91.4404 161.076 91.4878 161.066 91.5233 161.059L91.6937 161.812C91.6369 161.833 91.5576 161.855 91.4558 161.876C91.354 161.9 91.225 161.911 91.0687 161.911C90.832 161.911 90.6 161.861 90.3727 161.759C90.1478 161.657 89.9608 161.502 89.8116 161.294C89.6649 161.085 89.5915 160.822 89.5915 160.505V155.079ZM51.6669 169.386C51.6669 168.704 51.7531 168.06 51.9255 167.454C52.0978 166.848 52.345 166.28 52.6669 165.749H53.1272C52.9889 165.973 52.862 166.226 52.7465 166.508C52.6328 166.79 52.5344 167.091 52.451 167.411C52.3677 167.731 52.3033 168.059 52.2578 168.394C52.2124 168.728 52.1897 169.058 52.1897 169.386C52.1897 169.823 52.2294 170.265 52.309 170.71C52.3885 171.155 52.4984 171.577 52.6385 171.977C52.7806 172.376 52.9434 172.725 53.1272 173.022H52.6669C52.345 172.49 52.0978 171.921 51.9255 171.315C51.7531 170.709 51.6669 170.066 51.6669 169.386ZM55.4489 171.94C55.1856 171.94 54.9451 171.889 54.7273 171.786C54.5095 171.682 54.3362 171.533 54.2074 171.338C54.0786 171.141 54.0142 170.902 54.0142 170.622C54.0142 170.406 54.055 170.224 54.1364 170.076C54.2178 169.928 54.3334 169.807 54.483 169.713C54.6326 169.618 54.8097 169.543 55.0142 169.488C55.2188 169.433 55.4442 169.391 55.6904 169.36C55.9347 169.33 56.1411 169.303 56.3097 169.281C56.4801 169.258 56.6099 169.222 56.6989 169.173C56.7879 169.124 56.8324 169.044 56.8324 168.934V168.832C56.8324 168.535 56.7434 168.301 56.5654 168.13C56.3892 167.958 56.1354 167.872 55.804 167.872C55.4896 167.872 55.233 167.941 55.0341 168.079C54.8372 168.217 54.6989 168.38 54.6193 168.568L54.1392 168.394C54.2377 168.156 54.3741 167.965 54.5483 167.823C54.7226 167.679 54.9176 167.576 55.1336 167.514C55.3495 167.449 55.5682 167.417 55.7898 167.417C55.9565 167.417 56.1298 167.439 56.3097 167.482C56.4915 167.526 56.6601 167.602 56.8154 167.71C56.9707 167.816 57.0966 167.964 57.1932 168.156C57.2898 168.345 57.3381 168.586 57.3381 168.877V171.84H56.8324V171.15H56.8012C56.7406 171.279 56.6506 171.404 56.5313 171.525C56.412 171.646 56.2623 171.746 56.0824 171.823C55.9025 171.901 55.6913 171.94 55.4489 171.94ZM55.5171 171.477C55.786 171.477 56.019 171.417 56.2159 171.298C56.4129 171.178 56.5644 171.02 56.6705 170.823C56.7784 170.624 56.8324 170.406 56.8324 170.167V169.536C56.7945 169.572 56.7311 169.605 56.6421 169.633C56.555 169.661 56.4536 169.687 56.3381 169.71C56.2245 169.731 56.1108 169.749 55.9972 169.764C55.8836 169.779 55.7813 169.792 55.6904 169.803C55.4442 169.834 55.2339 169.881 55.0597 169.946C54.8854 170.01 54.7519 170.099 54.6591 170.213C54.5663 170.324 54.5199 170.468 54.5199 170.644C54.5199 170.91 54.6146 171.115 54.804 171.261C54.9934 171.405 55.2311 171.477 55.5171 171.477ZM59.189 166.022V171.84H58.6833V166.022H59.189ZM61.0327 166.022V171.84H60.527V166.022H61.0327ZM64.135 171.931C63.7278 171.931 63.3755 171.837 63.0782 171.647C62.7808 171.456 62.5507 171.192 62.3878 170.855C62.2268 170.516 62.1463 170.125 62.1463 169.684C62.1463 169.245 62.2268 168.855 62.3878 168.514C62.5507 168.171 62.7751 167.903 63.0611 167.71C63.349 167.515 63.6814 167.417 64.0583 167.417C64.295 167.417 64.5232 167.461 64.7429 167.548C64.9626 167.633 65.1596 167.765 65.3338 167.943C65.51 168.119 65.6492 168.341 65.7515 168.61C65.8537 168.877 65.9049 169.194 65.9049 169.559V169.809H62.4958V169.363H65.3878C65.3878 169.083 65.331 168.831 65.2174 168.607C65.1056 168.382 64.9494 168.204 64.7486 168.073C64.5497 167.943 64.3196 167.877 64.0583 167.877C63.7818 167.877 63.5384 167.951 63.3282 168.099C63.1179 168.247 62.9532 168.442 62.8338 168.684C62.7164 168.927 62.6568 169.192 62.6549 169.48V169.747C62.6549 170.093 62.7145 170.396 62.8338 170.656C62.955 170.913 63.1265 171.113 63.348 171.255C63.5696 171.397 63.8319 171.468 64.135 171.468C64.3414 171.468 64.5223 171.436 64.6776 171.372C64.8348 171.307 64.9664 171.221 65.0725 171.113C65.1804 171.003 65.2619 170.883 65.3168 170.752L65.7969 170.909C65.7306 171.092 65.6217 171.262 65.4702 171.417C65.3206 171.572 65.1331 171.697 64.9077 171.792C64.6842 171.885 64.4266 171.931 64.135 171.931ZM72.201 168.434L71.738 168.565C71.6925 168.434 71.6281 168.316 71.5448 168.21C71.4614 168.104 71.3525 168.019 71.2181 167.957C71.0855 167.894 70.9207 167.863 70.7238 167.863C70.4283 167.863 70.1859 167.933 69.9965 168.073C69.8071 168.213 69.7124 168.394 69.7124 168.616C69.7124 168.803 69.7768 168.956 69.9056 169.073C70.0363 169.189 70.237 169.281 70.5078 169.349L71.1669 169.511C71.5325 169.6 71.8061 169.741 71.988 169.934C72.1717 170.127 72.2635 170.37 72.2635 170.661C72.2635 170.908 72.1953 171.126 72.059 171.318C71.9226 171.509 71.7323 171.66 71.488 171.769C71.2455 171.877 70.9643 171.931 70.6442 171.931C70.2181 171.931 69.8667 171.836 69.5902 171.644C69.3137 171.451 69.1366 171.173 69.059 170.809L69.5448 170.69C69.6073 170.949 69.7294 171.145 69.9113 171.278C70.095 171.41 70.3364 171.477 70.6357 171.477C70.9709 171.477 71.2389 171.402 71.4397 171.252C71.6404 171.101 71.7408 170.911 71.7408 170.684C71.7408 170.508 71.6821 170.36 71.5647 170.241C71.4472 170.12 71.2692 170.031 71.0306 169.974L70.3175 169.803C69.9387 169.713 69.6584 169.569 69.4766 169.372C69.2948 169.175 69.2039 168.93 69.2039 168.639C69.2039 168.398 69.2692 168.187 69.3999 168.005C69.5306 167.821 69.7105 167.678 69.9397 167.573C70.1688 167.469 70.4302 167.417 70.7238 167.417C71.1234 167.417 71.4425 167.508 71.6811 167.69C71.9217 167.87 72.095 168.118 72.201 168.434ZM75.0895 167.477V167.917H73.0071V167.477H75.0895ZM73.6577 166.431H74.1662V170.701C74.1662 170.883 74.1975 171.026 74.26 171.13C74.3225 171.232 74.4039 171.305 74.5043 171.349C74.6047 171.391 74.7117 171.411 74.8253 171.411C74.8916 171.411 74.9484 171.408 74.9958 171.4C75.0431 171.391 75.0848 171.381 75.1208 171.372L75.2287 171.829C75.1795 171.848 75.1189 171.865 75.0469 171.88C74.9749 171.897 74.8859 171.906 74.7799 171.906C74.5943 171.906 74.4153 171.865 74.2429 171.784C74.0725 171.702 73.9323 171.581 73.8225 171.42C73.7126 171.259 73.6577 171.059 73.6577 170.821V166.431ZM76.5377 172.036L76.1968 171.806L79.2365 167.303L79.5774 167.534L76.5377 172.036ZM77.8871 171.928C77.5102 171.928 77.1769 171.833 76.8871 171.642C76.5992 171.45 76.3738 171.185 76.211 170.846C76.0481 170.507 75.9666 170.116 75.9666 169.673C75.9666 169.228 76.0481 168.836 76.211 168.497C76.3738 168.156 76.5992 167.89 76.8871 167.698C77.1769 167.507 77.5102 167.411 77.8871 167.411C78.264 167.411 78.5964 167.507 78.8843 167.698C79.1721 167.89 79.3975 168.156 79.5604 168.497C79.7252 168.836 79.8076 169.228 79.8076 169.673C79.8076 170.116 79.7261 170.507 79.5632 170.846C79.4004 171.185 79.174 171.45 78.8843 171.642C78.5964 171.833 78.264 171.928 77.8871 171.928ZM77.8871 171.465C78.1901 171.465 78.4468 171.384 78.657 171.221C78.8672 171.058 79.0263 170.841 79.1343 170.571C79.2441 170.298 79.299 169.999 79.299 169.673C79.299 169.347 79.2441 169.049 79.1343 168.778C79.0263 168.505 78.8672 168.286 78.657 168.122C78.4468 167.957 78.1901 167.874 77.8871 167.874C77.586 167.874 77.3293 167.957 77.1172 168.122C76.907 168.286 76.747 168.505 76.6371 168.778C76.5291 169.049 76.4752 169.347 76.4752 169.673C76.4752 169.999 76.5291 170.298 76.6371 170.571C76.747 170.841 76.907 171.058 77.1172 171.221C77.3274 171.384 77.5841 171.465 77.8871 171.465ZM80.9176 171.84V167.477H81.4091V168.147H81.4461C81.5332 167.928 81.6847 167.75 81.9006 167.616C82.1184 167.48 82.3646 167.411 82.6392 167.411C82.6809 167.411 82.7273 167.412 82.7784 167.414C82.8296 167.416 82.8722 167.418 82.9063 167.42V167.934C82.8836 167.93 82.8438 167.925 82.787 167.917C82.7301 167.91 82.6686 167.906 82.6023 167.906C82.375 167.906 82.1724 167.954 81.9943 168.051C81.8182 168.145 81.679 168.277 81.5767 168.446C81.4745 168.614 81.4233 168.806 81.4233 169.022V171.84H80.9176ZM83.7692 171.84V167.477H84.2607V168.147H84.2976C84.3847 167.928 84.5363 167.75 84.7522 167.616C84.97 167.48 85.2162 167.411 85.4908 167.411C85.5325 167.411 85.5789 167.412 85.63 167.414C85.6811 167.416 85.7238 167.418 85.7578 167.42V167.934C85.7351 167.93 85.6953 167.925 85.6385 167.917C85.5817 167.91 85.5202 167.906 85.4539 167.906C85.2266 167.906 85.0239 167.954 84.8459 168.051C84.6698 168.145 84.5306 168.277 84.4283 168.446C84.326 168.614 84.2749 168.806 84.2749 169.022V171.84H83.7692ZM88.2522 171.931C87.845 171.931 87.4927 171.837 87.1953 171.647C86.898 171.456 86.6679 171.192 86.505 170.855C86.344 170.516 86.2635 170.125 86.2635 169.684C86.2635 169.245 86.344 168.855 86.505 168.514C86.6679 168.171 86.8923 167.903 87.1783 167.71C87.4662 167.515 87.7986 167.417 88.1755 167.417C88.4122 167.417 88.6404 167.461 88.8601 167.548C89.0798 167.633 89.2768 167.765 89.451 167.943C89.6272 168.119 89.7664 168.341 89.8686 168.61C89.9709 168.877 90.022 169.194 90.022 169.559V169.809H86.613V169.363H89.505C89.505 169.083 89.4482 168.831 89.3345 168.607C89.2228 168.382 89.0666 168.204 88.8658 168.073C88.6669 167.943 88.4368 167.877 88.1755 167.877C87.8989 167.877 87.6556 167.951 87.4453 168.099C87.2351 168.247 87.0703 168.442 86.951 168.684C86.8336 168.927 86.7739 169.192 86.772 169.48V169.747C86.772 170.093 86.8317 170.396 86.951 170.656C87.0722 170.913 87.2436 171.113 87.4652 171.255C87.6868 171.397 87.9491 171.468 88.2522 171.468C88.4586 171.468 88.6395 171.436 88.7948 171.372C88.952 171.307 89.0836 171.221 89.1897 171.113C89.2976 171.003 89.3791 170.883 89.434 170.752L89.9141 170.909C89.8478 171.092 89.7389 171.262 89.5874 171.417C89.4378 171.572 89.2503 171.697 89.0249 171.792C88.8014 171.885 88.5438 171.931 88.2522 171.931ZM91.6421 166.022V171.84H91.1364V166.022H91.6421ZM95.912 168.434L95.4489 168.565C95.4034 168.434 95.339 168.316 95.2557 168.21C95.1724 168.104 95.0635 168.019 94.929 167.957C94.7964 167.894 94.6317 167.863 94.4347 167.863C94.1392 167.863 93.8968 167.933 93.7074 168.073C93.518 168.213 93.4233 168.394 93.4233 168.616C93.4233 168.803 93.4877 168.956 93.6165 169.073C93.7472 169.189 93.9479 169.281 94.2188 169.349L94.8779 169.511C95.2434 169.6 95.5171 169.741 95.6989 169.934C95.8826 170.127 95.9745 170.37 95.9745 170.661C95.9745 170.908 95.9063 171.126 95.7699 171.318C95.6336 171.509 95.4432 171.66 95.1989 171.769C94.9565 171.877 94.6752 171.931 94.3551 171.931C93.929 171.931 93.5777 171.836 93.3012 171.644C93.0247 171.451 92.8476 171.173 92.7699 170.809L93.2557 170.69C93.3182 170.949 93.4404 171.145 93.6222 171.278C93.8059 171.41 94.0474 171.477 94.3466 171.477C94.6818 171.477 94.9498 171.402 95.1506 171.252C95.3514 171.101 95.4517 170.911 95.4517 170.684C95.4517 170.508 95.393 170.36 95.2756 170.241C95.1582 170.12 94.9801 170.031 94.7415 169.974L94.0284 169.803C93.6497 169.713 93.3693 169.569 93.1875 169.372C93.0057 169.175 92.9148 168.93 92.9148 168.639C92.9148 168.398 92.9801 168.187 93.1108 168.005C93.2415 167.821 93.4214 167.678 93.6506 167.573C93.8798 167.469 94.1411 167.417 94.4347 167.417C94.8343 167.417 95.1534 167.508 95.3921 167.69C95.6326 167.87 95.8059 168.118 95.912 168.434ZM98.8459 171.931C98.4387 171.931 98.0864 171.837 97.7891 171.647C97.4917 171.456 97.2616 171.192 97.0988 170.855C96.9378 170.516 96.8573 170.125 96.8573 169.684C96.8573 169.245 96.9378 168.855 97.0988 168.514C97.2616 168.171 97.4861 167.903 97.772 167.71C98.0599 167.515 98.3923 167.417 98.7692 167.417C99.0059 167.417 99.2342 167.461 99.4539 167.548C99.6736 167.633 99.8705 167.765 100.045 167.943C100.221 168.119 100.36 168.341 100.462 168.61C100.565 168.877 100.616 169.194 100.616 169.559V169.809H97.2067V169.363H100.099C100.099 169.083 100.042 168.831 99.9283 168.607C99.8166 168.382 99.6603 168.204 99.4595 168.073C99.2607 167.943 99.0306 167.877 98.7692 167.877C98.4927 167.877 98.2493 167.951 98.0391 168.099C97.8289 168.247 97.6641 168.442 97.5448 168.684C97.4274 168.927 97.3677 169.192 97.3658 169.48V169.747C97.3658 170.093 97.4255 170.396 97.5448 170.656C97.666 170.913 97.8374 171.113 98.059 171.255C98.2806 171.397 98.5429 171.468 98.8459 171.468C99.0524 171.468 99.2332 171.436 99.3885 171.372C99.5457 171.307 99.6774 171.221 99.7834 171.113C99.8914 171.003 99.9728 170.883 100.028 170.752L100.508 170.909C100.442 171.092 100.333 171.262 100.181 171.417C100.032 171.572 99.844 171.697 99.6186 171.792C99.3952 171.885 99.1376 171.931 98.8459 171.931ZM101.73 171.84V167.477H102.222V168.147H102.259C102.346 167.928 102.497 167.75 102.713 167.616C102.931 167.48 103.177 167.411 103.452 167.411C103.493 167.411 103.54 167.412 103.591 167.414C103.642 167.416 103.685 167.418 103.719 167.42V167.934C103.696 167.93 103.656 167.925 103.599 167.917C103.543 167.91 103.481 167.906 103.415 167.906C103.188 167.906 102.985 167.954 102.807 168.051C102.631 168.145 102.492 168.277 102.389 168.446C102.287 168.614 102.236 168.806 102.236 169.022V171.84H101.73ZM105.809 169.386C105.809 170.068 105.723 170.712 105.55 171.318C105.378 171.924 105.131 172.492 104.809 173.022H104.349C104.487 172.799 104.613 172.546 104.727 172.264C104.842 171.981 104.942 171.68 105.025 171.36C105.108 171.04 105.173 170.713 105.218 170.377C105.264 170.042 105.286 169.712 105.286 169.386C105.286 168.948 105.246 168.507 105.167 168.062C105.087 167.617 104.977 167.195 104.835 166.795C104.694 166.395 104.532 166.047 104.349 165.749H104.809C105.131 166.282 105.378 166.851 105.55 167.457C105.723 168.063 105.809 168.706 105.809 169.386Z" fill="#F4F9F9"/>
<path d="M75.4557 183.94C74.9538 183.94 74.5064 183.847 74.1134 183.663C73.7228 183.478 73.4126 183.224 73.183 182.899C72.9534 182.575 72.8338 182.203 72.8243 181.784H74.3158C74.3324 182.066 74.4508 182.294 74.6709 182.47C74.8911 182.645 75.1527 182.732 75.4557 182.732C75.6972 182.732 75.9103 182.679 76.0949 182.573C76.282 182.464 76.4276 182.313 76.5317 182.122C76.6383 181.928 76.6915 181.705 76.6915 181.454C76.6915 181.198 76.6371 180.973 76.5282 180.779C76.4216 180.585 76.2737 180.434 76.0843 180.325C75.8949 180.216 75.6783 180.16 75.4344 180.158C75.2214 180.158 75.0142 180.202 74.813 180.289C74.6141 180.377 74.459 180.496 74.3478 180.648L72.9806 180.403L73.325 176.568H77.7711V177.825H74.5928L74.4046 179.647H74.4472C74.575 179.467 74.768 179.317 75.026 179.199C75.2841 179.081 75.5729 179.022 75.8925 179.022C76.3305 179.022 76.7211 179.124 77.0644 179.33C77.4077 179.536 77.6787 179.819 77.8776 180.179C78.0765 180.537 78.1747 180.949 78.1723 181.415C78.1747 181.905 78.0611 182.341 77.8314 182.722C77.6042 183.101 77.2857 183.399 76.8762 183.617C76.469 183.832 75.9955 183.94 75.4557 183.94ZM81.9579 183.94C81.411 183.94 80.9245 183.851 80.4983 183.673C80.0746 183.494 79.742 183.249 79.5005 182.938C79.259 182.628 79.1383 182.277 79.1383 181.884C79.1383 181.581 79.2069 181.303 79.3442 181.049C79.4839 180.794 79.6733 180.582 79.9124 180.414C80.1515 180.243 80.419 180.134 80.715 180.087V180.037C80.3267 179.959 80.0118 179.771 79.7704 179.472C79.5289 179.172 79.4081 178.823 79.4081 178.425C79.4081 178.048 79.5182 177.713 79.7384 177.42C79.9586 177.124 80.2604 176.892 80.6439 176.724C81.0298 176.553 81.4678 176.468 81.9579 176.468C82.4479 176.468 82.8847 176.553 83.2682 176.724C83.6541 176.894 83.9572 177.128 84.1773 177.423C84.3975 177.717 84.5088 178.051 84.5111 178.425C84.5088 178.825 84.3857 179.174 84.1418 179.472C83.898 179.771 83.5855 179.959 83.2043 180.037V180.087C83.4955 180.134 83.7595 180.243 83.9962 180.414C84.2353 180.582 84.4247 180.794 84.5644 181.049C84.7064 181.303 84.7786 181.581 84.781 181.884C84.7786 182.277 84.6567 182.628 84.4152 182.938C84.1738 183.249 83.84 183.494 83.4138 183.673C82.9901 183.851 82.5047 183.94 81.9579 183.94ZM81.9579 182.811C82.2017 182.811 82.4148 182.767 82.5971 182.679C82.7794 182.589 82.9214 182.466 83.0232 182.31C83.1274 182.151 83.1795 181.969 83.1795 181.763C83.1795 181.552 83.1262 181.366 83.0197 181.205C82.9131 181.042 82.7687 180.914 82.5864 180.822C82.4041 180.727 82.1946 180.68 81.9579 180.68C81.7235 180.68 81.514 180.727 81.3293 180.822C81.1447 180.914 80.9991 181.042 80.8925 181.205C80.7884 181.366 80.7363 181.552 80.7363 181.763C80.7363 181.969 80.7872 182.151 80.889 182.31C80.9908 182.466 81.134 182.589 81.3187 182.679C81.5033 182.767 81.7164 182.811 81.9579 182.811ZM81.9579 179.561C82.1615 179.561 82.3426 179.52 82.5012 179.437C82.6598 179.354 82.7841 179.239 82.8741 179.093C82.964 178.946 83.009 178.776 83.009 178.585C83.009 178.395 82.964 178.23 82.8741 178.088C82.7841 177.943 82.661 177.831 82.5047 177.75C82.3485 177.667 82.1662 177.626 81.9579 177.626C81.7519 177.626 81.5696 177.667 81.411 177.75C81.2524 177.831 81.1281 177.943 81.0381 178.088C80.9505 178.23 80.9067 178.395 80.9067 178.585C80.9067 178.776 80.9517 178.946 81.0417 179.093C81.1316 179.239 81.2559 179.354 81.4145 179.437C81.5732 179.52 81.7543 179.561 81.9579 179.561Z" fill="#F4F9F9"/>
<rect x="152.936" y="108.49" width="121.7" height="121.7" rx="60.85" fill="#629F9E"/>
<path d="M199.037 167.34V160.068H201.579C202.086 160.068 202.504 160.155 202.833 160.33C203.162 160.503 203.407 160.736 203.568 161.03C203.729 161.321 203.809 161.644 203.809 161.999C203.809 162.312 203.754 162.57 203.642 162.774C203.534 162.977 203.389 163.138 203.209 163.257C203.032 163.375 202.839 163.463 202.63 163.519V163.59C202.853 163.605 203.077 163.683 203.302 163.825C203.526 163.967 203.715 164.17 203.866 164.436C204.018 164.701 204.093 165.025 204.093 165.409C204.093 165.773 204.011 166.101 203.845 166.392C203.679 166.683 203.418 166.914 203.06 167.085C202.703 167.255 202.237 167.34 201.664 167.34H199.037ZM199.917 166.559H201.664C202.24 166.559 202.648 166.448 202.89 166.225C203.133 166 203.255 165.728 203.255 165.409C203.255 165.162 203.193 164.935 203.067 164.727C202.942 164.516 202.763 164.348 202.531 164.222C202.299 164.095 202.024 164.031 201.707 164.031H199.917V166.559ZM199.917 163.264H201.551C201.816 163.264 202.055 163.212 202.268 163.107C202.484 163.003 202.654 162.856 202.78 162.667C202.907 162.478 202.971 162.255 202.971 161.999C202.971 161.68 202.86 161.409 202.637 161.186C202.415 160.961 202.062 160.849 201.579 160.849H199.917V163.264ZM207.032 167.468C206.686 167.468 206.373 167.403 206.091 167.273C205.809 167.14 205.586 166.95 205.42 166.701C205.254 166.45 205.171 166.147 205.171 165.792C205.171 165.48 205.233 165.226 205.356 165.032C205.479 164.836 205.644 164.682 205.849 164.571C206.055 164.459 206.283 164.376 206.531 164.322C206.782 164.265 207.034 164.22 207.288 164.187C207.619 164.144 207.888 164.112 208.094 164.091C208.302 164.067 208.454 164.028 208.548 163.974C208.645 163.919 208.694 163.825 208.694 163.69V163.661C208.694 163.311 208.598 163.039 208.406 162.845C208.217 162.651 207.929 162.553 207.543 162.553C207.143 162.553 206.83 162.641 206.602 162.816C206.375 162.991 206.215 163.178 206.123 163.377L205.327 163.093C205.47 162.762 205.659 162.504 205.896 162.319C206.135 162.132 206.395 162.002 206.677 161.928C206.961 161.853 207.24 161.815 207.515 161.815C207.69 161.815 207.891 161.836 208.119 161.879C208.348 161.919 208.57 162.003 208.783 162.131C208.998 162.259 209.177 162.452 209.319 162.71C209.461 162.968 209.532 163.313 209.532 163.747V167.34H208.694V166.602H208.651C208.595 166.72 208.5 166.847 208.367 166.982C208.235 167.117 208.058 167.231 207.838 167.326C207.618 167.421 207.349 167.468 207.032 167.468ZM207.16 166.715C207.491 166.715 207.771 166.65 207.998 166.52C208.228 166.39 208.4 166.222 208.516 166.016C208.635 165.81 208.694 165.593 208.694 165.366V164.599C208.658 164.642 208.58 164.681 208.46 164.716C208.341 164.749 208.204 164.779 208.048 164.805C207.894 164.829 207.743 164.85 207.597 164.869C207.452 164.885 207.335 164.9 207.245 164.911C207.027 164.94 206.824 164.986 206.634 165.05C206.447 165.111 206.296 165.205 206.18 165.33C206.066 165.454 206.009 165.622 206.009 165.835C206.009 166.126 206.117 166.346 206.332 166.495C206.55 166.642 206.826 166.715 207.16 166.715ZM213.434 161.886V162.596H210.607V161.886H213.434ZM211.431 160.579H212.269V165.778C212.269 166.015 212.303 166.192 212.372 166.311C212.443 166.427 212.533 166.505 212.642 166.545C212.753 166.583 212.87 166.602 212.993 166.602C213.086 166.602 213.162 166.597 213.221 166.588C213.28 166.576 213.327 166.566 213.363 166.559L213.533 167.312C213.476 167.333 213.397 167.355 213.295 167.376C213.194 167.4 213.065 167.411 212.908 167.411C212.672 167.411 212.44 167.361 212.212 167.259C211.987 167.157 211.8 167.002 211.651 166.794C211.504 166.585 211.431 166.322 211.431 166.005V160.579ZM217.067 161.886V162.596H214.24V161.886H217.067ZM215.064 160.579H215.902V165.778C215.902 166.015 215.936 166.192 216.005 166.311C216.076 166.427 216.166 166.505 216.275 166.545C216.386 166.583 216.503 166.602 216.626 166.602C216.719 166.602 216.794 166.597 216.854 166.588C216.913 166.576 216.96 166.566 216.996 166.559L217.166 167.312C217.109 167.333 217.03 167.355 216.928 167.376C216.826 167.4 216.697 167.411 216.541 167.411C216.304 167.411 216.072 167.361 215.845 167.259C215.62 167.157 215.433 167.002 215.284 166.794C215.137 166.585 215.064 166.322 215.064 166.005V160.579ZM220.556 167.454C220.03 167.454 219.577 167.338 219.196 167.106C218.817 166.872 218.524 166.545 218.318 166.126C218.115 165.705 218.013 165.214 218.013 164.656C218.013 164.097 218.115 163.605 218.318 163.178C218.524 162.75 218.811 162.416 219.178 162.177C219.547 161.936 219.978 161.815 220.47 161.815C220.754 161.815 221.035 161.862 221.312 161.957C221.589 162.052 221.841 162.205 222.068 162.419C222.296 162.629 222.477 162.909 222.612 163.257C222.747 163.605 222.814 164.033 222.814 164.542V164.897H218.61V164.173H221.962C221.962 163.865 221.9 163.59 221.777 163.349C221.656 163.107 221.484 162.917 221.259 162.777C221.036 162.638 220.773 162.568 220.47 162.568C220.137 162.568 219.848 162.651 219.604 162.816C219.362 162.98 219.177 163.193 219.046 163.455C218.916 163.718 218.851 164 218.851 164.301V164.784C218.851 165.196 218.922 165.545 219.064 165.831C219.209 166.115 219.409 166.332 219.664 166.481C219.92 166.628 220.217 166.701 220.556 166.701C220.776 166.701 220.975 166.67 221.152 166.609C221.332 166.545 221.487 166.45 221.617 166.325C221.748 166.197 221.848 166.038 221.919 165.849L222.729 166.076C222.644 166.351 222.5 166.592 222.299 166.801C222.098 167.007 221.849 167.168 221.553 167.284C221.258 167.397 220.925 167.454 220.556 167.454ZM224.089 167.34V161.886H224.899V162.71H224.955C225.055 162.44 225.235 162.221 225.495 162.053C225.756 161.885 226.049 161.801 226.376 161.801C226.437 161.801 226.514 161.802 226.607 161.804C226.699 161.807 226.769 161.81 226.816 161.815V162.667C226.788 162.66 226.723 162.649 226.621 162.635C226.522 162.619 226.416 162.61 226.305 162.61C226.04 162.61 225.803 162.666 225.595 162.777C225.389 162.886 225.225 163.038 225.105 163.232C224.986 163.423 224.927 163.642 224.927 163.889V167.34H224.089ZM227.81 167.34V161.886H228.648V167.34H227.81ZM228.236 160.977C228.072 160.977 227.932 160.921 227.813 160.81C227.697 160.699 227.639 160.565 227.639 160.409C227.639 160.252 227.697 160.119 227.813 160.007C227.932 159.896 228.072 159.84 228.236 159.84C228.399 159.84 228.539 159.896 228.655 160.007C228.773 160.119 228.832 160.252 228.832 160.409C228.832 160.565 228.773 160.699 228.655 160.81C228.539 160.921 228.399 160.977 228.236 160.977Z" fill="#F4F9F9"/>
<path d="M208.479 178.062V176.851L211.515 172.068H212.559V173.744H211.941L210.027 176.773V176.83H214.342V178.062H208.479ZM211.97 179.34V177.693L211.998 177.156V172.068H213.44V179.34H211.97ZM218.433 172.068V179.34H216.895V173.527H216.853L215.187 174.571V173.208L216.988 172.068H218.433Z" fill="#F4F9F9"/>
<rect x="98.5195" y="217.948" width="117.163" height="117.163" rx="58.5815" fill="#629F9E"/>
<path d="M134.764 274.53V267.257H137.307C137.813 267.257 138.231 267.345 138.56 267.52C138.889 267.693 139.134 267.926 139.295 268.22C139.456 268.511 139.537 268.834 139.537 269.189C139.537 269.501 139.481 269.76 139.37 269.963C139.261 270.167 139.116 270.328 138.937 270.446C138.759 270.564 138.566 270.652 138.358 270.709V270.78C138.58 270.794 138.804 270.872 139.029 271.014C139.254 271.156 139.442 271.36 139.593 271.625C139.745 271.89 139.821 272.215 139.821 272.598C139.821 272.963 139.738 273.291 139.572 273.582C139.406 273.873 139.145 274.104 138.787 274.274C138.43 274.445 137.965 274.53 137.392 274.53H134.764ZM135.645 273.749H137.392C137.967 273.749 138.375 273.637 138.617 273.415C138.861 273.19 138.983 272.918 138.983 272.598C138.983 272.352 138.92 272.125 138.794 271.916C138.669 271.706 138.49 271.537 138.258 271.412C138.026 271.284 137.752 271.22 137.434 271.22H135.645V273.749ZM135.645 270.453H137.278C137.543 270.453 137.782 270.401 137.995 270.297C138.211 270.193 138.381 270.046 138.507 269.857C138.635 269.667 138.699 269.445 138.699 269.189C138.699 268.869 138.587 268.598 138.365 268.376C138.142 268.151 137.79 268.038 137.307 268.038H135.645V270.453ZM143.37 274.644C142.878 274.644 142.446 274.526 142.074 274.292C141.705 274.058 141.416 273.73 141.207 273.308C141.002 272.887 140.899 272.394 140.899 271.831C140.899 271.263 141.002 270.767 141.207 270.343C141.416 269.919 141.705 269.59 142.074 269.356C142.446 269.122 142.878 269.004 143.37 269.004C143.863 269.004 144.293 269.122 144.663 269.356C145.034 269.59 145.323 269.919 145.529 270.343C145.738 270.767 145.842 271.263 145.842 271.831C145.842 272.394 145.738 272.887 145.529 273.308C145.323 273.73 145.034 274.058 144.663 274.292C144.293 274.526 143.863 274.644 143.37 274.644ZM143.37 273.891C143.744 273.891 144.052 273.795 144.293 273.603C144.535 273.411 144.714 273.159 144.83 272.847C144.946 272.534 145.004 272.196 145.004 271.831C145.004 271.466 144.946 271.127 144.83 270.812C144.714 270.497 144.535 270.243 144.293 270.048C144.052 269.854 143.744 269.757 143.37 269.757C142.996 269.757 142.688 269.854 142.447 270.048C142.205 270.243 142.027 270.497 141.911 270.812C141.795 271.127 141.737 271.466 141.737 271.831C141.737 272.196 141.795 272.534 141.911 272.847C142.027 273.159 142.205 273.411 142.447 273.603C142.688 273.795 142.996 273.891 143.37 273.891ZM147.121 274.53V269.075H147.931V269.928H148.002C148.115 269.636 148.299 269.41 148.552 269.249C148.805 269.086 149.11 269.004 149.465 269.004C149.825 269.004 150.124 269.086 150.363 269.249C150.605 269.41 150.793 269.636 150.928 269.928H150.985C151.124 269.646 151.334 269.422 151.613 269.256C151.893 269.088 152.228 269.004 152.618 269.004C153.106 269.004 153.505 269.157 153.815 269.462C154.125 269.765 154.28 270.238 154.28 270.879V274.53H153.442V270.879C153.442 270.477 153.332 270.189 153.112 270.016C152.892 269.844 152.632 269.757 152.334 269.757C151.951 269.757 151.653 269.873 151.443 270.105C151.232 270.335 151.127 270.626 151.127 270.979V274.53H150.274V270.794C150.274 270.484 150.174 270.234 149.973 270.045C149.771 269.853 149.512 269.757 149.195 269.757C148.977 269.757 148.773 269.815 148.584 269.931C148.397 270.047 148.246 270.208 148.13 270.414C148.016 270.618 147.959 270.853 147.959 271.121V274.53H147.121ZM155.926 274.53V267.257H156.764V269.942H156.835C156.897 269.847 156.982 269.726 157.091 269.58C157.202 269.43 157.361 269.298 157.567 269.182C157.775 269.064 158.057 269.004 158.412 269.004C158.871 269.004 159.276 269.119 159.626 269.349C159.977 269.578 160.25 269.904 160.447 270.325C160.643 270.747 160.741 271.244 160.741 271.817C160.741 272.394 160.643 272.895 160.447 273.319C160.25 273.74 159.978 274.067 159.63 274.299C159.282 274.529 158.881 274.644 158.426 274.644C158.076 274.644 157.795 274.586 157.584 274.47C157.374 274.351 157.212 274.217 157.098 274.068C156.984 273.917 156.897 273.791 156.835 273.692H156.736V274.53H155.926ZM156.75 271.803C156.75 272.215 156.81 272.578 156.931 272.893C157.052 273.205 157.228 273.45 157.46 273.628C157.692 273.803 157.976 273.891 158.312 273.891C158.663 273.891 158.955 273.798 159.19 273.614C159.426 273.427 159.604 273.176 159.722 272.861C159.843 272.544 159.903 272.191 159.903 271.803C159.903 271.419 159.844 271.073 159.726 270.766C159.61 270.456 159.433 270.211 159.197 270.031C158.962 269.848 158.668 269.757 158.312 269.757C157.972 269.757 157.685 269.844 157.453 270.016C157.221 270.187 157.046 270.426 156.927 270.734C156.809 271.039 156.75 271.395 156.75 271.803ZM164.31 274.644C163.785 274.644 163.331 274.528 162.95 274.296C162.571 274.061 162.279 273.734 162.073 273.315C161.869 272.894 161.768 272.404 161.768 271.845C161.768 271.287 161.869 270.794 162.073 270.368C162.279 269.939 162.566 269.606 162.932 269.367C163.302 269.125 163.733 269.004 164.225 269.004C164.509 269.004 164.79 269.052 165.067 269.146C165.344 269.241 165.596 269.395 165.823 269.608C166.05 269.819 166.231 270.098 166.366 270.446C166.501 270.794 166.569 271.223 166.569 271.732V272.087H162.364V271.362H165.717C165.717 271.055 165.655 270.78 165.532 270.538C165.411 270.297 165.238 270.106 165.013 269.967C164.791 269.827 164.528 269.757 164.225 269.757C163.891 269.757 163.602 269.84 163.359 270.006C163.117 270.169 162.931 270.382 162.801 270.645C162.671 270.908 162.606 271.189 162.606 271.49V271.973C162.606 272.385 162.677 272.734 162.819 273.021C162.963 273.305 163.163 273.521 163.419 273.671C163.675 273.817 163.972 273.891 164.31 273.891C164.53 273.891 164.729 273.86 164.907 273.798C165.087 273.734 165.242 273.64 165.372 273.514C165.502 273.386 165.603 273.228 165.674 273.038L166.484 273.266C166.398 273.54 166.255 273.782 166.054 273.99C165.853 274.196 165.604 274.357 165.308 274.473C165.012 274.587 164.68 274.644 164.31 274.644ZM167.844 274.53V269.075H168.653V269.899H168.71C168.81 269.629 168.99 269.41 169.25 269.242C169.51 269.074 169.804 268.99 170.131 268.99C170.192 268.99 170.269 268.991 170.361 268.994C170.454 268.996 170.524 269 170.571 269.004V269.857C170.543 269.85 170.477 269.839 170.376 269.825C170.276 269.808 170.171 269.8 170.06 269.8C169.794 269.8 169.558 269.855 169.349 269.967C169.143 270.076 168.98 270.227 168.859 270.421C168.741 270.613 168.682 270.832 168.682 271.078V274.53H167.844ZM171.981 274.828L171.441 274.459L175.248 268.82L175.788 269.189L171.981 274.828ZM173.614 274.644C173.122 274.644 172.69 274.526 172.318 274.292C171.949 274.058 171.66 273.73 171.452 273.308C171.246 272.887 171.143 272.394 171.143 271.831C171.143 271.263 171.246 270.767 171.452 270.343C171.66 269.919 171.949 269.59 172.318 269.356C172.69 269.122 173.122 269.004 173.614 269.004C174.107 269.004 174.538 269.122 174.907 269.356C175.279 269.59 175.567 269.919 175.773 270.343C175.982 270.767 176.086 271.263 176.086 271.831C176.086 272.394 175.982 272.887 175.773 273.308C175.567 273.73 175.279 274.058 174.907 274.292C174.538 274.526 174.107 274.644 173.614 274.644ZM173.614 273.891C173.988 273.891 174.296 273.795 174.538 273.603C174.779 273.411 174.958 273.159 175.074 272.847C175.19 272.534 175.248 272.196 175.248 271.831C175.248 271.466 175.19 271.127 175.074 270.812C174.958 270.497 174.779 270.243 174.538 270.048C174.296 269.854 173.988 269.757 173.614 269.757C173.24 269.757 172.932 269.854 172.691 270.048C172.449 270.243 172.271 270.497 172.155 270.812C172.039 271.127 171.981 271.466 171.981 271.831C171.981 272.196 172.039 272.534 172.155 272.847C172.271 273.159 172.449 273.411 172.691 273.603C172.932 273.795 173.24 273.891 173.614 273.891ZM177.365 274.53V269.075H178.175V269.899H178.232C178.331 269.629 178.511 269.41 178.771 269.242C179.032 269.074 179.325 268.99 179.652 268.99C179.714 268.99 179.791 268.991 179.883 268.994C179.975 268.996 180.045 269 180.092 269.004V269.857C180.064 269.85 179.999 269.839 179.897 269.825C179.798 269.808 179.692 269.8 179.581 269.8C179.316 269.8 179.079 269.855 178.871 269.967C178.665 270.076 178.502 270.227 178.381 270.421C178.262 270.613 178.203 270.832 178.203 271.078V274.53H177.365Z" fill="#F4F9F9"/>
<path d="M153.777 286.629C153.247 286.629 152.775 286.538 152.36 286.356C151.948 286.171 151.623 285.918 151.384 285.596C151.147 285.272 151.025 284.898 151.018 284.474H152.566C152.576 284.651 152.634 284.808 152.74 284.943C152.849 285.075 152.994 285.178 153.173 285.251C153.353 285.325 153.556 285.362 153.781 285.362C154.015 285.362 154.222 285.32 154.402 285.237C154.582 285.154 154.723 285.04 154.825 284.893C154.927 284.746 154.977 284.577 154.977 284.385C154.977 284.191 154.923 284.019 154.814 283.87C154.708 283.719 154.554 283.6 154.352 283.515C154.154 283.43 153.917 283.387 153.642 283.387H152.964V282.258H153.642C153.874 282.258 154.079 282.218 154.257 282.137C154.437 282.057 154.576 281.945 154.676 281.803C154.775 281.659 154.825 281.491 154.825 281.299C154.825 281.117 154.781 280.957 154.693 280.82C154.608 280.68 154.487 280.571 154.331 280.493C154.177 280.415 153.997 280.376 153.791 280.376C153.583 280.376 153.392 280.414 153.22 280.489C153.047 280.563 152.908 280.668 152.804 280.805C152.7 280.943 152.644 281.104 152.637 281.288H151.164C151.171 280.869 151.29 280.5 151.522 280.18C151.754 279.861 152.067 279.611 152.46 279.431C152.855 279.249 153.301 279.158 153.798 279.158C154.3 279.158 154.74 279.249 155.116 279.431C155.492 279.613 155.785 279.86 155.993 280.17C156.204 280.478 156.308 280.823 156.306 281.207C156.308 281.614 156.181 281.954 155.926 282.226C155.672 282.498 155.342 282.671 154.935 282.744V282.801C155.47 282.87 155.877 283.056 156.156 283.359C156.438 283.659 156.578 284.036 156.575 284.488C156.578 284.902 156.458 285.27 156.217 285.592C155.978 285.914 155.647 286.168 155.226 286.352C154.805 286.537 154.322 286.629 153.777 286.629ZM160.394 286.629C159.847 286.629 159.36 286.541 158.934 286.363C158.511 286.183 158.178 285.938 157.936 285.628C157.695 285.318 157.574 284.966 157.574 284.573C157.574 284.27 157.643 283.992 157.78 283.739C157.92 283.483 158.109 283.271 158.348 283.103C158.587 282.933 158.855 282.824 159.151 282.776V282.727C158.763 282.649 158.448 282.46 158.206 282.162C157.965 281.861 157.844 281.512 157.844 281.114C157.844 280.738 157.954 280.403 158.174 280.109C158.395 279.814 158.696 279.582 159.08 279.413C159.466 279.243 159.904 279.158 160.394 279.158C160.884 279.158 161.321 279.243 161.704 279.413C162.09 279.584 162.393 279.817 162.613 280.113C162.833 280.407 162.945 280.74 162.947 281.114C162.945 281.515 162.822 281.864 162.578 282.162C162.334 282.46 162.021 282.649 161.64 282.727V282.776C161.931 282.824 162.195 282.933 162.432 283.103C162.671 283.271 162.861 283.483 163 283.739C163.142 283.992 163.215 284.27 163.217 284.573C163.215 284.966 163.093 285.318 162.851 285.628C162.61 285.938 162.276 286.183 161.85 286.363C161.426 286.541 160.941 286.629 160.394 286.629ZM160.394 285.5C160.638 285.5 160.851 285.456 161.033 285.369C161.215 285.279 161.357 285.156 161.459 284.999C161.563 284.841 161.615 284.658 161.615 284.452C161.615 284.242 161.562 284.056 161.456 283.895C161.349 283.732 161.205 283.604 161.022 283.511C160.84 283.417 160.631 283.369 160.394 283.369C160.159 283.369 159.95 283.417 159.765 283.511C159.581 283.604 159.435 283.732 159.328 283.895C159.224 284.056 159.172 284.242 159.172 284.452C159.172 284.658 159.223 284.841 159.325 284.999C159.427 285.156 159.57 285.279 159.755 285.369C159.939 285.456 160.152 285.5 160.394 285.5ZM160.394 282.251C160.597 282.251 160.779 282.209 160.937 282.126C161.096 282.044 161.22 281.929 161.31 281.782C161.4 281.635 161.445 281.466 161.445 281.274C161.445 281.085 161.4 280.919 161.31 280.777C161.22 280.633 161.097 280.52 160.941 280.44C160.784 280.357 160.602 280.315 160.394 280.315C160.188 280.315 160.006 280.357 159.847 280.44C159.688 280.52 159.564 280.633 159.474 280.777C159.386 280.919 159.343 281.085 159.343 281.274C159.343 281.466 159.388 281.635 159.478 281.782C159.568 281.929 159.692 282.044 159.851 282.126C160.009 282.209 160.19 282.251 160.394 282.251Z" fill="#F4F9F9"/>
<rect x="99.9485" y="6.97437" width="114.038" height="114.038" rx="57.0191" fill="#8ABEBB"/>
<path d="M125.844 56.5389C125.801 56.179 125.629 55.8997 125.326 55.7008C125.023 55.502 124.651 55.4025 124.211 55.4025C123.889 55.4025 123.607 55.4546 123.365 55.5588C123.126 55.6629 122.939 55.8062 122.804 55.9885C122.672 56.1708 122.605 56.3779 122.605 56.6099C122.605 56.804 122.652 56.9709 122.744 57.1106C122.839 57.2479 122.959 57.3628 123.106 57.4551C123.253 57.545 123.407 57.6196 123.568 57.6788C123.729 57.7356 123.877 57.7818 124.012 57.8173L124.75 58.0162C124.94 58.0659 125.15 58.1345 125.382 58.2221C125.617 58.3097 125.841 58.4293 126.054 58.5808C126.269 58.7299 126.447 58.9217 126.586 59.1561C126.726 59.3905 126.796 59.6781 126.796 60.019C126.796 60.412 126.693 60.7671 126.487 61.0843C126.283 61.4016 125.985 61.6537 125.592 61.8407C125.201 62.0278 124.727 62.1213 124.168 62.1213C123.647 62.1213 123.196 62.0372 122.815 61.8691C122.436 61.7011 122.138 61.4667 121.92 61.166C121.705 60.8654 121.583 60.5162 121.554 60.1184H122.463C122.487 60.3931 122.579 60.6203 122.74 60.8003C122.904 60.9778 123.11 61.1104 123.358 61.198C123.609 61.2832 123.879 61.3258 124.168 61.3258C124.504 61.3258 124.806 61.2714 125.073 61.1625C125.341 61.0512 125.553 60.8973 125.709 60.7008C125.865 60.502 125.944 60.27 125.944 60.0048C125.944 59.7633 125.876 59.5668 125.741 59.4153C125.606 59.2638 125.429 59.1407 125.208 59.046C124.988 58.9513 124.75 58.8684 124.495 58.7974L123.6 58.5417C123.032 58.3784 122.582 58.1452 122.25 57.8422C121.919 57.5391 121.753 57.1426 121.753 56.6525C121.753 56.2453 121.863 55.8902 122.083 55.5872C122.306 55.2818 122.604 55.045 122.978 54.877C123.355 54.7065 123.775 54.6213 124.239 54.6213C124.708 54.6213 125.124 54.7053 125.489 54.8734C125.854 55.0391 126.142 55.2664 126.355 55.5552C126.571 55.8441 126.685 56.1719 126.696 56.5389H125.844ZM128.13 61.9934V56.5389H128.94V57.3912H129.011C129.124 57.1 129.308 56.8739 129.561 56.7129C129.815 56.5495 130.119 56.4679 130.474 56.4679C130.834 56.4679 131.133 56.5495 131.372 56.7129C131.614 56.8739 131.802 57.1 131.937 57.3912H131.994C132.133 57.1094 132.343 56.8857 132.622 56.72C132.902 56.5519 133.237 56.4679 133.627 56.4679C134.115 56.4679 134.514 56.6206 134.824 56.926C135.134 57.229 135.289 57.7013 135.289 58.3429V61.9934H134.451V58.3429C134.451 57.9404 134.341 57.6528 134.121 57.4799C133.901 57.3071 133.641 57.2207 133.343 57.2207C132.96 57.2207 132.663 57.3367 132.452 57.5687C132.241 57.7984 132.136 58.0896 132.136 58.4423V61.9934H131.284V58.2576C131.284 57.9475 131.183 57.6977 130.982 57.5084C130.78 57.3166 130.521 57.2207 130.204 57.2207C129.986 57.2207 129.783 57.2787 129.593 57.3947C129.406 57.5107 129.255 57.6717 129.139 57.8777C129.025 58.0813 128.968 58.3168 128.968 58.5843V61.9934H128.13ZM138.427 62.1213C138.081 62.1213 137.767 62.0562 137.486 61.926C137.204 61.7934 136.98 61.6028 136.814 61.3542C136.649 61.1033 136.566 60.8003 136.566 60.4451C136.566 60.1326 136.627 59.8793 136.75 59.6852C136.874 59.4887 137.038 59.3348 137.244 59.2236C137.45 59.1123 137.677 59.0294 137.926 58.975C138.177 58.9182 138.429 58.8732 138.682 58.84C139.014 58.7974 139.282 58.7655 139.488 58.7441C139.697 58.7205 139.848 58.6814 139.943 58.627C140.04 58.5725 140.089 58.4778 140.089 58.3429V58.3145C140.089 57.9641 139.993 57.6918 139.801 57.4977C139.612 57.3036 139.324 57.2065 138.938 57.2065C138.538 57.2065 138.224 57.2941 137.997 57.4693C137.77 57.6445 137.61 57.8315 137.518 58.0304L136.722 57.7463C136.864 57.4148 137.054 57.1568 137.29 56.9721C137.529 56.7851 137.79 56.6549 138.072 56.5815C138.356 56.5057 138.635 56.4679 138.91 56.4679C139.085 56.4679 139.286 56.4892 139.513 56.5318C139.743 56.572 139.964 56.6561 140.177 56.7839C140.393 56.9118 140.572 57.1047 140.714 57.3628C140.856 57.6208 140.927 57.9664 140.927 58.3997V61.9934H140.089V61.2548H140.046C139.989 61.3732 139.894 61.4998 139.762 61.6348C139.629 61.7697 139.453 61.8845 139.233 61.9792C139.013 62.0739 138.744 62.1213 138.427 62.1213ZM138.554 61.3684C138.886 61.3684 139.165 61.3033 139.393 61.1731C139.622 61.0429 139.795 60.8748 139.911 60.6689C140.029 60.4629 140.089 60.2463 140.089 60.019V59.252C140.053 59.2946 139.975 59.3336 139.854 59.3691C139.736 59.4023 139.599 59.4319 139.442 59.4579C139.288 59.4816 139.138 59.5029 138.991 59.5218C138.847 59.5384 138.73 59.5526 138.64 59.5645C138.422 59.5929 138.218 59.639 138.029 59.703C137.842 59.7645 137.69 59.858 137.574 59.9835C137.461 60.1066 137.404 60.2747 137.404 60.4878C137.404 60.779 137.512 60.9991 137.727 61.1483C137.945 61.295 138.221 61.3684 138.554 61.3684ZM138.966 55.9281C138.725 55.9281 138.506 55.8748 138.309 55.7683C138.115 55.6618 137.96 55.5173 137.844 55.3351C137.731 55.1528 137.674 54.948 137.674 54.7207C137.674 54.4934 137.731 54.2851 137.844 54.0957C137.96 53.9063 138.115 53.7548 138.309 53.6412C138.506 53.5275 138.725 53.4707 138.966 53.4707C139.208 53.4707 139.425 53.5275 139.616 53.6412C139.81 53.7548 139.963 53.9063 140.074 54.0957C140.188 54.2851 140.245 54.4934 140.245 54.7207C140.245 54.948 140.188 55.1528 140.074 55.3351C139.963 55.5173 139.81 55.6618 139.616 55.7683C139.425 55.8748 139.208 55.9281 138.966 55.9281ZM138.966 55.3883C139.165 55.3883 139.329 55.3197 139.456 55.1824C139.584 55.045 139.648 54.8912 139.648 54.7207C139.648 54.5432 139.584 54.3834 139.456 54.2413C139.329 54.0969 139.165 54.0247 138.966 54.0247C138.768 54.0247 138.604 54.0969 138.476 54.2413C138.349 54.3834 138.285 54.5432 138.285 54.7207C138.285 54.8912 138.349 55.045 138.476 55.1824C138.604 55.3197 138.768 55.3883 138.966 55.3883ZM144.828 56.5389V57.2491H142.002V56.5389H144.828ZM142.826 55.2321H143.664V60.4309C143.664 60.6677 143.698 60.8452 143.767 60.9636C143.838 61.0796 143.928 61.1577 144.037 61.198C144.148 61.2359 144.265 61.2548 144.388 61.2548C144.48 61.2548 144.556 61.2501 144.615 61.2406C144.675 61.2288 144.722 61.2193 144.757 61.2122L144.928 61.965C144.871 61.9863 144.792 62.0076 144.69 62.029C144.588 62.0526 144.459 62.0645 144.303 62.0645C144.066 62.0645 143.834 62.0136 143.607 61.9118C143.382 61.81 143.195 61.6549 143.046 61.4466C142.899 61.2382 142.826 60.9754 142.826 60.6582V55.2321ZM152.339 59.7633V56.5389H153.177V61.9934H152.339V61.0701H152.282C152.154 61.3471 151.956 61.5827 151.686 61.7768C151.416 61.9686 151.075 62.0645 150.663 62.0645C150.322 62.0645 150.019 61.9899 149.754 61.8407C149.489 61.6892 149.28 61.462 149.129 61.1589C148.977 60.8535 148.902 60.4688 148.902 60.0048V56.5389H149.74V59.948C149.74 60.3457 149.851 60.6629 150.073 60.8997C150.298 61.1364 150.585 61.2548 150.933 61.2548C151.141 61.2548 151.353 61.2015 151.569 61.095C151.786 60.9885 151.969 60.8251 152.115 60.6049C152.265 60.3848 152.339 60.1042 152.339 59.7633ZM156.772 62.1071C156.317 62.1071 155.916 61.9923 155.568 61.7626C155.22 61.5306 154.948 61.2039 154.751 60.7825C154.555 60.3587 154.456 59.858 154.456 59.2804C154.456 58.7075 154.555 58.2103 154.751 57.7889C154.948 57.3675 155.221 57.042 155.572 56.8123C155.922 56.5827 156.327 56.4679 156.786 56.4679C157.141 56.4679 157.422 56.5271 157.628 56.6454C157.836 56.7614 157.995 56.894 158.103 57.0432C158.215 57.1899 158.301 57.3107 158.363 57.4054H158.434V54.7207H159.272V61.9934H158.462V61.1554H158.363C158.301 61.2548 158.214 61.3803 158.1 61.5318C157.986 61.6809 157.824 61.8147 157.613 61.9331C157.403 62.0491 157.122 62.1071 156.772 62.1071ZM156.885 61.3542C157.222 61.3542 157.506 61.2666 157.738 61.0915C157.97 60.9139 158.146 60.6689 158.267 60.3564C158.388 60.0415 158.448 59.6781 158.448 59.2662C158.448 58.859 158.389 58.5027 158.27 58.1973C158.152 57.8895 157.977 57.6504 157.745 57.4799C157.513 57.3071 157.226 57.2207 156.885 57.2207C156.53 57.2207 156.234 57.3119 155.998 57.4941C155.763 57.6741 155.587 57.9191 155.469 58.2292C155.353 58.537 155.295 58.8826 155.295 59.2662C155.295 59.6544 155.354 60.0072 155.472 60.3244C155.593 60.6393 155.77 60.8902 156.005 61.0772C156.242 61.2619 156.535 61.3542 156.885 61.3542ZM163.21 62.1071C162.684 62.1071 162.231 61.9911 161.85 61.7591C161.471 61.5247 161.179 61.198 160.973 60.779C160.769 60.3575 160.667 59.8675 160.667 59.3088C160.667 58.7501 160.769 58.2576 160.973 57.8315C161.179 57.403 161.465 57.0692 161.832 56.8301C162.201 56.5886 162.632 56.4679 163.125 56.4679C163.409 56.4679 163.689 56.5152 163.966 56.6099C164.243 56.7046 164.496 56.8585 164.723 57.0716C164.95 57.2823 165.131 57.5616 165.266 57.9096C165.401 58.2576 165.469 58.6861 165.469 59.1951V59.5503H161.264V58.8258H164.616C164.616 58.5181 164.555 58.2434 164.432 58.002C164.311 57.7605 164.138 57.5699 163.913 57.4302C163.691 57.2906 163.428 57.2207 163.125 57.2207C162.791 57.2207 162.502 57.3036 162.258 57.4693C162.017 57.6326 161.831 57.8457 161.701 58.1085C161.571 58.3713 161.505 58.653 161.505 58.9537V59.4366C161.505 59.8486 161.576 60.1977 161.719 60.4842C161.863 60.7683 162.063 60.9849 162.319 61.1341C162.574 61.2808 162.871 61.3542 163.21 61.3542C163.43 61.3542 163.629 61.3235 163.807 61.2619C163.987 61.198 164.142 61.1033 164.272 60.9778C164.402 60.85 164.503 60.6914 164.574 60.502L165.383 60.7292C165.298 61.0039 165.155 61.2453 164.954 61.4537C164.752 61.6596 164.504 61.8206 164.208 61.9366C163.912 62.0503 163.579 62.1071 163.21 62.1071ZM167.581 58.7122V61.9934H166.743V56.5389H167.553V57.3912H167.624C167.752 57.1142 167.946 56.8916 168.206 56.7236C168.467 56.5531 168.803 56.4679 169.215 56.4679C169.584 56.4679 169.907 56.5436 170.184 56.6951C170.461 56.8443 170.677 57.0716 170.831 57.377C170.985 57.68 171.062 58.0635 171.062 58.5275V61.9934H170.224V58.5843C170.224 58.1558 170.112 57.822 169.89 57.5829C169.667 57.3414 169.362 57.2207 168.974 57.2207C168.706 57.2207 168.467 57.2787 168.256 57.3947C168.048 57.5107 167.883 57.68 167.763 57.9025C167.642 58.1251 167.581 58.395 167.581 58.7122ZM174.653 62.1071C174.198 62.1071 173.797 61.9923 173.449 61.7626C173.101 61.5306 172.829 61.2039 172.632 60.7825C172.436 60.3587 172.337 59.858 172.337 59.2804C172.337 58.7075 172.436 58.2103 172.632 57.7889C172.829 57.3675 173.102 57.042 173.452 56.8123C173.803 56.5827 174.208 56.4679 174.667 56.4679C175.022 56.4679 175.303 56.5271 175.508 56.6454C175.717 56.7614 175.875 56.894 175.984 57.0432C176.096 57.1899 176.182 57.3107 176.244 57.4054H176.315V54.7207H177.153V61.9934H176.343V61.1554H176.244C176.182 61.2548 176.094 61.3803 175.981 61.5318C175.867 61.6809 175.705 61.8147 175.494 61.9331C175.284 62.0491 175.003 62.1071 174.653 62.1071ZM174.766 61.3542C175.102 61.3542 175.387 61.2666 175.619 61.0915C175.851 60.9139 176.027 60.6689 176.148 60.3564C176.268 60.0415 176.329 59.6781 176.329 59.2662C176.329 58.859 176.27 58.5027 176.151 58.1973C176.033 57.8895 175.858 57.6504 175.626 57.4799C175.394 57.3071 175.107 57.2207 174.766 57.2207C174.411 57.2207 174.115 57.3119 173.879 57.4941C173.644 57.6741 173.468 57.9191 173.349 58.2292C173.233 58.537 173.175 58.8826 173.175 59.2662C173.175 59.6544 173.235 60.0072 173.353 60.3244C173.474 60.6393 173.651 60.8902 173.886 61.0772C174.122 61.2619 174.416 61.3542 174.766 61.3542ZM179.386 62.2917L178.847 61.9224L182.653 56.2832L183.193 56.6525L179.386 62.2917ZM181.02 62.1071C180.527 62.1071 180.095 61.9899 179.724 61.7555C179.354 61.5211 179.066 61.1932 178.857 60.7718C178.651 60.3504 178.548 59.858 178.548 59.2946C178.548 58.7264 178.651 58.2304 178.857 57.8066C179.066 57.3829 179.354 57.0538 179.724 56.8194C180.095 56.5851 180.527 56.4679 181.02 56.4679C181.512 56.4679 181.943 56.5851 182.312 56.8194C182.684 57.0538 182.973 57.3829 183.179 57.8066C183.387 58.2304 183.491 58.7264 183.491 59.2946C183.491 59.858 183.387 60.3504 183.179 60.7718C182.973 61.1932 182.684 61.5211 182.312 61.7555C181.943 61.9899 181.512 62.1071 181.02 62.1071ZM181.02 61.3542C181.394 61.3542 181.702 61.2584 181.943 61.0666C182.185 60.8748 182.363 60.6227 182.479 60.3102C182.595 59.9977 182.653 59.6592 182.653 59.2946C182.653 58.93 182.595 58.5903 182.479 58.2754C182.363 57.9605 182.185 57.706 181.943 57.5119C181.702 57.3178 181.394 57.2207 181.02 57.2207C180.646 57.2207 180.338 57.3178 180.097 57.5119C179.855 57.706 179.676 57.9605 179.56 58.2754C179.444 58.5903 179.386 58.93 179.386 59.2946C179.386 59.6592 179.444 59.9977 179.56 60.3102C179.676 60.6227 179.855 60.8748 180.097 61.0666C180.338 61.2584 180.646 61.3542 181.02 61.3542ZM184.771 61.9934V56.5389H185.58V57.3628H185.637C185.737 57.0929 185.917 56.8739 186.177 56.7058C186.437 56.5377 186.731 56.4537 187.058 56.4537C187.119 56.4537 187.196 56.4548 187.288 56.4572C187.381 56.4596 187.451 56.4631 187.498 56.4679V57.3201C187.47 57.313 187.404 57.3024 187.303 57.2882C187.203 57.2716 187.098 57.2633 186.987 57.2633C186.721 57.2633 186.485 57.319 186.276 57.4302C186.07 57.5391 185.907 57.6906 185.786 57.8848C185.668 58.0765 185.609 58.2955 185.609 58.5417V61.9934H184.771ZM192.355 57.7605L191.602 57.9736C191.555 57.8481 191.485 57.7262 191.393 57.6078C191.303 57.487 191.18 57.3876 191.023 57.3095C190.867 57.2314 190.667 57.1923 190.423 57.1923C190.089 57.1923 189.811 57.2692 189.589 57.4231C189.369 57.5746 189.258 57.7676 189.258 58.002C189.258 58.2103 189.334 58.3748 189.486 58.4956C189.637 58.6163 189.874 58.7169 190.196 58.7974L191.006 58.9963C191.493 59.1147 191.857 59.2958 192.096 59.5396C192.335 59.7811 192.455 60.0924 192.455 60.4736C192.455 60.7861 192.365 61.0654 192.185 61.3116C192.007 61.5578 191.758 61.752 191.439 61.894C191.119 62.0361 190.748 62.1071 190.324 62.1071C189.767 62.1071 189.307 61.9863 188.942 61.7449C188.578 61.5034 188.347 61.1506 188.25 60.6866L189.045 60.4878C189.121 60.7813 189.264 61.0015 189.475 61.1483C189.688 61.295 189.966 61.3684 190.31 61.3684C190.7 61.3684 191.01 61.2856 191.24 61.1199C191.472 60.9518 191.588 60.7505 191.588 60.5162C191.588 60.3268 191.522 60.1682 191.389 60.0403C191.257 59.9101 191.053 59.813 190.778 59.7491L189.869 59.5361C189.37 59.4177 189.003 59.2342 188.768 58.9856C188.536 58.7347 188.42 58.421 188.42 58.0446C188.42 57.7368 188.507 57.4646 188.68 57.2278C188.855 56.9911 189.093 56.8052 189.393 56.6703C189.696 56.5353 190.04 56.4679 190.423 56.4679C190.963 56.4679 191.387 56.5862 191.695 56.823C192.005 57.0597 192.225 57.3722 192.355 57.7605Z" fill="#F4F9F9"/>
<path d="M153.649 74.0929C153.118 74.0929 152.646 74.0017 152.232 73.8194C151.82 73.6348 151.494 73.3815 151.255 73.0595C151.018 72.7352 150.896 72.3611 150.889 71.9373H152.438C152.447 72.1149 152.505 72.2711 152.612 72.4061C152.721 72.5387 152.865 72.6416 153.045 72.715C153.225 72.7884 153.427 72.8251 153.652 72.8251C153.887 72.8251 154.094 72.7837 154.274 72.7008C154.454 72.618 154.594 72.5031 154.696 72.3564C154.798 72.2096 154.849 72.0403 154.849 71.8486C154.849 71.6544 154.794 71.4828 154.686 71.3336C154.579 71.1821 154.425 71.0638 154.224 70.9785C154.025 70.8933 153.788 70.8507 153.514 70.8507H152.835V69.7214H153.514C153.746 69.7214 153.95 69.6812 154.128 69.6007C154.308 69.5202 154.448 69.4089 154.547 69.2669C154.646 69.1225 154.696 68.9544 154.696 68.7626C154.696 68.5803 154.652 68.4205 154.565 68.2832C154.48 68.1435 154.359 68.0346 154.203 67.9565C154.049 67.8784 153.869 67.8393 153.663 67.8393C153.454 67.8393 153.264 67.8772 153.091 67.953C152.918 68.0263 152.78 68.1317 152.676 68.269C152.571 68.4063 152.516 68.5673 152.509 68.752H151.035C151.042 68.3329 151.162 67.9636 151.394 67.644C151.626 67.3244 151.938 67.0746 152.331 66.8947C152.726 66.7124 153.173 66.6213 153.67 66.6213C154.172 66.6213 154.611 66.7124 154.987 66.8947C155.364 67.077 155.656 67.3232 155.864 67.6334C156.075 67.9411 156.179 68.2868 156.177 68.6703C156.179 69.0775 156.053 69.4172 155.797 69.6895C155.544 69.9617 155.213 70.1345 154.806 70.2079V70.2647C155.341 70.3334 155.748 70.5192 156.028 70.8223C156.31 71.1229 156.449 71.4994 156.447 71.9515C156.449 72.3658 156.33 72.734 156.088 73.0559C155.849 73.3779 155.519 73.6312 155.097 73.8159C154.676 74.0005 154.193 74.0929 153.649 74.0929ZM160.343 74.0929C159.969 74.0905 159.608 74.0278 159.26 73.9047C158.915 73.7816 158.604 73.5815 158.33 73.3045C158.055 73.0275 157.837 72.6606 157.676 72.2037C157.518 71.7468 157.439 71.1857 157.439 70.5204C157.441 69.9096 157.511 69.3639 157.648 68.8834C157.788 68.4004 157.987 67.9908 158.245 67.6547C158.505 67.3185 158.816 67.0628 159.179 66.8876C159.541 66.7101 159.947 66.6213 160.397 66.6213C160.882 66.6213 161.31 66.716 161.682 66.9054C162.054 67.0924 162.352 67.3469 162.577 67.6689C162.804 67.9908 162.942 68.3519 162.989 68.752H161.473C161.413 68.4986 161.289 68.2998 161.1 68.1554C160.91 68.011 160.676 67.9388 160.397 67.9388C159.923 67.9388 159.563 68.1447 159.317 68.5566C159.073 68.9686 158.949 69.5285 158.944 70.2363H158.994C159.103 70.0209 159.25 69.8374 159.434 69.6859C159.621 69.532 159.833 69.4148 160.07 69.3343C160.309 69.2515 160.561 69.2101 160.826 69.2101C161.257 69.2101 161.641 69.3119 161.977 69.5155C162.313 69.7167 162.578 69.9937 162.772 70.3464C162.966 70.6992 163.064 71.1028 163.064 71.5574C163.064 72.0498 162.949 72.4878 162.719 72.8713C162.492 73.2548 162.173 73.5555 161.764 73.7733C161.357 73.9887 160.883 74.0952 160.343 74.0929ZM160.336 72.8855C160.573 72.8855 160.785 72.8287 160.972 72.715C161.159 72.6014 161.306 72.4475 161.412 72.2534C161.519 72.0593 161.572 71.8415 161.572 71.6C161.572 71.3585 161.519 71.1419 161.412 70.9501C161.308 70.7584 161.164 70.6057 160.979 70.492C160.794 70.3784 160.584 70.3216 160.347 70.3216C160.169 70.3216 160.005 70.3547 159.853 70.421C159.704 70.4873 159.573 70.5796 159.459 70.698C159.348 70.8164 159.26 70.9537 159.196 71.1099C159.132 71.2638 159.1 71.4283 159.1 71.6035C159.1 71.8379 159.154 72.0522 159.26 72.2463C159.369 72.4404 159.516 72.5955 159.701 72.7115C159.888 72.8275 160.1 72.8855 160.336 72.8855Z" fill="#F4F9F9"/>
<rect x="11.5159" y="10.4492" width="87.0981" height="87.0981" rx="43.549" fill="#8ABEBB"/>
<path d="M33.0763 44.7255V51.9982H32.1956V44.7255H33.0763ZM35.5665 48.717V51.9982H34.7284V46.5437H35.5381V47.396H35.6091C35.737 47.119 35.9311 46.8964 36.1915 46.7283C36.4519 46.5579 36.7881 46.4727 37.2 46.4727C37.5693 46.4727 37.8925 46.5484 38.1695 46.6999C38.4465 46.8491 38.6619 47.0764 38.8158 47.3818C38.9697 47.6848 39.0466 48.0683 39.0466 48.5323V51.9982H38.2086V48.5891C38.2086 48.1606 38.0973 47.8268 37.8747 47.5877C37.6522 47.3462 37.3468 47.2255 36.9586 47.2255C36.691 47.2255 36.4519 47.2835 36.2412 47.3995C36.0329 47.5155 35.8684 47.6848 35.7476 47.9073C35.6269 48.1299 35.5665 48.3997 35.5665 48.717ZM42.6377 52.1119C42.1832 52.1119 41.7819 51.997 41.4339 51.7674C41.0859 51.5354 40.8136 51.2087 40.6171 50.7873C40.4206 50.3635 40.3224 49.8628 40.3224 49.2852C40.3224 48.7122 40.4206 48.2151 40.6171 47.7937C40.8136 47.3723 41.087 47.0468 41.4374 46.8171C41.7878 46.5875 42.1926 46.4727 42.6519 46.4727C43.007 46.4727 43.2876 46.5318 43.4935 46.6502C43.7019 46.7662 43.8605 46.8988 43.9694 47.0479C44.0807 47.1947 44.1671 47.3155 44.2286 47.4102H44.2996V44.7255H45.1377V51.9982H44.3281V51.1602H44.2286C44.1671 51.2596 44.0795 51.3851 43.9658 51.5366C43.8522 51.6857 43.69 51.8195 43.4793 51.9379C43.2686 52.0539 42.9881 52.1119 42.6377 52.1119ZM42.7513 51.359C43.0875 51.359 43.3716 51.2714 43.6036 51.0962C43.8356 50.9187 44.012 50.6737 44.1327 50.3612C44.2535 50.0463 44.3138 49.6829 44.3138 49.271C44.3138 48.8638 44.2547 48.5075 44.1363 48.2021C44.0179 47.8943 43.8427 47.6552 43.6107 47.4847C43.3787 47.3119 43.0923 47.2255 42.7513 47.2255C42.3962 47.2255 42.1003 47.3166 41.8636 47.4989C41.6292 47.6789 41.4528 47.9239 41.3344 48.234C41.2184 48.5418 41.1604 48.8874 41.1604 49.271C41.1604 49.6592 41.2196 50.012 41.338 50.3292C41.4587 50.6441 41.6363 50.895 41.8707 51.082C42.1074 51.2667 42.401 51.359 42.7513 51.359ZM49.0759 52.1119C48.5504 52.1119 48.097 51.9959 47.7158 51.7639C47.337 51.5295 47.0447 51.2028 46.8387 50.7837C46.6351 50.3623 46.5333 49.8723 46.5333 49.3136C46.5333 48.7549 46.6351 48.2624 46.8387 47.8363C47.0447 47.4078 47.3311 47.074 47.6981 46.8349C48.0674 46.5934 48.4983 46.4727 48.9907 46.4727C49.2748 46.4727 49.5553 46.52 49.8323 46.6147C50.1093 46.7094 50.3614 46.8633 50.5887 47.0764C50.816 47.2871 50.9971 47.5664 51.132 47.9144C51.267 48.2624 51.3344 48.6909 51.3344 49.1999V49.555H47.1299V48.8306H50.4822C50.4822 48.5229 50.4206 48.2482 50.2975 48.0068C50.1768 47.7653 50.0039 47.5747 49.779 47.435C49.5565 47.2953 49.2937 47.2255 48.9907 47.2255C48.6569 47.2255 48.3681 47.3084 48.1242 47.4741C47.8827 47.6374 47.6969 47.8505 47.5667 48.1133C47.4365 48.3761 47.3714 48.6578 47.3714 48.9585V49.4414C47.3714 49.8533 47.4424 50.2025 47.5844 50.489C47.7289 50.7731 47.9289 50.9897 48.1846 51.1389C48.4403 51.2856 48.7374 51.359 49.0759 51.359C49.2961 51.359 49.495 51.3282 49.6725 51.2667C49.8524 51.2028 50.0075 51.1081 50.1377 50.9826C50.2679 50.8548 50.3685 50.6961 50.4396 50.5068L51.2492 50.734C51.164 51.0086 51.0208 51.2501 50.8195 51.4585C50.6183 51.6644 50.3697 51.8254 50.0738 51.9414C49.7779 52.055 49.4452 52.1119 49.0759 52.1119ZM53.4474 48.717V51.9982H52.6093V46.5437H53.419V47.396H53.49C53.6178 47.119 53.812 46.8964 54.0724 46.7283C54.3328 46.5579 54.669 46.4727 55.0809 46.4727C55.4502 46.4727 55.7734 46.5484 56.0504 46.6999C56.3273 46.8491 56.5428 47.0764 56.6967 47.3818C56.8505 47.6848 56.9275 48.0683 56.9275 48.5323V51.9982H56.0894V48.5891C56.0894 48.1606 55.9781 47.8268 55.7556 47.5877C55.5331 47.3462 55.2277 47.2255 54.8394 47.2255C54.5719 47.2255 54.3328 47.2835 54.1221 47.3995C53.9138 47.5155 53.7492 47.6848 53.6285 47.9073C53.5077 48.1299 53.4474 48.3997 53.4474 48.717ZM60.5186 52.1119C60.064 52.1119 59.6627 51.997 59.3147 51.7674C58.9667 51.5354 58.6945 51.2087 58.498 50.7873C58.3015 50.3635 58.2032 49.8628 58.2032 49.2852C58.2032 48.7122 58.3015 48.2151 58.498 47.7937C58.6945 47.3723 58.9679 47.0468 59.3183 46.8171C59.6687 46.5875 60.0735 46.4727 60.5328 46.4727C60.8879 46.4727 61.1684 46.5318 61.3744 46.6502C61.5827 46.7662 61.7413 46.8988 61.8502 47.0479C61.9615 47.1947 62.0479 47.3155 62.1095 47.4102H62.1805V44.7255H63.0186V51.9982H62.2089V51.1602H62.1095C62.0479 51.2596 61.9603 51.3851 61.8467 51.5366C61.7331 51.6857 61.5709 51.8195 61.3602 51.9379C61.1495 52.0539 60.8689 52.1119 60.5186 52.1119ZM60.6322 51.359C60.9684 51.359 61.2525 51.2714 61.4845 51.0962C61.7165 50.9187 61.8929 50.6737 62.0136 50.3612C62.1343 50.0463 62.1947 49.6829 62.1947 49.271C62.1947 48.8638 62.1355 48.5075 62.0171 48.2021C61.8988 47.8943 61.7236 47.6552 61.4916 47.4847C61.2596 47.3119 60.9731 47.2255 60.6322 47.2255C60.2771 47.2255 59.9812 47.3166 59.7444 47.4989C59.51 47.6789 59.3337 47.9239 59.2153 48.234C59.0993 48.5418 59.0413 48.8874 59.0413 49.271C59.0413 49.6592 59.1005 50.012 59.2189 50.3292C59.3396 50.6441 59.5171 50.895 59.7515 51.082C59.9883 51.2667 60.2818 51.359 60.6322 51.359ZM65.2522 52.2965L64.7125 51.9272L68.5193 46.288L69.0591 46.6573L65.2522 52.2965ZM66.8858 52.1119C66.3933 52.1119 65.9613 51.9947 65.5896 51.7603C65.2203 51.5259 64.9314 51.198 64.7231 50.7766C64.5171 50.3552 64.4142 49.8628 64.4142 49.2994C64.4142 48.7312 64.5171 48.2352 64.7231 47.8114C64.9314 47.3877 65.2203 47.0586 65.5896 46.8242C65.9613 46.5898 66.3933 46.4727 66.8858 46.4727C67.3782 46.4727 67.8091 46.5898 68.1784 46.8242C68.5501 47.0586 68.8389 47.3877 69.0448 47.8114C69.2532 48.2352 69.3573 48.7312 69.3573 49.2994C69.3573 49.8628 69.2532 50.3552 69.0448 50.7766C68.8389 51.198 68.5501 51.5259 68.1784 51.7603C67.8091 51.9947 67.3782 52.1119 66.8858 52.1119ZM66.8858 51.359C67.2598 51.359 67.5676 51.2631 67.8091 51.0714C68.0505 50.8796 68.2293 50.6275 68.3453 50.315C68.4613 50.0025 68.5193 49.6639 68.5193 49.2994C68.5193 48.9348 68.4613 48.5951 68.3453 48.2802C68.2293 47.9653 68.0505 47.7108 67.8091 47.5167C67.5676 47.3226 67.2598 47.2255 66.8858 47.2255C66.5117 47.2255 66.2039 47.3226 65.9625 47.5167C65.721 47.7108 65.5422 47.9653 65.4262 48.2802C65.3102 48.5951 65.2522 48.9348 65.2522 49.2994C65.2522 49.6639 65.3102 50.0025 65.4262 50.315C65.5422 50.6275 65.721 50.8796 65.9625 51.0714C66.2039 51.2631 66.5117 51.359 66.8858 51.359ZM70.6366 51.9982V46.5437H71.4463V47.3675H71.5031C71.6026 47.0977 71.7825 46.8787 72.0429 46.7106C72.3033 46.5425 72.5969 46.4585 72.9236 46.4585C72.9851 46.4585 73.0621 46.4596 73.1544 46.462C73.2467 46.4644 73.3166 46.4679 73.3639 46.4727V47.3249C73.3355 47.3178 73.2704 47.3072 73.1686 47.293C73.0692 47.2764 72.9638 47.2681 72.8526 47.2681C72.5874 47.2681 72.3507 47.3238 72.1423 47.435C71.9364 47.5439 71.773 47.6954 71.6523 47.8896C71.5339 48.0813 71.4747 48.3003 71.4747 48.5465V51.9982H70.6366ZM78.221 47.7653L77.4681 47.9783C77.4208 47.8529 77.351 47.7309 77.2586 47.6126C77.1687 47.4918 77.0456 47.3924 76.8893 47.3143C76.7331 47.2362 76.533 47.1971 76.2892 47.1971C75.9554 47.1971 75.6772 47.274 75.4546 47.4279C75.2345 47.5794 75.1244 47.7724 75.1244 48.0068C75.1244 48.2151 75.2002 48.3796 75.3517 48.5004C75.5032 48.6211 75.7399 48.7217 76.0619 48.8022L76.8716 49.0011C77.3592 49.1194 77.7226 49.3005 77.9618 49.5444C78.2009 49.7859 78.3204 50.0972 78.3204 50.4783C78.3204 50.7908 78.2305 51.0702 78.0505 51.3164C77.873 51.5626 77.6244 51.7568 77.3048 51.8988C76.9852 52.0408 76.6135 52.1119 76.1897 52.1119C75.6334 52.1119 75.1729 51.9911 74.8083 51.7497C74.4438 51.5082 74.2129 51.1554 74.1159 50.6914L74.9113 50.4925C74.9871 50.7861 75.1303 51.0063 75.341 51.1531C75.5541 51.2998 75.8323 51.3732 76.1755 51.3732C76.5662 51.3732 76.8763 51.2904 77.1059 51.1247C77.3379 50.9566 77.4539 50.7553 77.4539 50.521C77.4539 50.3316 77.3877 50.1729 77.2551 50.0451C77.1225 49.9149 76.9189 49.8178 76.6443 49.7539L75.7352 49.5408C75.2357 49.4225 74.8687 49.239 74.6343 48.9904C74.4023 48.7395 74.2863 48.4258 74.2863 48.0494C74.2863 47.7416 74.3727 47.4693 74.5456 47.2326C74.7207 46.9959 74.9587 46.81 75.2593 46.6751C75.5624 46.5401 75.9056 46.4727 76.2892 46.4727C76.8289 46.4727 77.2527 46.591 77.5605 46.8278C77.8706 47.0645 78.0908 47.377 78.221 47.7653Z" fill="#F4F9F9"/>
<path d="M50.0587 63.9982V62.8903L52.6475 60.4933C52.8676 60.2802 53.0523 60.0884 53.2015 59.918C53.353 59.7475 53.4678 59.5806 53.5459 59.4173C53.624 59.2515 53.6631 59.0728 53.6631 58.881C53.6631 58.668 53.6146 58.4845 53.5175 58.3306C53.4204 58.1744 53.2879 58.0548 53.1198 57.972C52.9517 57.8867 52.7611 57.8441 52.548 57.8441C52.3255 57.8441 52.1314 57.8891 51.9657 57.9791C51.7999 58.069 51.6721 58.198 51.5821 58.3661C51.4922 58.5342 51.4472 58.7343 51.4472 58.9663H49.9877C49.9877 58.4904 50.0954 58.0773 50.3108 57.7269C50.5263 57.3765 50.8281 57.1055 51.2164 56.9137C51.6046 56.722 52.0521 56.6261 52.5587 56.6261C53.0795 56.6261 53.5329 56.7184 53.9188 56.9031C54.307 57.0854 54.6089 57.3387 54.8243 57.663C55.0398 57.9873 55.1475 58.359 55.1475 58.7781C55.1475 59.0527 55.093 59.3238 54.9841 59.5913C54.8776 59.8588 54.687 60.1559 54.4124 60.4826C54.1378 60.8069 53.7507 61.1964 53.2512 61.6509L52.1894 62.6914V62.7411H55.2434V63.9982H50.0587ZM59.5216 56.7255V63.9982H57.9839V58.185H57.9413L56.2758 59.2291V57.8654L58.0763 56.7255H59.5216Z" fill="#F4F9F9"/>
</svg>
