<svg width="278" height="278" viewBox="0 0 278 278" fill="none" xmlns="http://www.w3.org/2000/svg">
<path d="M139.665 1.98682C139.665 1.72266 139.717 1.46116 139.82 1.21761C139.922 0.974057 140.072 0.753355 140.26 0.568394C140.449 0.383433 140.673 0.237925 140.918 0.140394C141.164 0.0428624 141.426 -0.00473563 141.69 0.000371472C170.116 0.550595 197.689 9.8041 220.691 26.5131C243.694 43.2221 261.02 66.5829 270.332 93.4452C279.644 120.308 280.496 149.38 272.771 176.741C265.046 204.102 249.117 228.437 227.132 246.463C205.146 264.489 178.162 275.34 149.817 277.553C121.473 279.765 93.1312 273.233 68.6148 258.836C44.0985 244.44 24.5863 222.872 12.7095 197.041C0.832778 171.209 -2.83736 142.357 2.19406 114.375C2.24081 114.115 2.33894 113.867 2.48268 113.646C2.62642 113.424 2.81291 113.233 3.03124 113.085C3.24956 112.936 3.49533 112.832 3.7542 112.78C4.01306 112.727 4.27983 112.727 4.53887 112.778L75.6371 126.988C76.1402 127.089 76.5849 127.38 76.8783 127.801C77.1716 128.221 77.2908 128.739 77.2109 129.246C75.2393 141.77 77.1197 154.597 82.603 166.027C88.0862 177.458 96.9135 186.953 107.915 193.253C118.916 199.553 131.573 202.362 144.206 201.307C156.84 200.251 168.855 195.382 178.659 187.344C188.462 179.305 195.592 168.478 199.103 156.296C202.614 144.114 202.34 131.153 198.318 119.13C194.296 107.107 186.716 96.5903 176.581 88.9732C166.447 81.356 154.237 76.9981 141.57 76.4771C141.058 76.4561 140.573 76.2376 140.218 75.8675C139.863 75.4974 139.665 75.0043 139.665 74.4913V1.98682Z" fill="#629F9E"/>
<path d="M4.79983 111.474C4.54073 111.422 4.29456 111.319 4.07572 111.171C3.85687 111.023 3.66976 110.833 3.52531 110.612C3.38086 110.391 3.28198 110.143 3.23446 109.883C3.18694 109.623 3.19173 109.356 3.24855 109.098C9.9574 78.6144 26.7312 51.2759 50.8685 31.4854C75.0057 11.695 105.102 0.604609 136.309 0.000371472C136.573 -0.00473563 136.836 0.0428624 137.081 0.140394C137.327 0.237925 137.55 0.383433 137.739 0.568394C137.927 0.753355 138.077 0.974057 138.18 1.21761C138.282 1.46116 138.335 1.72266 138.335 1.98682V74.4913C138.335 75.0043 138.136 75.4974 137.781 75.8675C137.426 76.2376 136.941 76.4561 136.429 76.4771C122.86 77.0352 109.842 81.994 99.3404 90.6043C88.8389 99.2147 81.4249 111.009 78.2184 124.205C78.0972 124.703 77.7881 125.135 77.3557 125.411C76.9232 125.687 76.401 125.785 75.8981 125.684L4.79983 111.474Z" fill="#8ABEBB"/>
<path d="M186.778 205.727H187.829L190.301 211.764H190.386L192.858 205.727H193.909V213H193.085V207.474H193.014L190.741 213H189.946L187.673 207.474H187.602V213H186.778V205.727ZM201.271 213.114C200.668 213.114 200.166 212.966 199.766 212.67C199.365 212.371 199.119 211.984 199.027 211.509L199.183 208.795C199.361 208.384 199.618 208.06 199.954 207.826C200.292 207.592 200.703 207.474 201.186 207.474C201.47 207.474 201.751 207.522 202.028 207.616C202.305 207.711 202.557 207.865 202.784 208.078C203.011 208.289 203.192 208.568 203.327 208.916C203.462 209.264 203.53 209.693 203.53 210.202V210.557H199.325V209.832H202.677C202.677 209.525 202.616 209.25 202.493 209.009C202.372 208.767 202.199 208.576 201.974 208.437C201.752 208.297 201.489 208.227 201.186 208.227C200.852 208.227 200.563 208.31 200.32 208.476C200.078 208.639 199.892 208.853 199.762 209.119C199.632 209.381 199.567 209.662 199.567 209.96V210.443C199.567 210.855 199.639 211.204 199.783 211.491C199.928 211.775 200.128 211.991 200.383 212.141C200.639 212.287 200.935 212.361 201.271 212.361C201.491 212.361 201.69 212.33 201.868 212.268C202.048 212.205 202.203 212.11 202.333 211.984C202.463 211.857 202.564 211.698 202.635 211.509L203.445 211.736C203.359 212.01 203.216 212.252 203.015 212.46C202.814 212.666 202.565 212.827 202.269 212.943C201.973 213.057 201.641 213.114 201.271 213.114ZM197.294 212.375C197.625 212.375 197.905 212.31 198.132 212.18C198.362 212.049 198.534 211.881 198.65 211.675C198.769 211.469 198.828 211.253 198.828 211.026V210.259C198.793 210.301 198.714 210.34 198.594 210.376C198.475 210.409 198.338 210.438 198.182 210.464C198.028 210.488 197.878 210.509 197.731 210.528C197.586 210.545 197.469 210.559 197.379 210.571C197.161 210.599 196.958 210.646 196.768 210.71C196.581 210.771 196.43 210.865 196.314 210.99C196.2 211.113 196.143 211.281 196.143 211.494C196.143 211.786 196.251 212.006 196.467 212.155C196.684 212.302 196.96 212.375 197.294 212.375ZM197.166 213.128C196.82 213.128 196.507 213.063 196.225 212.933C195.943 212.8 195.72 212.609 195.554 212.361C195.388 212.11 195.305 211.807 195.305 211.452C195.305 211.139 195.367 210.886 195.49 210.692C195.615 210.495 195.78 210.341 195.984 210.23C196.19 210.116 196.418 210.032 196.669 209.978C196.92 209.921 197.171 209.877 197.422 209.847C197.753 209.804 198.022 209.771 198.228 209.747C198.436 209.723 198.588 209.684 198.682 209.63C198.78 209.576 198.828 209.482 198.828 209.349V209.321C198.828 208.973 198.732 208.702 198.54 208.508C198.349 208.311 198.061 208.213 197.677 208.213C197.28 208.213 196.966 208.301 196.736 208.476C196.509 208.651 196.349 208.838 196.257 209.037L195.462 208.753C195.604 208.421 195.793 208.163 196.03 207.979C196.269 207.792 196.529 207.661 196.811 207.588C197.095 207.512 197.374 207.474 197.649 207.474C197.796 207.474 197.962 207.489 198.146 207.517C198.331 207.543 198.517 207.596 198.704 207.677C198.891 207.757 199.061 207.877 199.215 208.036C199.369 208.194 199.486 208.405 199.567 208.668L199.24 212.006H199.169C199.098 212.209 198.964 212.396 198.768 212.567C198.574 212.737 198.337 212.873 198.057 212.975C197.78 213.077 197.483 213.128 197.166 213.128ZM205.647 209.719V213H204.809V207.545H205.619V208.398H205.69C205.818 208.121 206.012 207.898 206.272 207.73C206.533 207.56 206.869 207.474 207.281 207.474C207.65 207.474 207.973 207.55 208.25 207.702C208.527 207.851 208.743 208.078 208.896 208.384C209.05 208.687 209.127 209.07 209.127 209.534V213H208.289V209.591C208.289 209.162 208.178 208.829 207.955 208.589C207.733 208.348 207.427 208.227 207.039 208.227C206.772 208.227 206.533 208.285 206.322 208.401C206.113 208.517 205.949 208.687 205.828 208.909C205.707 209.132 205.647 209.402 205.647 209.719ZM212.718 213.114C212.264 213.114 211.862 212.999 211.514 212.769C211.166 212.537 210.894 212.21 210.698 211.789C210.501 211.365 210.403 210.865 210.403 210.287C210.403 209.714 210.501 209.217 210.698 208.795C210.894 208.374 211.168 208.049 211.518 207.819C211.868 207.589 212.273 207.474 212.733 207.474C213.088 207.474 213.368 207.534 213.574 207.652C213.782 207.768 213.941 207.901 214.05 208.05C214.161 208.196 214.248 208.317 214.309 208.412H214.38V205.727H215.218V213H214.409V212.162H214.309C214.248 212.261 214.16 212.387 214.046 212.538C213.933 212.687 213.771 212.821 213.56 212.94C213.349 213.056 213.069 213.114 212.718 213.114ZM212.832 212.361C213.168 212.361 213.452 212.273 213.684 212.098C213.916 211.92 214.093 211.675 214.213 211.363C214.334 211.048 214.394 210.685 214.394 210.273C214.394 209.866 214.335 209.509 214.217 209.204C214.099 208.896 213.923 208.657 213.691 208.487C213.459 208.314 213.173 208.227 212.832 208.227C212.477 208.227 212.181 208.318 211.944 208.501C211.71 208.681 211.533 208.926 211.415 209.236C211.299 209.544 211.241 209.889 211.241 210.273C211.241 210.661 211.3 211.014 211.419 211.331C211.539 211.646 211.717 211.897 211.951 212.084C212.188 212.268 212.482 212.361 212.832 212.361Z" fill="white"/>
<path d="M195.701 217.727V225H194.163V219.187H194.121L192.455 220.231V218.867L194.256 217.727H195.701ZM200.221 225.099C199.846 225.097 199.485 225.034 199.137 224.911C198.792 224.788 198.482 224.588 198.207 224.311C197.932 224.034 197.715 223.667 197.554 223.21C197.395 222.753 197.316 222.192 197.316 221.527C197.318 220.916 197.388 220.371 197.525 219.89C197.665 219.407 197.864 218.997 198.122 218.661C198.382 218.325 198.694 218.069 199.056 217.894C199.418 217.717 199.824 217.628 200.274 217.628C200.759 217.628 201.188 217.723 201.559 217.912C201.931 218.099 202.229 218.353 202.454 218.675C202.681 218.997 202.819 219.358 202.866 219.759H201.35C201.291 219.505 201.166 219.306 200.977 219.162C200.788 219.018 200.553 218.945 200.274 218.945C199.8 218.945 199.44 219.151 199.194 219.563C198.95 219.975 198.826 220.535 198.821 221.243H198.871C198.98 221.027 199.127 220.844 199.311 220.692C199.498 220.539 199.71 220.421 199.947 220.341C200.186 220.258 200.438 220.217 200.703 220.217C201.134 220.217 201.518 220.318 201.854 220.522C202.19 220.723 202.455 221 202.65 221.353C202.844 221.706 202.941 222.109 202.941 222.564C202.941 223.056 202.826 223.494 202.596 223.878C202.369 224.261 202.051 224.562 201.641 224.78C201.234 224.995 200.76 225.102 200.221 225.099ZM200.213 223.892C200.45 223.892 200.662 223.835 200.849 223.722C201.036 223.608 201.183 223.454 201.289 223.26C201.396 223.066 201.449 222.848 201.449 222.607C201.449 222.365 201.396 222.148 201.289 221.957C201.185 221.765 201.041 221.612 200.856 221.499C200.672 221.385 200.461 221.328 200.224 221.328C200.047 221.328 199.882 221.361 199.73 221.428C199.581 221.494 199.45 221.586 199.336 221.705C199.225 221.823 199.137 221.96 199.074 222.116C199.01 222.27 198.978 222.435 198.978 222.61C198.978 222.844 199.031 223.059 199.137 223.253C199.246 223.447 199.393 223.602 199.578 223.718C199.765 223.834 199.977 223.892 200.213 223.892ZM206.744 225.099C206.197 225.099 205.711 225.011 205.284 224.833C204.861 224.653 204.528 224.408 204.287 224.098C204.045 223.788 203.924 223.436 203.924 223.043C203.924 222.74 203.993 222.462 204.13 222.209C204.27 221.953 204.459 221.741 204.699 221.573C204.938 221.403 205.205 221.294 205.501 221.246V221.197C205.113 221.119 204.798 220.93 204.556 220.632C204.315 220.331 204.194 219.982 204.194 219.585C204.194 219.208 204.304 218.873 204.525 218.58C204.745 218.284 205.047 218.052 205.43 217.884C205.816 217.713 206.254 217.628 206.744 217.628C207.234 217.628 207.671 217.713 208.054 217.884C208.44 218.054 208.743 218.287 208.963 218.583C209.184 218.877 209.295 219.21 209.297 219.585C209.295 219.985 209.172 220.334 208.928 220.632C208.684 220.93 208.372 221.119 207.99 221.197V221.246C208.282 221.294 208.546 221.403 208.782 221.573C209.021 221.741 209.211 221.953 209.35 222.209C209.493 222.462 209.565 222.74 209.567 223.043C209.565 223.436 209.443 223.788 209.201 224.098C208.96 224.408 208.626 224.653 208.2 224.833C207.776 225.011 207.291 225.099 206.744 225.099ZM206.744 223.97C206.988 223.97 207.201 223.926 207.383 223.839C207.565 223.749 207.708 223.626 207.809 223.469C207.913 223.311 207.966 223.129 207.966 222.923C207.966 222.712 207.912 222.526 207.806 222.365C207.699 222.202 207.555 222.074 207.373 221.982C207.19 221.887 206.981 221.839 206.744 221.839C206.51 221.839 206.3 221.887 206.115 221.982C205.931 222.074 205.785 222.202 205.679 222.365C205.574 222.526 205.522 222.712 205.522 222.923C205.522 223.129 205.573 223.311 205.675 223.469C205.777 223.626 205.92 223.749 206.105 223.839C206.289 223.926 206.502 223.97 206.744 223.97ZM206.744 220.721C206.948 220.721 207.129 220.679 207.287 220.597C207.446 220.514 207.57 220.399 207.66 220.252C207.75 220.105 207.795 219.936 207.795 219.744C207.795 219.555 207.75 219.389 207.66 219.247C207.57 219.103 207.447 218.99 207.291 218.91C207.135 218.827 206.952 218.786 206.744 218.786C206.538 218.786 206.356 218.827 206.197 218.91C206.038 218.99 205.914 219.103 205.824 219.247C205.737 219.389 205.693 219.555 205.693 219.744C205.693 219.936 205.738 220.105 205.828 220.252C205.918 220.399 206.042 220.514 206.201 220.597C206.359 220.679 206.54 220.721 206.744 220.721Z" fill="white"/>
<path d="M192.531 237L195.546 231.034V230.984H192.034V229.727H197.137V231.002L194.119 237H192.531ZM200.758 237.099C200.211 237.099 199.724 237.011 199.298 236.833C198.874 236.653 198.542 236.408 198.3 236.098C198.059 235.788 197.938 235.436 197.938 235.043C197.938 234.74 198.007 234.462 198.144 234.209C198.284 233.953 198.473 233.741 198.712 233.573C198.951 233.403 199.219 233.294 199.515 233.246V233.197C199.126 233.119 198.812 232.93 198.57 232.632C198.329 232.331 198.208 231.982 198.208 231.585C198.208 231.208 198.318 230.873 198.538 230.58C198.758 230.284 199.06 230.052 199.444 229.884C199.83 229.713 200.268 229.628 200.758 229.628C201.248 229.628 201.684 229.713 202.068 229.884C202.454 230.054 202.757 230.287 202.977 230.583C203.197 230.877 203.309 231.21 203.311 231.585C203.309 231.985 203.185 232.334 202.942 232.632C202.698 232.93 202.385 233.119 202.004 233.197V233.246C202.295 233.294 202.559 233.403 202.796 233.573C203.035 233.741 203.224 233.953 203.364 234.209C203.506 234.462 203.578 234.74 203.581 235.043C203.578 235.436 203.456 235.788 203.215 236.098C202.974 236.408 202.64 236.653 202.214 236.833C201.79 237.011 201.305 237.099 200.758 237.099ZM200.758 235.97C201.001 235.97 201.215 235.926 201.397 235.839C201.579 235.749 201.721 235.626 201.823 235.469C201.927 235.311 201.979 235.129 201.979 234.923C201.979 234.712 201.926 234.526 201.819 234.365C201.713 234.202 201.568 234.074 201.386 233.982C201.204 233.887 200.994 233.839 200.758 233.839C200.523 233.839 200.314 233.887 200.129 233.982C199.944 234.074 199.799 234.202 199.692 234.365C199.588 234.526 199.536 234.712 199.536 234.923C199.536 235.129 199.587 235.311 199.689 235.469C199.791 235.626 199.934 235.749 200.118 235.839C200.303 235.926 200.516 235.97 200.758 235.97ZM200.758 232.721C200.961 232.721 201.142 232.679 201.301 232.597C201.46 232.514 201.584 232.399 201.674 232.252C201.764 232.105 201.809 231.936 201.809 231.744C201.809 231.555 201.764 231.389 201.674 231.247C201.584 231.103 201.461 230.99 201.305 230.91C201.148 230.827 200.966 230.786 200.758 230.786C200.552 230.786 200.369 230.827 200.211 230.91C200.052 230.99 199.928 231.103 199.838 231.247C199.75 231.389 199.706 231.555 199.706 231.744C199.706 231.936 199.751 232.105 199.841 232.252C199.931 232.399 200.056 232.514 200.214 232.597C200.373 232.679 200.554 232.721 200.758 232.721ZM208.637 235.636V235.253C208.637 234.962 208.698 234.694 208.821 234.45C208.947 234.204 209.128 234.008 209.365 233.861C209.604 233.712 209.895 233.637 210.238 233.637C210.586 233.637 210.879 233.71 211.115 233.857C211.355 234.004 211.534 234.201 211.655 234.447C211.778 234.691 211.84 234.959 211.84 235.253V235.636C211.84 235.928 211.778 236.196 211.655 236.442C211.532 236.686 211.351 236.882 211.112 237.028C210.873 237.178 210.582 237.252 210.238 237.252C209.89 237.252 209.598 237.178 209.361 237.028C209.124 236.882 208.944 236.686 208.821 236.442C208.698 236.196 208.637 235.928 208.637 235.636ZM209.67 235.253V235.636C209.67 235.804 209.71 235.963 209.791 236.112C209.874 236.261 210.023 236.336 210.238 236.336C210.454 236.336 210.6 236.263 210.679 236.116C210.759 235.969 210.799 235.809 210.799 235.636V235.253C210.799 235.08 210.761 234.919 210.686 234.77C210.61 234.621 210.461 234.546 210.238 234.546C210.025 234.546 209.877 234.621 209.794 234.77C209.712 234.919 209.67 235.08 209.67 235.253ZM204.904 231.474V231.091C204.904 230.797 204.967 230.529 205.093 230.285C205.218 230.039 205.399 229.842 205.636 229.695C205.875 229.549 206.164 229.475 206.502 229.475C206.853 229.475 207.146 229.549 207.383 229.695C207.62 229.842 207.8 230.039 207.923 230.285C208.046 230.529 208.108 230.797 208.108 231.091V231.474C208.108 231.768 208.045 232.037 207.919 232.281C207.796 232.524 207.615 232.72 207.376 232.866C207.139 233.011 206.848 233.083 206.502 233.083C206.157 233.083 205.864 233.01 205.625 232.863C205.389 232.714 205.209 232.518 205.086 232.277C204.965 232.033 204.904 231.766 204.904 231.474ZM205.945 231.091V231.474C205.945 231.647 205.985 231.807 206.066 231.954C206.149 232.101 206.294 232.174 206.502 232.174C206.72 232.174 206.868 232.101 206.946 231.954C207.027 231.807 207.067 231.647 207.067 231.474V231.091C207.067 230.918 207.029 230.757 206.953 230.608C206.878 230.459 206.727 230.384 206.502 230.384C206.292 230.384 206.146 230.46 206.066 230.612C205.985 230.763 205.945 230.923 205.945 231.091ZM205.373 237L210.373 229.727H211.304L206.304 237H205.373Z" fill="white"/>
<path d="M59.0487 55V47.7273H59.9293V51.3352H60.0146L63.2816 47.7273H64.4322L61.3782 51.0085L64.4322 55H63.3668L60.8384 51.6193L59.9293 52.642V55H59.0487ZM69.5183 49.5455L67.5012 55H66.649L64.6319 49.5455H65.541L67.0467 53.892H67.1035L68.6092 49.5455H69.5183ZM70.6245 55V49.5455H71.4625V55H70.6245ZM71.0506 48.6364C70.8873 48.6364 70.7464 48.5807 70.628 48.4695C70.512 48.3582 70.454 48.2244 70.454 48.0682C70.454 47.9119 70.512 47.7782 70.628 47.6669C70.7464 47.5556 70.8873 47.5 71.0506 47.5C71.214 47.5 71.3536 47.5556 71.4696 47.6669C71.588 47.7782 71.6472 47.9119 71.6472 48.0682C71.6472 48.2244 71.588 48.3582 71.4696 48.4695C71.3536 48.5807 71.214 48.6364 71.0506 48.6364ZM73.8356 51.7188V55H72.9975V49.5455H73.8072V50.3977H73.8782C74.006 50.1207 74.2002 49.8982 74.4606 49.7301C74.721 49.5597 75.0572 49.4744 75.4691 49.4744C75.8384 49.4744 76.1616 49.5502 76.4386 49.7017C76.7156 49.8509 76.931 50.0781 77.0849 50.3835C77.2388 50.6866 77.3157 51.0701 77.3157 51.5341V55H76.4776V51.5909C76.4776 51.1624 76.3664 50.8286 76.1438 50.5895C75.9213 50.348 75.6159 50.2273 75.2276 50.2273C74.9601 50.2273 74.721 50.2853 74.5103 50.4013C74.302 50.5173 74.1374 50.6866 74.0167 50.9091C73.896 51.1316 73.8356 51.4015 73.8356 51.7188ZM80.9068 55.1136C80.4522 55.1136 80.051 54.9988 79.7029 54.7692C79.3549 54.5372 79.0827 54.2105 78.8862 53.7891C78.6897 53.3653 78.5914 52.8646 78.5914 52.2869C78.5914 51.714 78.6897 51.2169 78.8862 50.7955C79.0827 50.3741 79.3561 50.0485 79.7065 49.8189C80.0569 49.5893 80.4617 49.4744 80.921 49.4744C81.2761 49.4744 81.5566 49.5336 81.7626 49.652C81.9709 49.768 82.1296 49.9006 82.2385 50.0497C82.3497 50.1965 82.4361 50.3172 82.4977 50.4119H82.5687V47.7273H83.4068V55H82.5971V54.1619H82.4977C82.4361 54.2614 82.3485 54.3868 82.2349 54.5384C82.1213 54.6875 81.9591 54.8213 81.7484 54.9396C81.5377 55.0556 81.2572 55.1136 80.9068 55.1136ZM81.0204 54.3608C81.3566 54.3608 81.6407 54.2732 81.8727 54.098C82.1047 53.9205 82.2811 53.6754 82.4018 53.3629C82.5225 53.0481 82.5829 52.6847 82.5829 52.2727C82.5829 51.8655 82.5237 51.5092 82.4054 51.2038C82.287 50.8961 82.1118 50.657 81.8798 50.4865C81.6478 50.3137 81.3613 50.2273 81.0204 50.2273C80.6653 50.2273 80.3694 50.3184 80.1326 50.5007C79.8983 50.6806 79.7219 50.9257 79.6035 51.2358C79.4875 51.5436 79.4295 51.8892 79.4295 52.2727C79.4295 52.661 79.4887 53.0137 79.6071 53.331C79.7278 53.6458 79.9054 53.8968 80.1397 54.0838C80.3765 54.2685 80.67 54.3608 81.0204 54.3608ZM87.345 55.1136C86.8194 55.1136 86.3661 54.9976 85.9849 54.7656C85.6061 54.5312 85.3137 54.2045 85.1078 53.7855C84.9042 53.3641 84.8024 52.8741 84.8024 52.3153C84.8024 51.7566 84.9042 51.2642 85.1078 50.8381C85.3137 50.4096 85.6002 50.0758 85.9672 49.8366C86.3365 49.5952 86.7673 49.4744 87.2598 49.4744C87.5439 49.4744 87.8244 49.5218 88.1014 49.6165C88.3784 49.7112 88.6305 49.8651 88.8578 50.0781C89.085 50.2888 89.2662 50.5682 89.4011 50.9162C89.536 51.2642 89.6035 51.6927 89.6035 52.2017V52.5568H85.399V51.8324H88.7512C88.7512 51.5246 88.6897 51.25 88.5666 51.0085C88.4458 50.767 88.273 50.5765 88.0481 50.4368C87.8256 50.2971 87.5628 50.2273 87.2598 50.2273C86.926 50.2273 86.6371 50.3101 86.3933 50.4759C86.1518 50.6392 85.966 50.8523 85.8358 51.1151C85.7056 51.3778 85.6404 51.6596 85.6404 51.9602V52.4432C85.6404 52.8551 85.7115 53.2043 85.8535 53.4908C85.9979 53.7749 86.198 53.9915 86.4537 54.1406C86.7093 54.2874 87.0065 54.3608 87.345 54.3608C87.5652 54.3608 87.764 54.33 87.9416 54.2685C88.1215 54.2045 88.2766 54.1098 88.4068 53.9844C88.537 53.8565 88.6376 53.6979 88.7086 53.5085L89.5183 53.7358C89.4331 54.0104 89.2898 54.2519 89.0886 54.4602C88.8874 54.6662 88.6388 54.8272 88.3429 54.9432C88.0469 55.0568 87.7143 55.1136 87.345 55.1136ZM90.8784 55V49.5455H91.688V50.3693H91.7449C91.8443 50.0994 92.0242 49.8804 92.2846 49.7124C92.545 49.5443 92.8386 49.4602 93.1653 49.4602C93.2269 49.4602 93.3038 49.4614 93.3961 49.4638C93.4885 49.4661 93.5583 49.4697 93.6056 49.4744V50.3267C93.5772 50.3196 93.5121 50.3089 93.4103 50.2947C93.3109 50.2782 93.2056 50.2699 93.0943 50.2699C92.8291 50.2699 92.5924 50.3255 92.3841 50.4368C92.1781 50.5457 92.0147 50.6972 91.894 50.8913C91.7756 51.0831 91.7164 51.3021 91.7164 51.5483V55H90.8784Z" fill="white"/>
<path d="M70.1171 65.7216V64.5107L73.1533 59.7273H74.1974V61.4034H73.5795L71.6654 64.4325V64.4893H75.98V65.7216H70.1171ZM73.6079 67V65.3523L73.6363 64.8161V59.7273H75.078V67H73.6079ZM77.2922 67L80.3071 61.0341V60.9844H76.795V59.7273H81.898V61.0021L78.8795 67H77.2922Z" fill="white"/>
<path d="M65.9938 79V77.892L68.5826 75.495C68.8027 75.282 68.9874 75.0902 69.1365 74.9197C69.2881 74.7493 69.4029 74.5824 69.481 74.419C69.5591 74.2533 69.5982 74.0746 69.5982 73.8828C69.5982 73.6697 69.5497 73.4863 69.4526 73.3324C69.3555 73.1761 69.223 73.0566 69.0549 72.9737C68.8868 72.8885 68.6962 72.8459 68.4831 72.8459C68.2606 72.8459 68.0665 72.8909 67.9007 72.9808C67.735 73.0708 67.6072 73.1998 67.5172 73.3679C67.4273 73.536 67.3823 73.736 67.3823 73.968H65.9228C65.9228 73.4922 66.0305 73.0791 66.2459 72.7287C66.4614 72.3783 66.7632 72.1072 67.1515 71.9155C67.5397 71.7237 67.9872 71.6278 68.4938 71.6278C69.0146 71.6278 69.468 71.7202 69.8539 71.9048C70.2421 72.0871 70.544 72.3404 70.7594 72.6648C70.9748 72.9891 71.0826 73.3608 71.0826 73.7798C71.0826 74.0545 71.0281 74.3255 70.9192 74.593C70.8127 74.8606 70.6221 75.1577 70.3475 75.4844C70.0729 75.8087 69.6858 76.1982 69.1863 76.6527L68.1245 77.6932V77.7429H71.1784V79H65.9938ZM72.2926 79V77.892L74.8814 75.495C75.1016 75.282 75.2862 75.0902 75.4354 74.9197C75.5869 74.7493 75.7017 74.5824 75.7798 74.419C75.858 74.2533 75.897 74.0746 75.897 73.8828C75.897 73.6697 75.8485 73.4863 75.7514 73.3324C75.6544 73.1761 75.5218 73.0566 75.3537 72.9737C75.1856 72.8885 74.995 72.8459 74.782 72.8459C74.5594 72.8459 74.3653 72.8909 74.1996 72.9808C74.0339 73.0708 73.906 73.1998 73.8161 73.3679C73.7261 73.536 73.6811 73.736 73.6811 73.968H72.2216C72.2216 73.4922 72.3293 73.0791 72.5447 72.7287C72.7602 72.3783 73.062 72.1072 73.4503 71.9155C73.8385 71.7237 74.286 71.6278 74.7926 71.6278C75.3134 71.6278 75.7668 71.7202 76.1527 71.9048C76.541 72.0871 76.8428 72.3404 77.0582 72.6648C77.2737 72.9891 77.3814 73.3608 77.3814 73.7798C77.3814 74.0545 77.3269 74.3255 77.218 74.593C77.1115 74.8606 76.9209 75.1577 76.6463 75.4844C76.3717 75.8087 75.9846 76.1982 75.4851 76.6527L74.4233 77.6932V77.7429H77.4773V79H72.2926ZM82.5723 77.6364V77.2528C82.5723 76.9616 82.6338 76.6941 82.7569 76.4503C82.8824 76.2041 83.0635 76.0076 83.3002 75.8608C83.5394 75.7116 83.8306 75.6371 84.1738 75.6371C84.5218 75.6371 84.8142 75.7105 85.051 75.8572C85.2901 76.004 85.47 76.2005 85.5907 76.4467C85.7138 76.6906 85.7754 76.9593 85.7754 77.2528V77.6364C85.7754 77.9276 85.7138 78.1963 85.5907 78.4425C85.4676 78.6863 85.2865 78.8816 85.0474 79.0284C84.8083 79.1776 84.5171 79.2521 84.1738 79.2521C83.8258 79.2521 83.5334 79.1776 83.2967 79.0284C83.06 78.8816 82.88 78.6863 82.7569 78.4425C82.6338 78.1963 82.5723 77.9276 82.5723 77.6364ZM83.6056 77.2528V77.6364C83.6056 77.8045 83.6459 77.9631 83.7264 78.1122C83.8092 78.2614 83.9584 78.3359 84.1738 78.3359C84.3893 78.3359 84.536 78.2625 84.6142 78.1158C84.6947 77.969 84.7349 77.8092 84.7349 77.6364V77.2528C84.7349 77.08 84.697 76.919 84.6213 76.7699C84.5455 76.6207 84.3964 76.5462 84.1738 76.5462C83.9608 76.5462 83.8128 76.6207 83.7299 76.7699C83.6471 76.919 83.6056 77.08 83.6056 77.2528ZM78.84 73.4744V73.0909C78.84 72.7973 78.9028 72.5286 79.0282 72.2848C79.1537 72.0386 79.3348 71.8421 79.5716 71.6953C79.8107 71.5485 80.0995 71.4751 80.438 71.4751C80.7884 71.4751 81.082 71.5485 81.3187 71.6953C81.5555 71.8421 81.7354 72.0386 81.8585 72.2848C81.9816 72.5286 82.0431 72.7973 82.0431 73.0909V73.4744C82.0431 73.768 81.9804 74.0367 81.8549 74.2805C81.7318 74.5244 81.5507 74.7197 81.3116 74.8665C81.0749 75.0109 80.7837 75.0831 80.438 75.0831C80.0924 75.0831 79.8 75.0097 79.5609 74.8629C79.3242 74.7138 79.1442 74.5185 79.0211 74.277C78.9004 74.0331 78.84 73.7656 78.84 73.4744ZM79.8805 73.0909V73.4744C79.8805 73.6473 79.9208 73.8071 80.0012 73.9538C80.0841 74.1006 80.2297 74.174 80.438 74.174C80.6558 74.174 80.8038 74.1006 80.8819 73.9538C80.9624 73.8071 81.0027 73.6473 81.0027 73.4744V73.0909C81.0027 72.9181 80.9648 72.7571 80.889 72.608C80.8133 72.4588 80.6629 72.3842 80.438 72.3842C80.2273 72.3842 80.0817 72.46 80.0012 72.6115C79.9208 72.763 79.8805 72.9228 79.8805 73.0909ZM79.3088 79L84.3088 71.7273H85.2392L80.2392 79H79.3088Z" fill="white"/>
</svg>
