<svg width="278" height="198" viewBox="0 0 278 198" fill="none" xmlns="http://www.w3.org/2000/svg">
<path d="M0 162.144C0 167.667 4.47715 172.144 10 172.144H31.8045C37.3274 172.144 41.8045 167.667 41.8045 162.144V83.2529C41.8045 77.73 37.3274 73.2529 31.8045 73.2529H9.99999C4.47714 73.2529 0 77.73 0 83.2529V162.144Z" fill="#629F9E"/>
<path d="M47.2391 162.144C47.2391 167.667 51.7162 172.144 57.2391 172.144H79.0436C84.5664 172.144 89.0436 167.667 89.0436 162.144V64.9397C89.0436 59.4169 84.5664 54.9397 79.0436 54.9397H57.2391C51.7162 54.9397 47.2391 59.4169 47.2391 64.9397V162.144Z" fill="#629F9E"/>
<path d="M94.4783 162.144C94.4783 167.667 98.9554 172.144 104.478 172.144H126.283C131.806 172.144 136.283 167.667 136.283 162.144V68.6023C136.283 63.0794 131.806 58.6023 126.283 58.6023H104.478C98.9554 58.6023 94.4783 63.0794 94.4783 68.6023V162.144Z" fill="#629F9E"/>
<path d="M141.717 162.144C141.717 167.667 146.194 172.144 151.717 172.144H173.522C179.045 172.144 183.522 167.667 183.522 162.144V9.99999C183.522 4.47715 179.045 0 173.522 0H151.717C146.194 0 141.717 4.47715 141.717 10V162.144Z" fill="#DABF41"/>
<path d="M188.956 162.144C188.956 167.667 193.433 172.144 198.956 172.144H220.761C226.284 172.144 230.761 167.667 230.761 162.144V75.9276C230.761 70.4048 226.284 65.9276 220.761 65.9276H198.956C193.433 65.9276 188.956 70.4048 188.956 75.9276V162.144Z" fill="#629F9E"/>
<path d="M236.196 162.144C236.196 167.667 240.673 172.144 246.196 172.144H268C273.523 172.144 278 167.667 278 162.144V42.9639C278 37.441 273.523 32.9639 268 32.9639H246.196C240.673 32.9639 236.196 37.441 236.196 42.9639V162.144Z" fill="#629F9E"/>
<path d="M15.4586 89V88.3097L18.0512 85.4716C18.3555 85.1392 18.606 84.8503 18.8029 84.6048C18.9998 84.3568 19.1455 84.1241 19.2401 83.9068C19.3373 83.6869 19.3859 83.4568 19.3859 83.2165C19.3859 82.9403 19.3194 82.7013 19.1864 82.4993C19.056 82.2973 18.8771 82.1413 18.6495 82.0314C18.4219 81.9214 18.1663 81.8665 17.8825 81.8665C17.5808 81.8665 17.3174 81.9291 17.0924 82.0544C16.87 82.1771 16.6974 82.3497 16.5746 82.5722C16.4545 82.7946 16.3944 83.0554 16.3944 83.3545H15.4893C15.4893 82.8943 15.5954 82.4903 15.8076 82.1426C16.0198 81.7949 16.3087 81.5239 16.6744 81.3295C17.0425 81.1352 17.4555 81.0381 17.9131 81.0381C18.3734 81.0381 18.7812 81.1352 19.1366 81.3295C19.492 81.5239 19.7707 81.7859 19.9727 82.1158C20.1746 82.4456 20.2756 82.8125 20.2756 83.2165C20.2756 83.5054 20.2232 83.7879 20.1184 84.0641C20.0161 84.3376 19.8371 84.6432 19.5815 84.9807C19.3283 85.3156 18.9768 85.7247 18.5268 86.208L16.7626 88.0949V88.1562H20.4137V89H15.4586ZM22.2431 89L25.7562 82.0506V81.9892H21.7062V81.1455H26.738V82.0352L23.2403 89H22.2431Z" fill="white"/>
<path d="M64.7592 71.1074C64.253 71.1074 63.8017 71.0205 63.4054 70.8466C63.0117 70.6727 62.6985 70.4311 62.4658 70.1217C62.2357 69.8098 62.1104 69.448 62.0899 69.0364H63.0564C63.0769 69.2895 63.1638 69.5081 63.3172 69.6922C63.4706 69.8737 63.6713 70.0143 63.9193 70.1141C64.1673 70.2138 64.4422 70.2636 64.7439 70.2636C65.0814 70.2636 65.3806 70.2048 65.6414 70.0872C65.9021 69.9696 66.1067 69.806 66.255 69.5963C66.4033 69.3866 66.4774 69.1437 66.4774 68.8676C66.4774 68.5787 66.4058 68.3243 66.2627 68.1044C66.1195 67.882 65.9098 67.7081 65.6337 67.5828C65.3575 67.4575 65.02 67.3949 64.6212 67.3949H63.9922V66.5511H64.6212C64.9331 66.5511 65.2067 66.4949 65.4419 66.3824C65.6797 66.2699 65.8651 66.1114 65.998 65.9068C66.1335 65.7023 66.2013 65.4619 66.2013 65.1858C66.2013 64.9199 66.1425 64.6885 66.0249 64.4916C65.9073 64.2947 65.7411 64.1413 65.5263 64.0314C65.3141 63.9214 65.0635 63.8665 64.7746 63.8665C64.5036 63.8665 64.2479 63.9163 64.0075 64.0161C63.7698 64.1132 63.5754 64.2551 63.4246 64.4418C63.2737 64.6259 63.1919 64.8483 63.1791 65.1091H62.2587C62.274 64.6974 62.398 64.3369 62.6307 64.0276C62.8634 63.7156 63.1676 63.4727 63.5435 63.2989C63.9219 63.125 64.3374 63.0381 64.7899 63.0381C65.2757 63.0381 65.6925 63.1365 66.0402 63.3334C66.3879 63.5277 66.6551 63.7847 66.8418 64.1043C67.0284 64.4239 67.1217 64.769 67.1217 65.1398C67.1217 65.5821 67.0054 65.9592 66.7727 66.2712C66.5426 66.5831 66.2294 66.7991 65.8331 66.9193V66.9807C66.3291 67.0625 66.7165 67.2734 66.9952 67.6135C67.2739 67.951 67.4132 68.369 67.4132 68.8676C67.4132 69.2946 67.2969 69.6781 67.0642 70.0182C66.8341 70.3557 66.5196 70.6216 66.1208 70.8159C65.7219 71.0102 65.2681 71.1074 64.7592 71.1074ZM68.9818 71V70.3097L71.5744 67.4716C71.8787 67.1392 72.1293 66.8503 72.3262 66.6048C72.523 66.3568 72.6688 66.1241 72.7634 65.9068C72.8605 65.6869 72.9091 65.4568 72.9091 65.2165C72.9091 64.9403 72.8426 64.7013 72.7097 64.4993C72.5793 64.2973 72.4003 64.1413 72.1727 64.0314C71.9452 63.9214 71.6895 63.8665 71.4057 63.8665C71.104 63.8665 70.8406 63.9291 70.6156 64.0544C70.3932 64.1771 70.2206 64.3497 70.0979 64.5722C69.9777 64.7946 69.9176 65.0554 69.9176 65.3545H69.0125C69.0125 64.8943 69.1186 64.4903 69.3308 64.1426C69.5431 63.7949 69.832 63.5239 70.1976 63.3295C70.5658 63.1352 70.9787 63.0381 71.4364 63.0381C71.8966 63.0381 72.3044 63.1352 72.6598 63.3295C73.0152 63.5239 73.2939 63.7859 73.4959 64.1158C73.6979 64.4456 73.7989 64.8125 73.7989 65.2165C73.7989 65.5054 73.7465 65.7879 73.6416 66.0641C73.5394 66.3376 73.3604 66.6432 73.1047 66.9807C72.8516 67.3156 72.5 67.7247 72.05 68.208L70.2858 70.0949V70.1562H73.9369V71H68.9818Z" fill="white"/>
<path d="M112.519 75.1074C112.012 75.1074 111.561 75.0205 111.165 74.8466C110.771 74.6727 110.458 74.4311 110.225 74.1217C109.995 73.8098 109.87 73.448 109.849 73.0364H110.816C110.836 73.2895 110.923 73.5081 111.077 73.6922C111.23 73.8737 111.431 74.0143 111.679 74.1141C111.927 74.2138 112.202 74.2636 112.503 74.2636C112.841 74.2636 113.14 74.2048 113.401 74.0872C113.662 73.9696 113.866 73.806 114.014 73.5963C114.163 73.3866 114.237 73.1437 114.237 72.8676C114.237 72.5787 114.165 72.3243 114.022 72.1044C113.879 71.882 113.669 71.7081 113.393 71.5828C113.117 71.4575 112.779 71.3949 112.381 71.3949H111.752V70.5511H112.381C112.692 70.5511 112.966 70.4949 113.201 70.3824C113.439 70.2699 113.624 70.1114 113.757 69.9068C113.893 69.7023 113.961 69.4619 113.961 69.1858C113.961 68.9199 113.902 68.6885 113.784 68.4916C113.667 68.2947 113.5 68.1413 113.286 68.0314C113.073 67.9214 112.823 67.8665 112.534 67.8665C112.263 67.8665 112.007 67.9163 111.767 68.0161C111.529 68.1132 111.335 68.2551 111.184 68.4418C111.033 68.6259 110.951 68.8483 110.938 69.1091H110.018C110.033 68.6974 110.157 68.3369 110.39 68.0276C110.623 67.7156 110.927 67.4727 111.303 67.2989C111.681 67.125 112.097 67.0381 112.549 67.0381C113.035 67.0381 113.452 67.1365 113.8 67.3334C114.147 67.5277 114.414 67.7847 114.601 68.1043C114.788 68.4239 114.881 68.769 114.881 69.1398C114.881 69.5821 114.765 69.9592 114.532 70.2712C114.302 70.5831 113.989 70.7991 113.592 70.9193V70.9807C114.088 71.0625 114.476 71.2734 114.755 71.6135C115.033 71.951 115.173 72.369 115.173 72.8676C115.173 73.2946 115.056 73.6781 114.824 74.0182C114.593 74.3557 114.279 74.6216 113.88 74.8159C113.481 75.0102 113.027 75.1074 112.519 75.1074ZM119.503 67.1455V75H118.551V68.1426H118.505L116.588 69.4159V68.4494L118.551 67.1455H119.503Z" fill="white"/>
<path d="M157.079 14.3892V13.6068L160.531 8.14545H161.099V9.35739H160.715L158.107 13.4841V13.5455H162.756V14.3892H157.079ZM160.777 16V14.1514V13.7871V8.14545H161.682V16H160.777ZM164.438 16L167.951 9.05057V8.9892H163.901V8.14545H168.933V9.03523L165.435 16H164.438Z" fill="white"/>
<path d="M203.674 82V81.3097L206.266 78.4716C206.571 78.1392 206.821 77.8503 207.018 77.6048C207.215 77.3568 207.361 77.1241 207.455 76.9068C207.553 76.6869 207.601 76.4568 207.601 76.2165C207.601 75.9403 207.535 75.7013 207.402 75.4993C207.271 75.2973 207.092 75.1413 206.865 75.0314C206.637 74.9214 206.381 74.8665 206.098 74.8665C205.796 74.8665 205.533 74.9291 205.308 75.0544C205.085 75.1771 204.913 75.3497 204.79 75.5722C204.67 75.7946 204.61 76.0554 204.61 76.3545H203.704C203.704 75.8943 203.811 75.4903 204.023 75.1426C204.235 74.7949 204.524 74.5239 204.89 74.3295C205.258 74.1352 205.671 74.0381 206.128 74.0381C206.589 74.0381 206.996 74.1352 207.352 74.3295C207.707 74.5239 207.986 74.7859 208.188 75.1158C208.39 75.4456 208.491 75.8125 208.491 76.2165C208.491 76.5054 208.438 76.7879 208.334 77.0641C208.231 77.3376 208.052 77.6432 207.797 77.9807C207.544 78.3156 207.192 78.7247 206.742 79.208L204.978 81.0949V81.1562H208.629V82H203.674ZM212.713 74.0381C213.036 74.0406 213.358 74.102 213.68 74.2222C214.002 74.3423 214.296 74.5418 214.562 74.8205C214.828 75.0966 215.041 75.4737 215.203 75.9518C215.364 76.43 215.444 77.0295 215.444 77.7506C215.444 78.4486 215.378 79.0686 215.245 79.6107C215.114 80.1501 214.925 80.6053 214.677 80.976C214.432 81.3467 214.132 81.628 213.78 81.8197C213.429 82.0115 213.033 82.1074 212.591 82.1074C212.151 82.1074 211.758 82.0205 211.413 81.8466C211.071 81.6702 210.789 81.426 210.57 81.1141C210.352 80.7996 210.213 80.4352 210.152 80.021H211.087C211.172 80.3815 211.339 80.6794 211.59 80.9146C211.843 81.1473 212.177 81.2636 212.591 81.2636C213.197 81.2636 213.675 80.999 214.025 80.4697C214.378 79.9405 214.554 79.1926 214.554 78.2261H214.493C214.35 78.4409 214.18 78.6263 213.983 78.7822C213.786 78.9382 213.567 79.0584 213.327 79.1428C213.087 79.2271 212.831 79.2693 212.56 79.2693C212.11 79.2693 211.697 79.1581 211.321 78.9357C210.948 78.7107 210.649 78.4026 210.424 78.0114C210.201 77.6176 210.09 77.1676 210.09 76.6614C210.09 76.1807 210.198 75.7409 210.412 75.342C210.63 74.9406 210.934 74.621 211.325 74.3832C211.719 74.1455 212.182 74.0304 212.713 74.0381ZM212.713 74.8818C212.391 74.8818 212.101 74.9624 211.843 75.1234C211.587 75.282 211.384 75.4967 211.233 75.7678C211.085 76.0362 211.011 76.3341 211.011 76.6614C211.011 76.9886 211.082 77.2865 211.225 77.555C211.371 77.8209 211.569 78.0331 211.82 78.1916C212.073 78.3476 212.361 78.4256 212.683 78.4256C212.926 78.4256 213.152 78.3783 213.362 78.2837C213.571 78.1865 213.754 78.0548 213.91 77.8886C214.069 77.7199 214.193 77.5294 214.282 77.3172C214.372 77.1024 214.416 76.8787 214.416 76.646C214.416 76.3392 214.342 76.0516 214.194 75.7831C214.048 75.5146 213.846 75.2973 213.588 75.1311C213.332 74.9649 213.041 74.8818 212.713 74.8818Z" fill="white"/>
<path d="M253.701 49.1074C253.195 49.1074 252.744 49.0205 252.347 48.8466C251.954 48.6727 251.64 48.4311 251.408 48.1217C251.178 47.8098 251.052 47.448 251.032 47.0364H251.998C252.019 47.2895 252.106 47.5081 252.259 47.6922C252.413 47.8737 252.613 48.0143 252.861 48.1141C253.109 48.2138 253.384 48.2636 253.686 48.2636C254.023 48.2636 254.323 48.2048 254.583 48.0872C254.844 47.9696 255.049 47.806 255.197 47.5963C255.345 47.3866 255.419 47.1437 255.419 46.8676C255.419 46.5787 255.348 46.3243 255.205 46.1044C255.061 45.882 254.852 45.7081 254.576 45.5828C254.3 45.4575 253.962 45.3949 253.563 45.3949H252.934V44.5511H253.563C253.875 44.5511 254.149 44.4949 254.384 44.3824C254.622 44.2699 254.807 44.1114 254.94 43.9068C255.076 43.7023 255.143 43.4619 255.143 43.1858C255.143 42.9199 255.084 42.6885 254.967 42.4916C254.849 42.2947 254.683 42.1413 254.468 42.0314C254.256 41.9214 254.005 41.8665 253.717 41.8665C253.446 41.8665 253.19 41.9163 252.95 42.0161C252.712 42.1132 252.517 42.2551 252.367 42.4418C252.216 42.6259 252.134 42.8483 252.121 43.1091H251.201C251.216 42.6974 251.34 42.3369 251.573 42.0276C251.805 41.7156 252.11 41.4727 252.485 41.2989C252.864 41.125 253.279 41.0381 253.732 41.0381C254.218 41.0381 254.634 41.1365 254.982 41.3334C255.33 41.5277 255.597 41.7847 255.784 42.1043C255.97 42.4239 256.064 42.769 256.064 43.1398C256.064 43.5821 255.947 43.9592 255.715 44.2712C255.485 44.5831 255.171 44.7991 254.775 44.9193V44.9807C255.271 45.0625 255.658 45.2734 255.937 45.6135C256.216 45.951 256.355 46.369 256.355 46.8676C256.355 47.2946 256.239 47.6781 256.006 48.0182C255.776 48.3557 255.462 48.6216 255.063 48.8159C254.664 49.0102 254.21 49.1074 253.701 49.1074ZM260.44 49.1074C259.913 49.1074 259.448 49.0141 259.044 48.8274C258.642 48.6382 258.329 48.3787 258.104 48.0489C257.879 47.7165 257.768 47.3381 257.77 46.9136C257.768 46.5812 257.833 46.2744 257.966 45.9932C258.099 45.7094 258.28 45.4729 258.511 45.2837C258.743 45.0919 259.003 44.9705 259.289 44.9193V44.8733C258.913 44.7761 258.614 44.5652 258.392 44.2405C258.169 43.9132 258.059 43.5412 258.062 43.1244C258.059 42.7256 258.16 42.3689 258.365 42.0544C258.569 41.7399 258.851 41.4919 259.209 41.3104C259.569 41.1288 259.979 41.0381 260.44 41.0381C260.895 41.0381 261.301 41.1288 261.659 41.3104C262.017 41.4919 262.299 41.7399 262.503 42.0544C262.71 42.3689 262.815 42.7256 262.818 43.1244C262.815 43.5412 262.701 43.9132 262.476 44.2405C262.254 44.5652 261.958 44.7761 261.59 44.8733V44.9193C261.874 44.9705 262.13 45.0919 262.357 45.2837C262.585 45.4729 262.766 45.7094 262.902 45.9932C263.037 46.2744 263.106 46.5812 263.109 46.9136C263.106 47.3381 262.991 47.7165 262.764 48.0489C262.539 48.3787 262.226 48.6382 261.824 48.8274C261.425 49.0141 260.964 49.1074 260.44 49.1074ZM260.44 48.2636C260.795 48.2636 261.102 48.2061 261.36 48.0911C261.618 47.976 261.818 47.8136 261.958 47.604C262.099 47.3943 262.171 47.1489 262.173 46.8676C262.171 46.571 262.094 46.3089 261.943 46.0814C261.792 45.8538 261.586 45.6749 261.326 45.5445C261.067 45.4141 260.772 45.3489 260.44 45.3489C260.105 45.3489 259.806 45.4141 259.542 45.5445C259.281 45.6749 259.076 45.8538 258.925 46.0814C258.777 46.3089 258.704 46.571 258.706 46.8676C258.704 47.1489 258.771 47.3943 258.909 47.604C259.05 47.8136 259.251 47.976 259.512 48.0911C259.772 48.2061 260.082 48.2636 260.44 48.2636ZM260.44 44.5358C260.721 44.5358 260.97 44.4795 261.188 44.367C261.407 44.2545 261.58 44.0973 261.705 43.8953C261.831 43.6933 261.895 43.4568 261.897 43.1858C261.895 42.9199 261.832 42.6885 261.709 42.4916C261.586 42.2922 261.416 42.1388 261.199 42.0314C260.982 41.9214 260.729 41.8665 260.44 41.8665C260.146 41.8665 259.889 41.9214 259.669 42.0314C259.449 42.1388 259.279 42.2922 259.159 42.4916C259.039 42.6885 258.98 42.9199 258.982 43.1858C258.98 43.4568 259.04 43.6933 259.163 43.8953C259.288 44.0973 259.46 44.2545 259.68 44.367C259.9 44.4795 260.153 44.5358 260.44 44.5358Z" fill="white"/>
<path d="M14.8008 181.08C14.3728 181.08 14.0082 180.963 13.707 180.73C13.4059 180.495 13.1758 180.155 13.0167 179.71C12.8576 179.263 12.7781 178.723 12.7781 178.091C12.7781 177.462 12.8576 176.925 13.0167 176.48C13.1777 176.033 13.4087 175.692 13.7099 175.457C14.0129 175.221 14.3765 175.102 14.8008 175.102C15.225 175.102 15.5877 175.221 15.8888 175.457C16.1919 175.692 16.4229 176.033 16.582 176.48C16.743 176.925 16.8235 177.462 16.8235 178.091C16.8235 178.723 16.744 179.263 16.5849 179.71C16.4258 180.155 16.1957 180.495 15.8945 180.73C15.5934 180.963 15.2288 181.08 14.8008 181.08ZM14.8008 180.455C15.225 180.455 15.5546 180.25 15.7894 179.841C16.0243 179.432 16.1417 178.848 16.1417 178.091C16.1417 177.587 16.0877 177.158 15.9798 176.804C15.8737 176.45 15.7203 176.18 15.5195 175.994C15.3207 175.809 15.0811 175.716 14.8008 175.716C14.3803 175.716 14.0517 175.923 13.815 176.338C13.5782 176.751 13.4599 177.335 13.4599 178.091C13.4599 178.595 13.5129 179.023 13.619 179.375C13.725 179.727 13.8775 179.995 14.0763 180.179C14.2771 180.363 14.5186 180.455 14.8008 180.455ZM20.4144 177.778V178.403H17.869V177.778H20.4144ZM23.6282 175.182V181H22.9237V175.92H22.8896L21.4691 176.864V176.148L22.9237 175.182H23.6282ZM27.1992 181.08C26.7712 181.08 26.4066 180.963 26.1055 180.73C25.8043 180.495 25.5742 180.155 25.4151 179.71C25.256 179.263 25.1765 178.723 25.1765 178.091C25.1765 177.462 25.256 176.925 25.4151 176.48C25.5761 176.033 25.8072 175.692 26.1083 175.457C26.4113 175.221 26.775 175.102 27.1992 175.102C27.6235 175.102 27.9862 175.221 28.2873 175.457C28.5903 175.692 28.8214 176.033 28.9805 176.48C29.1415 176.925 29.2219 177.462 29.2219 178.091C29.2219 178.723 29.1424 179.263 28.9833 179.71C28.8242 180.155 28.5941 180.495 28.293 180.73C27.9918 180.963 27.6272 181.08 27.1992 181.08ZM27.1992 180.455C27.6235 180.455 27.953 180.25 28.1879 179.841C28.4227 179.432 28.5401 178.848 28.5401 178.091C28.5401 177.587 28.4862 177.158 28.3782 176.804C28.2721 176.45 28.1187 176.18 27.918 175.994C27.7191 175.809 27.4795 175.716 27.1992 175.716C26.7788 175.716 26.4502 175.923 26.2134 176.338C25.9767 176.751 25.8583 177.335 25.8583 178.091C25.8583 178.595 25.9113 179.023 26.0174 179.375C26.1235 179.727 26.2759 179.995 26.4748 180.179C26.6755 180.363 26.917 180.455 27.1992 180.455Z" fill="#989898"/>
<path d="M60.6634 175.182V181H59.9588V175.92H59.9247L58.5043 176.864V176.148L59.9588 175.182H60.6634ZM64.3821 175.182V181H63.6776V175.92H63.6435L62.223 176.864V176.148L63.6776 175.182H64.3821ZM68.5668 177.778V178.403H66.0213V177.778H68.5668ZM71.7805 175.182V181H71.076V175.92H71.0419L69.6214 176.864V176.148L71.076 175.182H71.7805ZM73.3175 179.807V179.227L75.8743 175.182H76.2947V176.08H76.0107L74.0788 179.136V179.182H77.522V179.807H73.3175ZM76.0561 181V179.631V179.361V175.182H76.7266V181H76.0561Z" fill="#989898"/>
<path d="M107.37 175.182V181H106.666V175.92H106.632L105.211 176.864V176.148L106.666 175.182H107.37ZM110.862 181.08C110.529 181.08 110.228 181.013 109.961 180.881C109.694 180.748 109.48 180.566 109.319 180.335C109.158 180.104 109.07 179.841 109.055 179.545H109.737C109.763 179.809 109.883 180.027 110.095 180.199C110.309 180.369 110.565 180.455 110.862 180.455C111.1 180.455 111.313 180.399 111.498 180.287C111.686 180.175 111.833 180.022 111.939 179.827C112.047 179.63 112.1 179.407 112.1 179.159C112.1 178.905 112.045 178.679 111.933 178.48C111.823 178.279 111.672 178.121 111.478 178.006C111.285 177.89 111.065 177.831 110.816 177.83C110.638 177.828 110.456 177.855 110.268 177.912C110.081 177.967 109.926 178.038 109.805 178.125L109.146 178.045L109.498 175.182H112.521V175.807H110.089L109.885 177.523H109.919C110.038 177.428 110.188 177.349 110.368 177.287C110.547 177.224 110.735 177.193 110.93 177.193C111.286 177.193 111.603 177.278 111.882 177.449C112.162 177.617 112.382 177.848 112.541 178.142C112.702 178.436 112.782 178.771 112.782 179.148C112.782 179.519 112.699 179.85 112.532 180.142C112.368 180.432 112.14 180.661 111.85 180.83C111.561 180.996 111.231 181.08 110.862 181.08ZM116.422 177.778V178.403H113.877V177.778H116.422ZM119.636 175.182V181H118.931V175.92H118.897L117.477 176.864V176.148L118.931 175.182H119.636ZM121.491 181L124.093 175.852V175.807H121.093V175.182H124.821V175.841L122.23 181H121.491Z" fill="#989898"/>
<path d="M154.202 175.182V181H153.498V175.92H153.464L152.043 176.864V176.148L153.498 175.182H154.202ZM157.739 181.08C157.349 181.08 157.004 181.01 156.705 180.872C156.408 180.732 156.176 180.54 156.009 180.295C155.843 180.049 155.76 179.769 155.762 179.455C155.76 179.208 155.808 178.981 155.907 178.773C156.005 178.562 156.14 178.387 156.31 178.247C156.483 178.105 156.675 178.015 156.887 177.977V177.943C156.609 177.871 156.387 177.715 156.222 177.474C156.058 177.232 155.976 176.956 155.978 176.648C155.976 176.352 156.051 176.088 156.202 175.855C156.354 175.622 156.562 175.438 156.827 175.304C157.094 175.17 157.398 175.102 157.739 175.102C158.076 175.102 158.378 175.17 158.643 175.304C158.908 175.438 159.116 175.622 159.268 175.855C159.421 176.088 159.499 176.352 159.501 176.648C159.499 176.956 159.415 177.232 159.248 177.474C159.083 177.715 158.864 177.871 158.592 177.943V177.977C158.802 178.015 158.991 178.105 159.16 178.247C159.328 178.387 159.463 178.562 159.563 178.773C159.664 178.981 159.715 179.208 159.717 179.455C159.715 179.769 159.629 180.049 159.461 180.295C159.294 180.54 159.062 180.732 158.765 180.872C158.469 181.01 158.128 181.08 157.739 181.08ZM157.739 180.455C158.003 180.455 158.23 180.412 158.421 180.327C158.612 180.241 158.76 180.121 158.864 179.966C158.969 179.811 159.022 179.629 159.023 179.42C159.022 179.201 158.965 179.007 158.853 178.838C158.741 178.67 158.589 178.537 158.396 178.44C158.204 178.344 157.986 178.295 157.739 178.295C157.491 178.295 157.27 178.344 157.075 178.44C156.881 178.537 156.729 178.67 156.617 178.838C156.507 179.007 156.453 179.201 156.455 179.42C156.453 179.629 156.504 179.811 156.606 179.966C156.71 180.121 156.859 180.241 157.052 180.327C157.245 180.412 157.474 180.455 157.739 180.455ZM157.739 177.693C157.948 177.693 158.132 177.652 158.293 177.568C158.456 177.485 158.584 177.368 158.677 177.219C158.77 177.069 158.817 176.894 158.819 176.693C158.817 176.496 158.771 176.325 158.68 176.179C158.589 176.031 158.463 175.918 158.302 175.838C158.141 175.757 157.953 175.716 157.739 175.716C157.522 175.716 157.331 175.757 157.168 175.838C157.005 175.918 156.879 176.031 156.79 176.179C156.701 176.325 156.658 176.496 156.66 176.693C156.658 176.894 156.702 177.069 156.793 177.219C156.886 177.368 157.014 177.485 157.177 177.568C157.34 177.652 157.527 177.693 157.739 177.693ZM163.317 177.778V178.403H160.771V177.778H163.317ZM164.212 181V180.489L166.132 178.386C166.357 178.14 166.543 177.926 166.689 177.744C166.835 177.561 166.943 177.388 167.013 177.227C167.085 177.064 167.121 176.894 167.121 176.716C167.121 176.511 167.071 176.334 166.973 176.185C166.876 176.035 166.744 175.92 166.575 175.838C166.407 175.757 166.217 175.716 166.007 175.716C165.784 175.716 165.589 175.762 165.422 175.855C165.257 175.946 165.129 176.074 165.038 176.239C164.949 176.403 164.905 176.597 164.905 176.818H164.234C164.234 176.477 164.313 176.178 164.47 175.92C164.627 175.663 164.841 175.462 165.112 175.318C165.385 175.174 165.691 175.102 166.03 175.102C166.371 175.102 166.673 175.174 166.936 175.318C167.199 175.462 167.406 175.656 167.555 175.901C167.705 176.145 167.78 176.417 167.78 176.716C167.78 176.93 167.741 177.139 167.663 177.344C167.588 177.546 167.455 177.773 167.266 178.023C167.078 178.271 166.818 178.574 166.484 178.932L165.178 180.33V180.375H167.882V181H164.212ZM170.987 181.08C170.749 181.076 170.51 181.03 170.271 180.943C170.033 180.856 169.815 180.709 169.618 180.503C169.421 180.295 169.263 180.013 169.143 179.659C169.024 179.303 168.964 178.856 168.964 178.318C168.964 177.803 169.013 177.347 169.109 176.949C169.206 176.549 169.346 176.213 169.53 175.94C169.714 175.666 169.935 175.457 170.195 175.315C170.456 175.173 170.75 175.102 171.078 175.102C171.404 175.102 171.694 175.168 171.947 175.298C172.203 175.427 172.411 175.607 172.572 175.838C172.733 176.069 172.838 176.335 172.885 176.636H172.192C172.127 176.375 172.002 176.158 171.817 175.986C171.631 175.813 171.385 175.727 171.078 175.727C170.627 175.727 170.272 175.923 170.013 176.315C169.755 176.707 169.625 177.258 169.624 177.966H169.669C169.775 177.805 169.901 177.668 170.047 177.554C170.195 177.438 170.357 177.349 170.536 177.287C170.714 177.224 170.902 177.193 171.101 177.193C171.434 177.193 171.739 177.277 172.016 177.443C172.292 177.608 172.514 177.836 172.68 178.128C172.847 178.418 172.93 178.75 172.93 179.125C172.93 179.485 172.85 179.814 172.689 180.114C172.528 180.411 172.302 180.648 172.01 180.824C171.72 180.998 171.379 181.083 170.987 181.08ZM170.987 180.455C171.226 180.455 171.44 180.395 171.629 180.276C171.821 180.156 171.971 179.996 172.081 179.795C172.193 179.595 172.249 179.371 172.249 179.125C172.249 178.884 172.195 178.666 172.087 178.469C171.981 178.27 171.834 178.112 171.646 177.994C171.461 177.877 171.249 177.818 171.01 177.818C170.83 177.818 170.662 177.854 170.507 177.926C170.352 177.996 170.215 178.093 170.098 178.216C169.982 178.339 169.892 178.48 169.825 178.639C169.759 178.796 169.726 178.962 169.726 179.136C169.726 179.367 169.78 179.583 169.888 179.784C169.998 179.985 170.147 180.147 170.337 180.27C170.528 180.393 170.745 180.455 170.987 180.455Z" fill="#989898"/>
<path d="M198.411 181V180.489L200.331 178.386C200.557 178.14 200.742 177.926 200.888 177.744C201.034 177.561 201.142 177.388 201.212 177.227C201.284 177.064 201.32 176.894 201.32 176.716C201.32 176.511 201.271 176.334 201.172 176.185C201.076 176.035 200.943 175.92 200.775 175.838C200.606 175.757 200.417 175.716 200.206 175.716C199.983 175.716 199.788 175.762 199.621 175.855C199.456 175.946 199.328 176.074 199.238 176.239C199.149 176.403 199.104 176.597 199.104 176.818H198.434C198.434 176.477 198.512 176.178 198.669 175.92C198.827 175.663 199.041 175.462 199.311 175.318C199.584 175.174 199.89 175.102 200.229 175.102C200.57 175.102 200.872 175.174 201.135 175.318C201.399 175.462 201.605 175.656 201.755 175.901C201.904 176.145 201.979 176.417 201.979 176.716C201.979 176.93 201.94 177.139 201.863 177.344C201.787 177.546 201.654 177.773 201.465 178.023C201.277 178.271 201.017 178.574 200.684 178.932L199.377 180.33V180.375H202.081V181H198.411ZM205.186 181.08C204.948 181.076 204.709 181.03 204.471 180.943C204.232 180.856 204.014 180.709 203.817 180.503C203.62 180.295 203.462 180.013 203.343 179.659C203.223 179.303 203.164 178.856 203.164 178.318C203.164 177.803 203.212 177.347 203.309 176.949C203.405 176.549 203.545 176.213 203.729 175.94C203.913 175.666 204.134 175.457 204.394 175.315C204.655 175.173 204.95 175.102 205.277 175.102C205.603 175.102 205.893 175.168 206.147 175.298C206.402 175.427 206.611 175.607 206.772 175.838C206.933 176.069 207.037 176.335 207.084 176.636H206.391C206.327 176.375 206.202 176.158 206.016 175.986C205.83 175.813 205.584 175.727 205.277 175.727C204.827 175.727 204.471 175.923 204.212 176.315C203.954 176.707 203.825 177.258 203.823 177.966H203.868C203.974 177.805 204.1 177.668 204.246 177.554C204.394 177.438 204.557 177.349 204.735 177.287C204.913 177.224 205.101 177.193 205.3 177.193C205.633 177.193 205.938 177.277 206.215 177.443C206.491 177.608 206.713 177.836 206.88 178.128C207.046 178.418 207.13 178.75 207.13 179.125C207.13 179.485 207.049 179.814 206.888 180.114C206.727 180.411 206.501 180.648 206.209 180.824C205.919 180.998 205.578 181.083 205.186 181.08ZM205.186 180.455C205.425 180.455 205.639 180.395 205.828 180.276C206.02 180.156 206.17 179.996 206.28 179.795C206.392 179.595 206.448 179.371 206.448 179.125C206.448 178.884 206.394 178.666 206.286 178.469C206.18 178.27 206.033 178.112 205.846 177.994C205.66 177.877 205.448 177.818 205.209 177.818C205.029 177.818 204.862 177.854 204.706 177.926C204.551 177.996 204.415 178.093 204.297 178.216C204.182 178.339 204.091 178.48 204.025 178.639C203.958 178.796 203.925 178.962 203.925 179.136C203.925 179.367 203.979 179.583 204.087 179.784C204.197 179.985 204.346 180.147 204.536 180.27C204.727 180.393 204.944 180.455 205.186 180.455ZM210.758 177.778V178.403H208.213V177.778H210.758ZM213.799 181.08C213.424 181.08 213.089 181.015 212.796 180.886C212.504 180.758 212.272 180.579 212.1 180.349C211.929 180.118 211.837 179.85 211.821 179.545H212.537C212.552 179.733 212.617 179.895 212.73 180.031C212.844 180.166 212.993 180.27 213.176 180.344C213.36 180.418 213.564 180.455 213.787 180.455C214.037 180.455 214.259 180.411 214.452 180.324C214.645 180.237 214.797 180.116 214.907 179.96C215.016 179.805 215.071 179.625 215.071 179.42C215.071 179.206 215.018 179.018 214.912 178.855C214.806 178.69 214.651 178.562 214.446 178.469C214.242 178.376 213.992 178.33 213.696 178.33H213.23V177.705H213.696C213.927 177.705 214.13 177.663 214.304 177.58C214.48 177.496 214.618 177.379 214.716 177.227C214.817 177.076 214.867 176.898 214.867 176.693C214.867 176.496 214.823 176.325 214.736 176.179C214.649 176.033 214.526 175.92 214.367 175.838C214.21 175.757 214.024 175.716 213.81 175.716C213.609 175.716 213.42 175.753 213.242 175.827C213.066 175.899 212.922 176.004 212.81 176.142C212.698 176.278 212.638 176.443 212.628 176.636H211.946C211.958 176.331 212.05 176.064 212.222 175.835C212.394 175.604 212.62 175.424 212.898 175.295C213.178 175.167 213.486 175.102 213.821 175.102C214.181 175.102 214.49 175.175 214.748 175.321C215.005 175.465 215.203 175.655 215.341 175.892C215.48 176.129 215.549 176.384 215.549 176.659C215.549 176.987 215.462 177.266 215.29 177.497C215.12 177.728 214.888 177.888 214.594 177.977V178.023C214.962 178.083 215.248 178.24 215.455 178.491C215.661 178.741 215.765 179.051 215.765 179.42C215.765 179.737 215.678 180.021 215.506 180.273C215.336 180.523 215.103 180.72 214.807 180.864C214.512 181.008 214.176 181.08 213.799 181.08ZM218.745 181.08C218.411 181.08 218.111 181.013 217.844 180.881C217.577 180.748 217.363 180.566 217.202 180.335C217.041 180.104 216.953 179.841 216.938 179.545H217.62C217.646 179.809 217.766 180.027 217.978 180.199C218.192 180.369 218.447 180.455 218.745 180.455C218.983 180.455 219.195 180.399 219.381 180.287C219.569 180.175 219.715 180.022 219.821 179.827C219.929 179.63 219.983 179.407 219.983 179.159C219.983 178.905 219.927 178.679 219.816 178.48C219.706 178.279 219.554 178.121 219.361 178.006C219.168 177.89 218.947 177.831 218.699 177.83C218.521 177.828 218.338 177.855 218.151 177.912C217.963 177.967 217.809 178.038 217.688 178.125L217.029 178.045L217.381 175.182H220.404V175.807H217.972L217.767 177.523H217.801C217.921 177.428 218.07 177.349 218.25 177.287C218.43 177.224 218.618 177.193 218.813 177.193C219.169 177.193 219.486 177.278 219.765 177.449C220.045 177.617 220.265 177.848 220.424 178.142C220.585 178.436 220.665 178.771 220.665 179.148C220.665 179.519 220.582 179.85 220.415 180.142C220.25 180.432 220.023 180.661 219.733 180.83C219.444 180.996 219.114 181.08 218.745 181.08Z" fill="#989898"/>
<path d="M251.388 181.08C251.013 181.08 250.679 181.015 250.386 180.886C250.094 180.758 249.862 180.579 249.69 180.349C249.519 180.118 249.426 179.85 249.411 179.545H250.127C250.142 179.733 250.207 179.895 250.32 180.031C250.434 180.166 250.583 180.27 250.766 180.344C250.95 180.418 251.154 180.455 251.377 180.455C251.627 180.455 251.849 180.411 252.042 180.324C252.235 180.237 252.387 180.116 252.496 179.96C252.606 179.805 252.661 179.625 252.661 179.42C252.661 179.206 252.608 179.018 252.502 178.855C252.396 178.69 252.241 178.562 252.036 178.469C251.832 178.376 251.582 178.33 251.286 178.33H250.82V177.705H251.286C251.517 177.705 251.72 177.663 251.894 177.58C252.07 177.496 252.208 177.379 252.306 177.227C252.406 177.076 252.457 176.898 252.457 176.693C252.457 176.496 252.413 176.325 252.326 176.179C252.239 176.033 252.116 175.92 251.957 175.838C251.799 175.757 251.614 175.716 251.4 175.716C251.199 175.716 251.01 175.753 250.832 175.827C250.656 175.899 250.512 176.004 250.4 176.142C250.288 176.278 250.228 176.443 250.218 176.636H249.536C249.548 176.331 249.639 176.064 249.812 175.835C249.984 175.604 250.21 175.424 250.488 175.295C250.768 175.167 251.076 175.102 251.411 175.102C251.771 175.102 252.08 175.175 252.337 175.321C252.595 175.465 252.793 175.655 252.931 175.892C253.069 176.129 253.138 176.384 253.138 176.659C253.138 176.987 253.052 177.266 252.88 177.497C252.71 177.728 252.478 177.888 252.184 177.977V178.023C252.551 178.083 252.838 178.24 253.045 178.491C253.251 178.741 253.354 179.051 253.354 179.42C253.354 179.737 253.268 180.021 253.096 180.273C252.925 180.523 252.692 180.72 252.397 180.864C252.102 181.008 251.765 181.08 251.388 181.08ZM256.448 181.08C256.21 181.076 255.971 181.03 255.732 180.943C255.494 180.856 255.276 180.709 255.079 180.503C254.882 180.295 254.724 180.013 254.604 179.659C254.485 179.303 254.425 178.856 254.425 178.318C254.425 177.803 254.474 177.347 254.57 176.949C254.667 176.549 254.807 176.213 254.991 175.94C255.174 175.666 255.396 175.457 255.656 175.315C255.917 175.173 256.211 175.102 256.539 175.102C256.865 175.102 257.155 175.168 257.408 175.298C257.664 175.427 257.872 175.607 258.033 175.838C258.194 176.069 258.299 176.335 258.346 176.636H257.653C257.588 176.375 257.463 176.158 257.278 175.986C257.092 175.813 256.846 175.727 256.539 175.727C256.088 175.727 255.733 175.923 255.474 176.315C255.216 176.707 255.086 177.258 255.085 177.966H255.13C255.236 177.805 255.362 177.668 255.508 177.554C255.656 177.438 255.818 177.349 255.996 177.287C256.174 177.224 256.363 177.193 256.562 177.193C256.895 177.193 257.2 177.277 257.477 177.443C257.753 177.608 257.975 177.836 258.141 178.128C258.308 178.418 258.391 178.75 258.391 179.125C258.391 179.485 258.311 179.814 258.15 180.114C257.989 180.411 257.763 180.648 257.471 180.824C257.181 180.998 256.84 181.083 256.448 181.08ZM256.448 180.455C256.687 180.455 256.901 180.395 257.09 180.276C257.281 180.156 257.432 179.996 257.542 179.795C257.654 179.595 257.71 179.371 257.71 179.125C257.71 178.884 257.656 178.666 257.548 178.469C257.442 178.27 257.295 178.112 257.107 177.994C256.922 177.877 256.71 177.818 256.471 177.818C256.291 177.818 256.123 177.854 255.968 177.926C255.813 177.996 255.676 178.093 255.559 178.216C255.443 178.339 255.353 178.48 255.286 178.639C255.22 178.796 255.187 178.962 255.187 179.136C255.187 179.367 255.241 179.583 255.349 179.784C255.459 179.985 255.608 180.147 255.798 180.27C255.989 180.393 256.206 180.455 256.448 180.455ZM261.224 179.977V176.227H261.861V179.977H261.224ZM259.668 178.42V177.784H263.418V178.42H259.668Z" fill="#989898"/>
<path d="M111.378 196H110.547L112.95 189.455H113.769L116.172 196H115.341L113.385 190.49H113.334L111.378 196ZM111.685 193.443H115.034V194.146H111.685V193.443ZM117.844 189.455V196H117.089V189.455H117.844ZM121.079 196.102C120.67 196.102 120.308 195.999 119.995 195.792C119.682 195.583 119.437 195.289 119.26 194.91C119.083 194.529 118.995 194.078 118.995 193.558C118.995 193.043 119.083 192.595 119.26 192.216C119.437 191.837 119.683 191.544 119.998 191.337C120.314 191.13 120.678 191.027 121.091 191.027C121.411 191.027 121.664 191.08 121.849 191.187C122.036 191.291 122.179 191.411 122.277 191.545C122.377 191.677 122.455 191.786 122.511 191.871H122.574V189.455H123.329V196H122.6V195.246H122.511C122.455 195.335 122.376 195.448 122.274 195.585C122.172 195.719 122.026 195.839 121.836 195.946C121.647 196.05 121.394 196.102 121.079 196.102ZM121.181 195.425C121.484 195.425 121.739 195.346 121.948 195.188C122.157 195.028 122.316 194.808 122.424 194.527C122.533 194.243 122.587 193.916 122.587 193.545C122.587 193.179 122.534 192.858 122.427 192.583C122.321 192.306 122.163 192.091 121.954 191.938C121.746 191.782 121.488 191.705 121.181 191.705C120.861 191.705 120.595 191.787 120.382 191.951C120.171 192.113 120.012 192.333 119.906 192.612C119.801 192.889 119.749 193.2 119.749 193.545C119.749 193.895 119.802 194.212 119.909 194.498C120.018 194.781 120.177 195.007 120.388 195.175C120.601 195.342 120.866 195.425 121.181 195.425ZM126.873 196.102C126.4 196.102 125.992 195.998 125.649 195.789C125.308 195.578 125.045 195.284 124.86 194.907C124.676 194.528 124.585 194.087 124.585 193.584C124.585 193.081 124.676 192.638 124.86 192.254C125.045 191.869 125.303 191.568 125.633 191.353C125.965 191.136 126.353 191.027 126.796 191.027C127.052 191.027 127.305 191.07 127.554 191.155C127.803 191.24 128.03 191.379 128.235 191.57C128.439 191.76 128.602 192.011 128.724 192.325C128.845 192.638 128.906 193.023 128.906 193.482V193.801H125.122V193.149H128.139C128.139 192.872 128.083 192.625 127.973 192.408C127.864 192.19 127.708 192.019 127.506 191.893C127.306 191.767 127.069 191.705 126.796 191.705C126.496 191.705 126.236 191.779 126.017 191.928C125.799 192.075 125.632 192.267 125.515 192.504C125.398 192.74 125.339 192.994 125.339 193.264V193.699C125.339 194.07 125.403 194.384 125.531 194.642C125.661 194.897 125.841 195.092 126.071 195.227C126.301 195.359 126.568 195.425 126.873 195.425C127.071 195.425 127.25 195.397 127.41 195.342C127.572 195.284 127.712 195.199 127.829 195.086C127.946 194.971 128.036 194.828 128.1 194.658L128.829 194.862C128.752 195.109 128.623 195.327 128.442 195.514C128.261 195.7 128.038 195.844 127.771 195.949C127.505 196.051 127.205 196.102 126.873 196.102ZM130.053 196V191.091H130.782V191.832H130.833C130.922 191.589 131.084 191.392 131.319 191.241C131.553 191.09 131.817 191.014 132.111 191.014C132.167 191.014 132.236 191.015 132.319 191.017C132.402 191.02 132.465 191.023 132.508 191.027V191.794C132.482 191.788 132.424 191.778 132.332 191.765C132.242 191.75 132.148 191.743 132.047 191.743C131.809 191.743 131.596 191.793 131.408 191.893C131.223 191.991 131.076 192.127 130.967 192.302C130.861 192.475 130.807 192.672 130.807 192.893V196H130.053ZM136.879 192.19L136.201 192.382C136.159 192.269 136.096 192.159 136.013 192.053C135.932 191.944 135.821 191.855 135.681 191.784C135.54 191.714 135.36 191.679 135.14 191.679C134.84 191.679 134.59 191.748 134.389 191.887C134.191 192.023 134.092 192.197 134.092 192.408C134.092 192.595 134.16 192.743 134.297 192.852C134.433 192.961 134.646 193.051 134.936 193.124L135.665 193.303C136.103 193.409 136.431 193.572 136.646 193.792C136.861 194.009 136.969 194.289 136.969 194.632C136.969 194.913 136.888 195.165 136.726 195.386C136.566 195.608 136.342 195.783 136.054 195.911C135.767 196.038 135.432 196.102 135.051 196.102C134.55 196.102 134.136 195.994 133.808 195.776C133.48 195.559 133.272 195.241 133.184 194.824L133.9 194.645C133.969 194.909 134.097 195.107 134.287 195.239C134.479 195.371 134.729 195.438 135.038 195.438C135.39 195.438 135.669 195.363 135.875 195.214C136.084 195.062 136.189 194.881 136.189 194.67C136.189 194.5 136.129 194.357 136.01 194.242C135.89 194.125 135.707 194.038 135.46 193.98L134.642 193.788C134.192 193.682 133.862 193.517 133.651 193.293C133.442 193.067 133.338 192.785 133.338 192.446C133.338 192.169 133.416 191.924 133.571 191.711C133.729 191.498 133.943 191.331 134.214 191.209C134.486 191.088 134.795 191.027 135.14 191.027C135.626 191.027 136.008 191.134 136.285 191.347C136.564 191.56 136.762 191.841 136.879 192.19ZM140.085 197.943C139.721 197.943 139.408 197.896 139.146 197.803C138.884 197.711 138.665 197.589 138.491 197.438C138.318 197.289 138.181 197.129 138.078 196.959L138.679 196.537C138.747 196.626 138.834 196.729 138.938 196.844C139.042 196.961 139.185 197.062 139.366 197.147C139.55 197.235 139.789 197.278 140.085 197.278C140.482 197.278 140.809 197.183 141.067 196.991C141.324 196.799 141.453 196.499 141.453 196.089V195.092H141.389C141.334 195.182 141.255 195.293 141.153 195.425C141.053 195.555 140.908 195.671 140.718 195.773C140.531 195.873 140.277 195.923 139.958 195.923C139.561 195.923 139.205 195.83 138.89 195.642C138.577 195.455 138.329 195.182 138.145 194.824C137.964 194.466 137.874 194.031 137.874 193.52C137.874 193.017 137.962 192.579 138.139 192.206C138.316 191.831 138.562 191.542 138.877 191.337C139.193 191.13 139.557 191.027 139.97 191.027C140.29 191.027 140.544 191.08 140.731 191.187C140.921 191.291 141.066 191.411 141.166 191.545C141.268 191.677 141.347 191.786 141.402 191.871H141.479V191.091H142.208V196.141C142.208 196.562 142.112 196.906 141.92 197.17C141.73 197.436 141.475 197.631 141.153 197.755C140.833 197.88 140.477 197.943 140.085 197.943ZM140.06 195.246C140.362 195.246 140.618 195.176 140.827 195.038C141.036 194.9 141.194 194.7 141.303 194.44C141.412 194.18 141.466 193.869 141.466 193.507C141.466 193.153 141.413 192.841 141.306 192.571C141.2 192.3 141.042 192.088 140.833 191.935C140.625 191.781 140.367 191.705 140.06 191.705C139.74 191.705 139.474 191.786 139.261 191.947C139.05 192.109 138.891 192.327 138.785 192.599C138.68 192.872 138.628 193.175 138.628 193.507C138.628 193.848 138.681 194.15 138.788 194.412C138.897 194.672 139.056 194.876 139.267 195.025C139.48 195.172 139.745 195.246 140.06 195.246ZM143.588 196V191.091H144.317V191.832H144.368C144.458 191.589 144.62 191.392 144.854 191.241C145.088 191.09 145.352 191.014 145.647 191.014C145.702 191.014 145.771 191.015 145.854 191.017C145.937 191.02 146 191.023 146.043 191.027V191.794C146.017 191.788 145.959 191.778 145.867 191.765C145.778 191.75 145.683 191.743 145.583 191.743C145.344 191.743 145.131 191.793 144.943 191.893C144.758 191.991 144.611 192.127 144.502 192.302C144.396 192.475 144.343 192.672 144.343 192.893V196H143.588ZM150.031 193.993V191.091H150.785V196H150.031V195.169H149.98C149.864 195.418 149.686 195.63 149.443 195.805C149.2 195.978 148.893 196.064 148.522 196.064C148.215 196.064 147.943 195.997 147.704 195.863C147.465 195.726 147.278 195.522 147.141 195.249C147.005 194.974 146.937 194.628 146.937 194.21V191.091H147.691V194.159C147.691 194.517 147.791 194.803 147.992 195.016C148.194 195.229 148.452 195.335 148.765 195.335C148.953 195.335 149.143 195.287 149.337 195.191C149.533 195.096 149.697 194.949 149.829 194.75C149.964 194.552 150.031 194.3 150.031 193.993ZM152.166 197.841V191.091H152.895V191.871H152.985C153.04 191.786 153.117 191.677 153.215 191.545C153.315 191.411 153.458 191.291 153.643 191.187C153.83 191.08 154.084 191.027 154.404 191.027C154.817 191.027 155.181 191.13 155.497 191.337C155.812 191.544 156.058 191.837 156.235 192.216C156.412 192.595 156.5 193.043 156.5 193.558C156.5 194.078 156.412 194.529 156.235 194.91C156.058 195.289 155.813 195.583 155.5 195.792C155.187 195.999 154.826 196.102 154.416 196.102C154.101 196.102 153.849 196.05 153.659 195.946C153.469 195.839 153.323 195.719 153.221 195.585C153.119 195.448 153.04 195.335 152.985 195.246H152.921V197.841H152.166ZM152.908 193.545C152.908 193.916 152.962 194.243 153.071 194.527C153.18 194.808 153.338 195.028 153.547 195.188C153.756 195.346 154.012 195.425 154.314 195.425C154.629 195.425 154.893 195.342 155.104 195.175C155.317 195.007 155.476 194.781 155.583 194.498C155.692 194.212 155.746 193.895 155.746 193.545C155.746 193.2 155.693 192.889 155.586 192.612C155.482 192.333 155.323 192.113 155.11 191.951C154.899 191.787 154.634 191.705 154.314 191.705C154.007 191.705 153.75 191.782 153.541 191.938C153.332 192.091 153.174 192.306 153.068 192.583C152.961 192.858 152.908 193.179 152.908 193.545ZM157.651 197.841V191.091H158.379V191.871H158.469C158.524 191.786 158.601 191.677 158.699 191.545C158.799 191.411 158.942 191.291 159.127 191.187C159.315 191.08 159.568 191.027 159.888 191.027C160.301 191.027 160.666 191.13 160.981 191.337C161.296 191.544 161.542 191.837 161.719 192.216C161.896 192.595 161.985 193.043 161.985 193.558C161.985 194.078 161.896 194.529 161.719 194.91C161.542 195.289 161.297 195.583 160.984 195.792C160.671 195.999 160.31 196.102 159.901 196.102C159.585 196.102 159.333 196.05 159.143 195.946C158.954 195.839 158.808 195.719 158.705 195.585C158.603 195.448 158.524 195.335 158.469 195.246H158.405V197.841H157.651ZM158.392 193.545C158.392 193.916 158.447 194.243 158.555 194.527C158.664 194.808 158.823 195.028 159.031 195.188C159.24 195.346 159.496 195.425 159.799 195.425C160.114 195.425 160.377 195.342 160.588 195.175C160.801 195.007 160.961 194.781 161.067 194.498C161.176 194.212 161.23 193.895 161.23 193.545C161.23 193.2 161.177 192.889 161.071 192.612C160.966 192.333 160.807 192.113 160.594 191.951C160.383 191.787 160.118 191.705 159.799 191.705C159.492 191.705 159.234 191.782 159.025 191.938C158.816 192.091 158.659 192.306 158.552 192.583C158.446 192.858 158.392 193.179 158.392 193.545ZM165.193 196.102C164.72 196.102 164.312 195.998 163.969 195.789C163.628 195.578 163.365 195.284 163.18 194.907C162.997 194.528 162.905 194.087 162.905 193.584C162.905 193.081 162.997 192.638 163.18 192.254C163.365 191.869 163.623 191.568 163.953 191.353C164.286 191.136 164.674 191.027 165.117 191.027C165.372 191.027 165.625 191.07 165.874 191.155C166.123 191.24 166.35 191.379 166.555 191.57C166.759 191.76 166.922 192.011 167.044 192.325C167.165 192.638 167.226 193.023 167.226 193.482V193.801H163.442V193.149H166.459C166.459 192.872 166.404 192.625 166.293 192.408C166.184 192.19 166.029 192.019 165.826 191.893C165.626 191.767 165.389 191.705 165.117 191.705C164.816 191.705 164.556 191.779 164.337 191.928C164.12 192.075 163.952 192.267 163.835 192.504C163.718 192.74 163.659 192.994 163.659 193.264V193.699C163.659 194.07 163.723 194.384 163.851 194.642C163.981 194.897 164.161 195.092 164.391 195.227C164.621 195.359 164.889 195.425 165.193 195.425C165.392 195.425 165.571 195.397 165.73 195.342C165.892 195.284 166.032 195.199 166.149 195.086C166.266 194.971 166.357 194.828 166.421 194.658L167.149 194.862C167.073 195.109 166.944 195.327 166.763 195.514C166.582 195.7 166.358 195.844 166.091 195.949C165.825 196.051 165.526 196.102 165.193 196.102Z" fill="#989898"/>
</svg>
