<svg width="393" height="54" viewBox="0 0 393 54" fill="none" xmlns="http://www.w3.org/2000/svg">
<path d="M61.1779 21.7231C58.5798 21.7231 56.7287 23.4995 56.7287 25.9316V25.9482C56.7287 28.2227 58.3391 29.8994 60.6384 29.8994C62.2819 29.8994 63.3278 29.061 63.7678 28.1147H63.9338C63.9338 28.2061 63.9255 28.2974 63.9255 28.3887C63.8342 30.6797 63.029 32.5391 61.1281 32.5391C60.0739 32.5391 59.3351 31.9912 59.0197 31.1528L58.9948 31.0698H56.8864L56.903 31.1611C57.2849 32.9956 58.9284 34.2988 61.1281 34.2988C64.1413 34.2988 65.9592 31.9082 65.9592 27.874V27.8574C65.9592 23.541 63.7346 21.7231 61.1779 21.7231ZM61.1696 28.2559C59.8083 28.2559 58.8205 27.2598 58.8205 25.8735V25.8569C58.8205 24.5205 59.8747 23.4663 61.1945 23.4663C62.5226 23.4663 63.5602 24.5371 63.5602 25.9067V25.9233C63.5602 27.2764 62.5226 28.2559 61.1696 28.2559ZM69.3197 26.2388C70.0834 26.2388 70.6395 25.6577 70.6395 24.9272C70.6395 24.1885 70.0834 23.6157 69.3197 23.6157C68.5644 23.6157 67.9999 24.1885 67.9999 24.9272C67.9999 25.6577 68.5644 26.2388 69.3197 26.2388ZM69.3197 32.3979C70.0834 32.3979 70.6395 31.8252 70.6395 31.0864C70.6395 30.3477 70.0834 29.7749 69.3197 29.7749C68.5644 29.7749 67.9999 30.3477 67.9999 31.0864C67.9999 31.8252 68.5644 32.3979 69.3197 32.3979ZM78.4908 34H80.5411V31.7007H82.1515V29.9326H80.5411V22.022H77.5113C75.8844 24.4956 74.1827 27.2515 72.6305 29.9492V31.7007H78.4908V34ZM74.6227 29.9824V29.8579C75.7848 27.8242 77.171 25.6079 78.3995 23.7319H78.524V29.9824H74.6227ZM86.7073 34H88.8489V22.022H86.7156L83.5862 24.2217V26.2388L86.5662 24.1304H86.7073V34Z" fill="white"/>
<rect x="129.299" y="8" width="127" height="38" rx="19" fill="black"/>
<rect x="224.799" y="19.5" width="15" height="15" rx="7.5" fill="url(#paint0_radial_304_624)" stroke="#1D1D1D"/>
<path opacity="0.35" d="M339.299 21H356.299C358.232 21 359.799 22.567 359.799 24.5V29.5C359.799 31.433 358.232 33 356.299 33H339.299C337.366 33 335.799 31.433 335.799 29.5V24.5C335.799 22.567 337.366 21 339.299 21Z" fill="white" stroke="white"/>
<path opacity="0.4" d="M361.299 25.5V29.7203C362.148 29.3629 362.701 28.5314 362.701 27.6102C362.701 26.6889 362.148 25.8574 361.299 25.5" fill="white"/>
<path d="M337.299 24.5C337.299 23.3954 338.195 22.5 339.299 22.5H356.299C357.404 22.5 358.299 23.3954 358.299 24.5V29.5C358.299 30.6046 357.404 31.5 356.299 31.5H339.299C338.195 31.5 337.299 30.6046 337.299 29.5V24.5Z" fill="white"/>
<path d="M317.415 30.4189C318.834 29.1934 320.914 29.1935 322.333 30.4189C322.405 30.4849 322.447 30.5785 322.449 30.6768C322.451 30.775 322.413 30.8696 322.344 30.9385L320.121 33.2285C320.055 33.2958 319.967 33.3339 319.875 33.334C319.782 33.334 319.693 33.2958 319.627 33.2285L317.404 30.9385C317.335 30.8696 317.297 30.775 317.299 30.6768C317.301 30.5785 317.343 30.4848 317.415 30.4189ZM314.409 27.6787C317.468 24.7741 322.205 24.7741 325.264 27.6787C325.333 27.7468 325.373 27.8405 325.374 27.9385C325.374 28.0364 325.337 28.1308 325.269 28.2002L323.984 29.5254C323.851 29.6607 323.637 29.664 323.501 29.5322C322.497 28.6038 321.191 28.0898 319.835 28.0898C318.481 28.0904 317.175 28.6043 316.171 29.5322C316.036 29.664 315.821 29.6607 315.689 29.5254L314.404 28.2002C314.336 28.1308 314.298 28.0364 314.299 27.9385C314.3 27.8405 314.34 27.7468 314.409 27.6787ZM311.407 24.9424C316.099 20.3528 323.5 20.3528 328.192 24.9424C328.26 25.0106 328.299 25.1039 328.299 25.2012C328.3 25.2983 328.262 25.392 328.195 25.4609L326.909 26.7861C326.776 26.9221 326.561 26.9238 326.426 26.79C324.639 25.0553 322.266 24.088 319.799 24.0879C317.333 24.088 314.96 25.0553 313.172 26.79C313.038 26.9239 312.822 26.9223 312.69 26.7861L311.403 25.4609C311.336 25.392 311.299 25.2982 311.299 25.2012C311.3 25.1039 311.339 25.0105 311.407 24.9424Z" fill="white"/>
<path d="M286.299 30H287.299C287.575 30 287.799 30.2239 287.799 30.5V32.5C287.799 32.7761 287.575 33 287.299 33H286.299C286.023 33 285.799 32.7761 285.799 32.5V30.5C285.799 30.2239 286.023 30 286.299 30ZM291.299 27.5H292.299C292.575 27.5 292.799 27.7239 292.799 28V32.5C292.799 32.7761 292.575 33 292.299 33H291.299C291.023 33 290.799 32.7761 290.799 32.5V28C290.799 27.7239 291.023 27.5 291.299 27.5ZM296.299 24H297.299C297.575 24 297.799 24.2239 297.799 24.5V32.5C297.799 32.7761 297.575 33 297.299 33H296.299C296.023 33 295.799 32.7761 295.799 32.5V24.5C295.799 24.2239 296.023 24 296.299 24ZM301.299 22H302.299C302.575 22 302.799 22.2239 302.799 22.5V32.5C302.799 32.7761 302.575 33 302.299 33H301.299C301.023 33 300.799 32.7761 300.799 32.5V22.5C300.799 22.2239 301.023 22 301.299 22Z" fill="white" stroke="white"/>
<defs>
<radialGradient id="paint0_radial_304_624" cx="0" cy="0" r="1" gradientUnits="userSpaceOnUse" gradientTransform="translate(232.299 27) rotate(90) scale(8)">
<stop stop-color="#52587F"/>
<stop offset="1" stop-color="#06092F"/>
</radialGradient>
</defs>
</svg>
