<svg width="127" height="33" viewBox="0 0 127 33" fill="none" xmlns="http://www.w3.org/2000/svg">
<path d="M12.2799 15.7044L14.1824 19.7862C14.7358 21.0315 15.2547 21.4466 16.327 21.4466C16.9497 21.4466 17.6415 21.2736 17.9874 21.1698L17.3302 25.3208C16.8459 25.5629 15.7044 25.8743 14.3553 25.8743C11.7264 25.8743 10.6195 24.8019 9.54717 22.2076L7.95598 18.5755L5.81132 20.8239L5.08491 25.39H0L3.9434 0.484314H9.13208L6.84906 14.9434L13.5943 8.09438H19.7516L12.2799 15.7044Z" fill="#335B5C"/>
<path d="M22.7957 8.09438H27.5001L27.3271 9.78935C27.258 10.3082 27.1888 10.7233 27.1888 10.9309C28.5724 9.06294 30.5787 7.61011 32.8271 7.61011C33.3806 7.61011 33.8649 7.67929 33.9341 7.71388L33.1385 12.7642C33.0693 12.7296 32.6888 12.5566 32.0315 12.5566C29.4026 12.5566 26.8775 14.8743 26.3932 18.0221L25.2171 25.39H20.063L22.7957 8.09438Z" fill="#335B5C"/>
<path d="M45.7296 25.3899L45.9025 23.4182C45.9717 22.7956 46.1447 22.3805 46.2485 22.2075H46.1793C45.1761 23.7987 42.5818 25.8742 39.7107 25.8742C35.8019 25.8742 34.0724 23.4874 34.7988 18.9213L36.4937 8.0943H41.6824L40.1258 18.0566C39.8491 19.7861 40.0912 21.1698 41.9591 21.1698C44.3113 21.1698 46.2484 19.3018 46.6635 16.7075L48.0126 8.0943H53.1667L50.434 25.3899H45.7296Z" fill="#335B5C"/>
<path d="M72.4685 25.39H67.7641L67.9025 23.7988C67.9717 23.107 68.1792 22.6573 68.1792 22.6573H68.11C67.0377 24.3868 64.5125 25.8743 61.9874 25.8743C58.044 25.8743 55.2075 23.0032 55.2075 18.2988C55.2075 11.761 59.8427 7.6101 64.7201 7.6101C67.2453 7.6101 69.044 8.7862 69.7704 10.1353H69.8396C69.8396 10.1353 69.805 9.68557 69.9434 8.71702L71.2578 0.484314H76.4119L72.4685 25.39ZM60.1541 17.5724C60.1541 19.9246 61.5031 21.5158 63.6132 21.5158C65.9308 21.5158 68.5943 19.5787 68.5943 15.912C68.5943 13.2831 66.9685 11.9686 65.1006 11.9686C62.4025 11.9686 60.1541 14.2862 60.1541 17.5724Z" fill="#335B5C"/>
<path d="M80.3207 8.09432L81.1509 2.90564H86.1666L85.3365 8.09432H89.9371L89.3144 12.1415H84.7138L83.6069 19.0943C83.2956 20.9277 84.2987 21.5503 85.4402 21.5503C86.5126 21.5503 87.6541 21.2044 88.4843 20.8239L87.7924 25.0786C86.9968 25.4591 85.3365 25.8742 83.2956 25.8742C80.5629 25.8742 78.1069 24.5943 78.2798 20.9622C78.349 20.4088 78.349 19.8207 78.4528 19.1981L79.5943 12.1415H77.2075L77.8302 8.09432H80.3207Z" fill="#335B5C"/>
<path d="M94.1571 8.09434L94.3993 6.53774C95.0219 2.59434 97.9276 0 102.597 0C103.67 0 104.569 0.138365 104.846 0.207547L104.154 4.60063C103.912 4.49686 103.255 4.35849 102.424 4.35849C100.626 4.35849 99.3804 5.32704 99.1037 7.12579L98.9307 8.09434H102.978L102.355 12.1415H98.5156L95.1949 33H90.0408L93.3615 12.1415H91.0785L91.7012 8.09434H94.1571Z" fill="#335B5C"/>
<path d="M105.745 8.09438H110.45L110.277 9.78935C110.207 10.3082 110.138 10.7233 110.138 10.9309C111.522 9.06294 113.528 7.61011 115.777 7.61011C116.33 7.61011 116.814 7.67929 116.884 7.71388L116.088 12.7642C116.019 12.7296 115.638 12.5566 114.981 12.5566C112.352 12.5566 109.827 14.8743 109.343 18.0221L108.167 25.39H103.012L105.745 8.09438Z" fill="#335B5C"/>
<path d="M124.978 8.09425L122.245 25.3899H117.056L119.789 8.09425H124.978ZM123.629 0.345825C125.151 0.345825 126.085 1.2452 126.085 2.69803C126.085 4.60054 124.666 5.91501 122.729 5.91501C121.173 5.91501 120.273 4.98105 120.273 3.5974C120.273 1.66029 121.622 0.345825 123.629 0.345825Z" fill="#335B5C"/>
</svg>
