<svg width="18" height="16" viewBox="0 0 18 16" fill="none" xmlns="http://www.w3.org/2000/svg">
<path d="M13.55 10.35V5.55C13.55 3.2876 13.55 2.1556 12.8468 1.4532C12.1444 0.75 11.0124 0.75 8.75 0.75H5.55C3.2876 0.75 2.1556 0.75 1.4532 1.4532C0.75 2.1556 0.75 3.2876 0.75 5.55V10.35C0.75 12.6124 0.75 13.7444 1.4532 14.4468C2.1556 15.15 3.2876 15.15 5.55 15.15H15.15M3.95 4.75H10.35M3.95 7.95H10.35M3.95 11.15H7.15" stroke="#488484" stroke-width="1.5" stroke-linecap="round" stroke-linejoin="round"/>
<path d="M13.55 4.75H14.35C15.4812 4.75 16.0468 4.75 16.398 5.102C16.75 5.4532 16.75 6.0188 16.75 7.15V13.55C16.75 13.9743 16.5815 14.3813 16.2814 14.6814C15.9814 14.9814 15.5744 15.15 15.15 15.15C14.7257 15.15 14.3187 14.9814 14.0187 14.6814C13.7186 14.3813 13.55 13.9743 13.55 13.55V4.75Z" stroke="#488484" stroke-width="1.5" stroke-linecap="round" stroke-linejoin="round"/>
</svg>
