<svg width="18" height="18" viewBox="0 0 18 18" fill="none" xmlns="http://www.w3.org/2000/svg">
<path d="M8.75 3.41667C9.58822 3.41667 10.0069 3.41667 10.2673 3.67711C10.5278 3.93756 10.5278 4.35622 10.5278 5.19444V12.3056C10.5278 13.1438 10.5278 13.5624 10.2673 13.8229C10.0069 14.0833 9.58822 14.0833 8.75 14.0833M8.75 3.41667C7.91178 3.41667 7.49311 3.41667 7.23267 3.67711C6.97222 3.93756 6.97222 4.35622 6.97222 5.19444V12.3056C6.97222 13.1438 6.97222 13.5624 7.23267 13.8229C7.49311 14.0833 7.91178 14.0833 8.75 14.0833M8.75 3.41667V0.75M8.75 14.0833V16.75M14.9722 2.52778C15.8104 2.52778 16.2291 2.52778 16.4896 2.78822C16.75 3.04867 16.75 3.46733 16.75 4.30556V6.08333C16.75 6.92156 16.75 7.34022 16.4896 7.60067C16.2291 7.86111 15.8104 7.86111 14.9722 7.86111M14.9722 2.52778C14.134 2.52778 13.7153 2.52778 13.4549 2.78822C13.1944 3.04867 13.1944 3.46733 13.1944 4.30556V6.08333C13.1944 6.92156 13.1944 7.34022 13.4549 7.60067C13.7153 7.86111 14.134 7.86111 14.9722 7.86111M14.9722 2.52778V0.75M14.9722 7.86111V9.63889M2.52778 6.97222C3.366 6.97222 3.78467 6.97222 4.04511 7.23267C4.30556 7.49311 4.30556 7.91178 4.30556 8.75V10.5278C4.30556 11.366 4.30556 11.7847 4.04511 12.0451C3.78467 12.3056 3.366 12.3056 2.52778 12.3056M2.52778 6.97222C1.68956 6.97222 1.27089 6.97222 1.01044 7.23267C0.75 7.49311 0.75 7.91178 0.75 8.75V10.5278C0.75 11.366 0.75 11.7847 1.01044 12.0451C1.27089 12.3056 1.68956 12.3056 2.52778 12.3056M2.52778 6.97222V5.19444M2.52778 12.3056V14.0833" stroke="#488484" stroke-width="1.5" stroke-linecap="round" stroke-linejoin="round"/>
</svg>
