<svg width="393" height="54" viewBox="0 0 393 54" fill="none" xmlns="http://www.w3.org/2000/svg">
<path d="M62.8786 24.7231C60.2805 24.7231 58.4294 26.4995 58.4294 28.9316V28.9482C58.4294 31.2227 60.0397 32.8994 62.3391 32.8994C63.9826 32.8994 65.0285 32.061 65.4684 31.1147H65.6345C65.6345 31.2061 65.6262 31.2974 65.6262 31.3887C65.5349 33.6797 64.7297 35.5391 62.8288 35.5391C61.7746 35.5391 61.0358 34.9912 60.7204 34.1528L60.6955 34.0698H58.5871L58.6037 34.1611C58.9855 35.9956 60.6291 37.2988 62.8288 37.2988C65.842 37.2988 67.6599 34.9082 67.6599 30.874V30.8574C67.6599 26.541 65.4352 24.7231 62.8786 24.7231ZM62.8703 31.2559C61.509 31.2559 60.5212 30.2598 60.5212 28.8735V28.8569C60.5212 27.5205 61.5754 26.4663 62.8952 26.4663C64.2233 26.4663 65.2609 27.5371 65.2609 28.9067V28.9233C65.2609 30.2764 64.2233 31.2559 62.8703 31.2559ZM71.0204 29.2388C71.7841 29.2388 72.3402 28.6577 72.3402 27.9272C72.3402 27.1885 71.7841 26.6157 71.0204 26.6157C70.265 26.6157 69.7006 27.1885 69.7006 27.9272C69.7006 28.6577 70.265 29.2388 71.0204 29.2388ZM71.0204 35.3979C71.7841 35.3979 72.3402 34.8252 72.3402 34.0864C72.3402 33.3477 71.7841 32.7749 71.0204 32.7749C70.265 32.7749 69.7006 33.3477 69.7006 34.0864C69.7006 34.8252 70.265 35.3979 71.0204 35.3979ZM80.1915 37H82.2418V34.7007H83.8522V32.9326H82.2418V25.022H79.212C77.5851 27.4956 75.8834 30.2515 74.3312 32.9492V34.7007H80.1915V37ZM76.3233 32.9824V32.8579C77.4855 30.8242 78.8717 28.6079 80.1002 26.7319H80.2247V32.9824H76.3233ZM88.408 37H90.5496V25.022H88.4163L85.2869 27.2217V29.2388L88.2669 27.1304H88.408V37Z" fill="white"/>
<path opacity="0.35" d="M341 24.5H358C359.933 24.5 361.5 26.067 361.5 28V33C361.5 34.933 359.933 36.5 358 36.5H341C339.067 36.5 337.5 34.933 337.5 33V28C337.5 26.067 339.067 24.5 341 24.5Z" stroke="white"/>
<path opacity="0.4" d="M363 29V33.2203C363.849 32.8629 364.401 32.0314 364.401 31.1102C364.401 30.1889 363.849 29.3574 363 29" fill="white"/>
<path d="M339 28C339 26.8954 339.895 26 341 26H358C359.105 26 360 26.8954 360 28V33C360 34.1046 359.105 35 358 35H341C339.895 35 339 34.1046 339 33V28Z" fill="white"/>
<path d="M319.115 33.9189C320.535 32.6934 322.614 32.6935 324.034 33.9189C324.106 33.9849 324.147 34.0785 324.149 34.1768C324.151 34.275 324.114 34.3696 324.045 34.4385L321.821 36.7285C321.756 36.7958 321.668 36.8339 321.575 36.834C321.482 36.834 321.393 36.7958 321.328 36.7285L319.104 34.4385C319.036 34.3696 318.998 34.275 319 34.1768C319.002 34.0785 319.044 33.9848 319.115 33.9189ZM316.109 31.1787C319.168 28.2741 323.906 28.2741 326.965 31.1787C327.034 31.2468 327.073 31.3405 327.074 31.4385C327.075 31.5364 327.037 31.6308 326.97 31.7002L325.685 33.0254C325.552 33.1607 325.338 33.164 325.202 33.0322C324.198 32.1038 322.891 31.5898 321.536 31.5898C320.182 31.5904 318.876 32.1043 317.872 33.0322C317.736 33.164 317.522 33.1607 317.39 33.0254L316.104 31.7002C316.037 31.6308 315.999 31.5364 316 31.4385C316.001 31.3405 316.04 31.2468 316.109 31.1787ZM313.107 28.4424C317.799 23.8528 325.201 23.8528 329.893 28.4424C329.96 28.5106 329.999 28.6039 330 28.7012C330 28.7983 329.963 28.892 329.896 28.9609L328.609 30.2861C328.477 30.4221 328.262 30.4238 328.127 30.29C326.339 28.5553 323.967 27.588 321.5 27.5879C319.033 27.588 316.661 28.5553 314.873 30.29C314.739 30.4239 314.523 30.4223 314.391 30.2861L313.104 28.9609C313.037 28.892 313 28.7982 313 28.7012C313.001 28.6039 313.039 28.5105 313.107 28.4424Z" fill="white"/>
<path d="M297 28C297 27.4477 297.448 27 298 27H299C299.552 27 300 27.4477 300 28V36C300 36.5523 299.552 37 299 37H298C297.448 37 297 36.5523 297 36V28Z" fill="white"/>
<path d="M302 26C302 25.4477 302.448 25 303 25H304C304.552 25 305 25.4477 305 26V36C305 36.5523 304.552 37 304 37H303C302.448 37 302 36.5523 302 36V26Z" fill="white"/>
<path d="M292 31.5C292 30.9477 292.448 30.5 293 30.5H294C294.552 30.5 295 30.9477 295 31.5V36C295 36.5523 294.552 37 294 37H293C292.448 37 292 36.5523 292 36V31.5Z" fill="white"/>
<path d="M287 34C287 33.4477 287.448 33 288 33H289C289.552 33 290 33.4477 290 34V36C290 36.5523 289.552 37 289 37H288C287.448 37 287 36.5523 287 36V34Z" fill="white"/>
<rect x="133" y="11" width="127" height="38" rx="19" fill="black"/>
<rect x="228.5" y="22.5" width="15" height="15" rx="7.5" fill="url(#paint0_radial_304_596)" stroke="#1D1D1D"/>
<defs>
<radialGradient id="paint0_radial_304_596" cx="0" cy="0" r="1" gradientUnits="userSpaceOnUse" gradientTransform="translate(236 30) rotate(90) scale(8)">
<stop stop-color="#52587F"/>
<stop offset="1" stop-color="#06092F"/>
</radialGradient>
</defs>
</svg>
