<svg width="18" height="19" viewBox="0 0 18 19" fill="none" xmlns="http://www.w3.org/2000/svg">
<path d="M0.75 7.72796C0.75 7.05633 0.761339 6.39953 0.78489 5.76541C0.857286 3.69558 0.89392 2.66022 1.73564 1.81153C2.57735 0.96371 2.77012 0.918354 4.89839 0.826768C6.13164 0.774993 7.36585 0.749401 8.60019 0.750011C9.89111 0.750011 11.1341 0.776178 12.302 0.826768C14.4303 0.918354 14.6222 0.96371 15.4647 1.8124C16.3065 2.66022 16.3431 3.69558 16.4155 5.76541C16.4615 7.07337 16.4615 8.38255 16.4155 9.69051C16.3431 11.7603 16.3065 12.7957 15.4647 13.6444C14.623 14.4922 14.4303 14.5376 12.302 14.6291C11.6612 14.6565 10.9997 14.6768 10.3176 14.6902C9.67218 14.7024 9.34858 14.7076 9.06422 14.8167C8.77987 14.9257 8.54088 15.1289 8.06289 15.5389L6.16227 17.17C6.06977 17.2493 5.95647 17.3003 5.83582 17.3171C5.71517 17.3339 5.59223 17.3158 5.48158 17.2648C5.37094 17.2139 5.27723 17.1322 5.21158 17.0296C5.14594 16.927 5.1111 16.8077 5.11122 16.6859V14.6379L4.89839 14.6291C2.77012 14.5376 2.57822 14.4922 1.73564 13.6435C0.89392 12.7957 0.857286 11.7603 0.78489 9.69051C0.761759 9.03658 0.750127 8.38229 0.75 7.72796Z" stroke="#C0A822" stroke-width="1.5" stroke-linecap="round" stroke-linejoin="round"/>
<path d="M8.59229 11.6531H8.60117" stroke="#C0A822" stroke-width="1.5" stroke-linecap="round" stroke-linejoin="round"/>
<path d="M6.41968 5.98348C6.41976 5.58931 6.52669 5.20254 6.72908 4.8643C6.93147 4.52606 7.22176 4.249 7.56906 4.06259C7.91637 3.87619 8.30771 3.78741 8.70145 3.80569C9.0952 3.82398 9.47662 3.94865 9.80516 4.16644C10.1337 4.38424 10.3971 4.68701 10.5672 5.04256C10.7374 5.3981 10.808 5.79312 10.7716 6.1856C10.7351 6.57808 10.593 6.95334 10.3602 7.27147C10.1275 7.5896 9.81287 7.83869 9.44985 7.99226C9.00588 8.18154 8.60029 8.55486 8.60029 9.03634" stroke="#C0A822" stroke-width="1.5" stroke-linecap="round" stroke-linejoin="round"/>
</svg>
