<svg width="42" height="29" viewBox="0 0 42 29" fill="none" xmlns="http://www.w3.org/2000/svg">
<path d="M9.45 29C6.8306 29 4.6011 28.0982 2.7615 26.2947C0.9205 24.494 0 22.3003 0 19.7138C0 17.3399 0.8225 15.2333 2.4675 13.3939C4.1125 11.5544 6.1572 10.5664 8.6016 10.4296C9.0734 7.41226 10.4804 4.91964 12.8226 2.95179C15.1648 0.983929 17.8906 0 21 0C24.5028 0 27.4785 1.20764 29.9271 3.62293C32.3757 6.03821 33.6 8.97343 33.6 12.4286V14.5H34.8936C36.904 14.5635 38.591 15.292 39.9546 16.6854C41.3182 18.0787 42 19.767 42 21.75C42 23.7814 41.2902 25.4979 39.8706 26.8996C38.4482 28.2999 36.708 29 34.65 29H9.45Z" fill="#629F9E"/>
</svg>
